<svg width="23" height="23" viewBox="0 0 23 23" fill="none" xmlns="http://www.w3.org/2000/svg">
<g id="icon/bell-snooze">
<path id="Vector" d="M17.25 7.66667C17.25 14.375 20.125 16.2917 20.125 16.2917H2.875C2.875 16.2917 5.75 14.375 5.75 7.66667C5.75 6.14167 6.3558 4.67914 7.43414 3.6008C8.51247 2.52247 9.97501 1.91667 11.5 1.91667" stroke="#EF4444" stroke-width="2.5" stroke-linecap="round" stroke-linejoin="round"/>
<path id="Vector_2" d="M13.158 20.125C12.9895 20.4154 12.7477 20.6565 12.4567 20.8241C12.1657 20.9917 11.8359 21.0799 11.5001 21.0799C11.1643 21.0799 10.8344 20.9917 10.5434 20.8241C10.2525 20.6565 10.0106 20.4154 9.84216 20.125" stroke="#EF4444" stroke-width="2.5" stroke-linecap="round" stroke-linejoin="round"/>
<path id="z" d="M12.0182 9.06061C11.732 9.06061 11.5 8.82861 11.5 8.54243C11.5 8.42617 11.5391 8.31328 11.611 8.22193L14.3239 4.77543C14.3288 4.76919 14.3314 4.76148 14.3314 4.75355C14.3314 4.734 14.3156 4.71816 14.2961 4.71816H12.0343C11.79 4.71816 11.5919 4.52008 11.5919 4.27574C11.5919 4.03141 11.79 3.83333 12.0343 3.83333H15.0468C15.3528 3.83333 15.6008 4.08138 15.6008 4.38736C15.6008 4.5092 15.5607 4.62763 15.4866 4.72434L12.8856 8.11856C12.8809 8.12477 12.8783 8.13238 12.8783 8.1402C12.8783 8.15985 12.8942 8.17578 12.9139 8.17578H15.2537C15.498 8.17578 15.6961 8.37386 15.6961 8.61819C15.6961 8.86253 15.498 9.06061 15.2537 9.06061H12.0182Z" fill="#EF4444"/>
<path id="z_2" d="M16.8098 5.22727C16.5236 5.22727 16.2916 4.99528 16.2916 4.7091C16.2916 4.59284 16.3307 4.47995 16.4026 4.3886L19.1155 0.942101C19.1204 0.935862 19.1231 0.928153 19.1231 0.920213C19.1231 0.900669 19.1072 0.884825 19.0877 0.884825H16.8259C16.5816 0.884825 16.3835 0.68675 16.3835 0.442413C16.3835 0.198075 16.5816 0 16.8259 0H19.8384C20.1444 0 20.3924 0.248047 20.3924 0.554028C20.3924 0.675864 20.3523 0.794302 20.2782 0.89101L17.6772 4.28523C17.6725 4.29144 17.6699 4.29905 17.6699 4.30687C17.6699 4.32652 17.6858 4.34245 17.7055 4.34245H20.0453C20.2897 4.34245 20.4877 4.54052 20.4877 4.78486C20.4877 5.0292 20.2897 5.22727 20.0453 5.22727H16.8098Z" fill="#EF4444"/>
</g>
</svg>
