<svg width="589" height="390" viewBox="0 0 589 390" fill="none" xmlns="http://www.w3.org/2000/svg">
<g clip-path="url(#clip0_3646_53411)">
<path d="M320.795 0.485474H374.196V309.466H320.795V0.485474Z" fill="#09090B"/>
<path d="M374.196 309.952H320.795C320.503 309.952 320.309 309.758 320.309 309.467V0.485514C320.309 0.194206 320.503 0 320.795 0H374.196C374.487 0 374.681 0.194206 374.681 0.485514V309.467C374.681 309.758 374.487 309.952 374.196 309.952ZM321.28 308.981H373.71V0.971028H321.28V308.981Z" fill="#9E9E9E"/>
<path d="M267.394 0.485474H320.795V309.466H267.394V0.485474Z" fill="#09090B"/>
<path d="M320.795 309.952H267.394C267.102 309.952 266.908 309.758 266.908 309.467V0.485514C266.908 0.194206 267.102 0 267.394 0H320.795C321.086 0 321.28 0.194206 321.28 0.485514V309.467C321.28 309.758 321.086 309.952 320.795 309.952ZM267.879 308.981H320.309V0.971028H267.879V308.981Z" fill="#9E9E9E"/>
<path d="M374.196 0.485474H427.597V309.466H374.196V0.485474Z" fill="#09090B"/>
<path d="M427.597 309.952H374.196C373.904 309.952 373.71 309.758 373.71 309.467V0.485514C373.71 0.194206 373.904 0 374.196 0H427.597C427.888 0 428.082 0.194206 428.082 0.485514V309.467C428.082 309.758 427.888 309.952 427.597 309.952ZM374.681 308.981H427.111V0.971028H374.681V308.981Z" fill="#9E9E9E"/>
<path d="M480.998 0.485474H534.399V309.466H480.998V0.485474Z" fill="#09090B"/>
<path d="M534.399 309.952H480.998C480.707 309.952 480.512 309.758 480.512 309.467V0.485514C480.512 0.194206 480.707 0 480.998 0H534.399C534.69 0 534.884 0.194206 534.884 0.485514V309.467C534.884 309.758 534.69 309.952 534.399 309.952ZM481.483 308.981H533.913V0.971028H481.483V308.981Z" fill="#9E9E9E"/>
<path d="M160.689 0.485474H214.09V309.466H160.689V0.485474Z" fill="#09090B"/>
<path d="M214.09 309.952H160.689C160.397 309.952 160.203 309.758 160.203 309.467V0.485514C160.203 0.194206 160.397 0 160.689 0H214.09C214.381 0 214.575 0.194206 214.575 0.485514V309.467C214.575 309.758 214.284 309.952 214.09 309.952ZM161.174 308.981H213.604V0.971028H161.174V308.981Z" fill="#9E9E9E"/>
<path d="M53.8865 0.485474H107.288V309.466H53.8865V0.485474Z" fill="#09090B"/>
<path d="M107.288 309.952H53.8865C53.5952 309.952 53.401 309.758 53.401 309.467V0.485514C53.401 0.194206 53.5952 0 53.8865 0H107.288C107.579 0 107.773 0.194206 107.773 0.485514V309.467C107.773 309.758 107.579 309.952 107.288 309.952ZM54.3719 308.981H106.802V0.971028H54.3719V308.981Z" fill="#9E9E9E"/>
<path d="M427.597 0.485474H480.998V309.466H427.597V0.485474Z" fill="#09090B"/>
<path d="M480.998 309.952H427.597C427.305 309.952 427.111 309.758 427.111 309.467V0.485514C427.111 0.194206 427.305 0 427.597 0H480.998C481.289 0 481.483 0.194206 481.483 0.485514V309.467C481.483 309.758 481.289 309.952 480.998 309.952ZM428.082 308.981H480.512V0.971028H428.082V308.981Z" fill="#9E9E9E"/>
<path d="M534.399 0.485474H587.8V309.466H534.399V0.485474Z" fill="#09090B"/>
<path d="M587.8 309.952H534.399C534.108 309.952 533.913 309.758 533.913 309.467V0.485514C533.913 0.194206 534.108 0 534.399 0H587.8C588.091 0 588.285 0.194206 588.285 0.485514V309.467C588.285 309.758 587.994 309.952 587.8 309.952ZM534.884 308.981H587.314V0.971028H534.884V308.981Z" fill="#9E9E9E"/>
<path d="M214.09 0.485474H267.491V309.466H214.09V0.485474Z" fill="#09090B"/>
<path d="M267.394 309.952H213.993C213.701 309.952 213.507 309.758 213.507 309.467V0.485514C213.507 0.194206 213.701 0 213.993 0H267.394C267.685 0 267.879 0.194206 267.879 0.485514V309.467C267.879 309.758 267.685 309.952 267.394 309.952ZM214.575 308.981H267.005V0.971028H214.575V308.981Z" fill="#9E9E9E"/>
<path d="M107.288 0.485474H160.689V309.466H107.288V0.485474Z" fill="#09090B"/>
<path d="M160.689 309.952H107.288C106.996 309.952 106.802 309.758 106.802 309.467V0.485514C106.802 0.194206 106.996 0 107.288 0H160.689C160.98 0 161.174 0.194206 161.174 0.485514V309.467C161.174 309.758 160.883 309.952 160.689 309.952ZM107.773 308.981H160.203V0.971028H107.773V308.981Z" fill="#9E9E9E"/>
<path d="M0.485474 0.485474H53.8865V309.466H0.485474V0.485474Z" fill="#09090B"/>
<path d="M53.8865 309.952H0.485464C0.194186 309.952 0 309.758 0 309.467V0.485514C0 0.194206 0.194186 0 0.485464 0H53.8865C54.1778 0 54.372 0.194206 54.372 0.485514V309.467C54.372 309.758 54.1778 309.952 53.8865 309.952ZM0.970928 308.981H53.401V0.971028H0.970928V308.981Z" fill="#9E9E9E"/>
</g>
<g clip-path="url(#clip1_3646_53411)">
<path d="M499.224 279.539L506.797 329.738C506.797 331.83 514.638 333.527 524.31 333.527C533.982 333.527 541.823 331.83 541.823 329.738L549.396 279.539H499.224Z" fill="#09090B"/>
<path d="M524.309 333.999C515.371 333.999 506.324 332.536 506.324 329.737L498.756 279.609C498.746 279.542 498.751 279.473 498.77 279.408C498.789 279.342 498.822 279.282 498.866 279.23C498.91 279.179 498.965 279.137 499.027 279.109C499.089 279.08 499.156 279.065 499.224 279.065H549.395C549.463 279.065 549.53 279.08 549.592 279.109C549.654 279.137 549.709 279.179 549.753 279.23C549.797 279.282 549.83 279.342 549.849 279.408C549.868 279.473 549.873 279.542 549.863 279.609L542.29 329.808C542.295 332.536 533.248 333.999 524.309 333.999ZM499.774 280.012L507.265 329.667C507.269 331.122 513.752 333.053 524.309 333.053C534.866 333.053 541.349 331.122 541.349 329.738L548.845 280.012H499.774Z" fill="#9E9E9E"/>
<path d="M524.31 286.169C539.21 286.169 551.288 283.624 551.288 280.486C551.288 277.347 539.21 274.803 524.31 274.803C509.41 274.803 497.332 277.347 497.332 280.486C497.332 283.624 509.41 286.169 524.31 286.169Z" fill="#09090B"/>
<path d="M524.309 286.642C511.001 286.642 496.858 284.485 496.858 280.486C496.858 276.487 511.001 274.329 524.309 274.329C537.617 274.329 551.761 276.487 551.761 280.486C551.761 284.485 537.617 286.642 524.309 286.642ZM524.309 275.276C508.689 275.276 497.804 278.021 497.804 280.486C497.804 282.95 508.689 285.695 524.309 285.695C539.929 285.695 550.815 282.95 550.815 280.486C550.815 278.021 539.929 275.276 524.309 275.276Z" fill="#9E9E9E"/>
<path d="M524.31 288.063C537.315 288.063 547.857 286.208 547.857 283.919C547.857 281.631 537.315 279.776 524.31 279.776C511.305 279.776 500.762 281.631 500.762 283.919C500.762 286.208 511.305 288.063 524.31 288.063Z" fill="#9E9E9E"/>
<path d="M524.309 288.535C514.653 288.535 500.289 287.306 500.289 283.918C500.289 280.531 514.654 279.301 524.309 279.301C533.964 279.301 548.33 280.531 548.33 283.918C548.33 287.306 533.965 288.535 524.309 288.535ZM524.309 280.249C510.013 280.249 501.236 282.387 501.236 283.919C501.236 285.452 510.013 287.59 524.309 287.59C538.605 287.59 547.383 285.452 547.383 283.919C547.383 282.387 538.606 280.249 524.309 280.249Z" fill="#9E9E9E"/>
<path d="M545.618 304.581L544.833 309.781C541.472 311.486 533.549 312.689 524.31 312.689C515.071 312.689 507.148 311.486 503.787 309.781L503.002 304.581C505.756 306.532 514.248 307.953 524.311 307.953C534.373 307.953 542.864 306.532 545.618 304.581Z" fill="#09090B"/>
<path d="M524.309 313.162C515.255 313.162 507.116 312 503.573 310.204C503.505 310.17 503.447 310.12 503.403 310.059C503.359 309.998 503.33 309.927 503.319 309.852L502.533 304.653C502.518 304.561 502.532 304.467 502.57 304.383C502.609 304.298 502.672 304.227 502.751 304.178C502.83 304.129 502.922 304.105 503.015 304.108C503.108 304.111 503.198 304.142 503.274 304.196C506.004 306.13 514.654 307.481 524.308 307.481C533.963 307.481 542.613 306.13 545.343 304.196C545.419 304.142 545.509 304.112 545.602 304.109C545.694 304.106 545.786 304.131 545.865 304.18C545.944 304.228 546.007 304.299 546.046 304.383C546.085 304.468 546.098 304.561 546.084 304.653L545.298 309.852C545.287 309.927 545.258 309.998 545.214 310.059C545.17 310.12 545.112 310.17 545.044 310.204C541.504 312 533.364 313.162 524.309 313.162ZM504.218 309.465C507.75 311.14 515.577 312.215 524.31 312.215C533.043 312.215 540.87 311.14 544.402 309.465L545.003 305.491C541.454 307.267 533.43 308.426 524.31 308.426C515.19 308.426 507.167 307.267 503.617 305.491L504.218 309.465Z" fill="#9E9E9E"/>
<path d="M546.906 296.048L546.13 301.191C542.258 302.953 533.947 304.165 524.31 304.165C514.673 304.165 506.362 302.952 502.49 301.191L501.714 296.048C505.151 298.027 513.973 299.429 524.31 299.429C534.647 299.429 543.469 298.027 546.906 296.048Z" fill="#09090B"/>
<path d="M524.309 304.638C514.819 304.638 506.383 303.482 502.293 301.621C502.222 301.588 502.159 301.538 502.112 301.475C502.064 301.413 502.033 301.339 502.021 301.261L501.245 296.119C501.232 296.031 501.244 295.941 501.28 295.86C501.316 295.778 501.374 295.708 501.447 295.658C501.52 295.608 501.606 295.579 501.695 295.576C501.784 295.572 501.872 295.593 501.949 295.637C505.395 297.621 514.38 298.955 524.308 298.955C534.237 298.955 543.222 297.622 546.668 295.637C546.745 295.592 546.834 295.57 546.923 295.574C547.012 295.577 547.098 295.606 547.172 295.656C547.245 295.707 547.303 295.777 547.338 295.858C547.374 295.94 547.386 296.031 547.372 296.119L546.596 301.261C546.584 301.339 546.553 301.413 546.506 301.476C546.458 301.538 546.395 301.588 546.324 301.621C542.236 303.482 533.8 304.638 524.309 304.638ZM502.919 300.863C506.93 302.585 515.266 303.691 524.309 303.691C533.353 303.691 541.689 302.585 545.699 300.863L546.299 296.887C542.245 298.733 533.828 299.903 524.308 299.903C514.789 299.903 506.371 298.733 502.318 296.887L502.919 300.863Z" fill="#9E9E9E"/>
<path d="M527.859 239.039C527.594 244.448 527.272 249.685 526.932 254.62V254.658C526.648 258.806 526.345 262.737 526.052 266.365C525.872 268.619 525.692 270.75 525.513 272.748C525.354 274.618 525.187 276.487 525.011 278.356C524.992 278.583 524.964 278.81 524.945 279.028C524.935 279.122 524.926 279.208 524.926 279.302C524.888 279.605 524.86 279.899 524.841 280.192C524.793 280.599 524.756 280.997 524.718 281.386C524.652 282.077 524.585 282.741 524.529 283.356H523.62C523.601 283.138 523.592 282.911 523.573 282.684C523.563 282.532 523.545 282.381 523.535 282.23V282.201C523.526 282.012 523.507 281.813 523.488 281.624C523.355 279.994 523.194 278.356 522.986 276.708C522.755 274.768 522.483 272.832 522.172 270.902C519.994 257.452 516.009 243.435 512.071 228.527C509.098 217.265 506.145 205.493 504.025 193.065C498.212 159.099 498.344 142.894 508.776 140.602C509.646 140.403 510.593 140.308 511.606 140.308C518.97 140.308 526.382 150.793 528.323 192.08C528.465 195.101 528.559 198.208 528.616 201.371C528.844 213.664 528.475 226.783 527.859 239.039Z" fill="#09090B"/>
<path d="M524.528 283.829H523.619C523.501 283.829 523.387 283.785 523.3 283.705C523.212 283.625 523.158 283.515 523.148 283.397L523.062 282.259C523.052 282.042 523.034 281.851 523.017 281.669C522.886 280.031 522.72 278.396 522.516 276.766C522.285 274.831 522.015 272.9 521.704 270.976C519.851 259.527 516.691 247.692 513.347 235.162C512.772 233.008 512.192 230.837 511.613 228.646C508.222 215.798 505.554 204.844 503.557 193.144C498.138 161.477 497.238 142.652 508.674 140.14C509.557 139.938 510.546 139.835 511.607 139.835C521.384 139.835 527.167 157.405 528.796 192.057C528.932 194.942 529.03 198.073 529.09 201.362C529.293 212.327 529.038 225.012 528.332 239.063C528.074 244.262 527.765 249.459 527.404 254.652C527.136 258.571 526.842 262.488 526.523 266.402C526.353 268.533 526.173 270.662 525.983 272.791C525.812 274.807 525.642 276.684 525.481 278.4L525.415 279.069C525.405 279.174 525.398 279.236 525.398 279.303C525.358 279.655 525.331 279.939 525.312 280.224C525.267 280.614 525.232 280.972 525.198 281.323L524.999 283.402C524.987 283.519 524.933 283.627 524.846 283.707C524.759 283.786 524.645 283.83 524.528 283.829ZM524.059 282.883H524.097L524.256 281.229C524.291 280.873 524.326 280.509 524.37 280.137C524.387 279.859 524.416 279.556 524.455 279.244C524.454 279.167 524.459 279.09 524.469 279.014L524.538 278.316C524.699 276.598 524.869 274.724 525.039 272.708C525.219 270.708 525.399 268.579 525.579 266.326C525.931 261.967 526.21 258.249 526.459 254.625C526.839 249.072 527.143 243.979 527.386 239.015C528.091 224.985 528.345 212.323 528.143 201.379C528.09 198.285 527.992 195.192 527.85 192.101C526.251 158.048 520.784 140.781 511.607 140.781C510.617 140.781 509.699 140.876 508.882 141.064C499.433 143.139 498.285 156.726 504.489 192.985C506.48 204.651 509.143 215.581 512.527 228.405C513.105 230.594 513.685 232.765 514.26 234.918C517.611 247.471 520.776 259.328 522.637 270.826C522.967 272.886 523.234 274.791 523.454 276.652C523.646 278.174 523.81 279.788 523.957 281.585C523.976 281.773 523.996 281.981 524.005 282.177L524.059 282.883Z" fill="#9E9E9E"/>
<path d="M523.429 283.356H525.151L525.094 282.39L525.009 280.894L524.971 280.108L524.924 279.303L524.915 279.209L524.782 276.85V276.775L524.224 267C524.224 266.962 524.214 266.924 524.214 266.886C523.789 260.872 523.42 254.848 522.955 248.834C522.785 246.826 522.633 244.808 522.463 242.8C522.151 238.756 521.829 234.721 521.431 230.686L520.598 221.622L519.652 212.568C518.355 200.501 516.907 188.444 515.146 176.434C514.257 170.429 513.329 164.434 512.278 158.457C511.246 152.479 510.13 146.521 508.776 140.602C510.054 146.54 511.085 152.507 512.042 158.493C513.016 164.479 513.859 170.484 514.683 176.499C516.273 188.518 517.579 200.585 518.715 212.661L519.538 221.715L520.257 230.788C520.768 236.822 521.109 242.884 521.536 248.926C521.772 252.611 521.971 256.295 522.17 259.979C522.264 261.618 522.349 263.247 522.444 264.885C522.444 264.97 522.444 265.055 522.454 265.131L522.567 267.092L522.662 269.298C522.671 269.317 522.671 269.346 522.671 269.365L522.823 273.002L522.983 276.705L523.173 280.949L523.201 281.498V281.507L523.21 281.725L523.277 283.354H523.429V283.356Z" fill="#9E9E9E"/>
<path d="M556.968 184.379C555.936 186.965 553.409 193.643 550.2 202.508V202.517C544.643 217.89 537.032 239.834 531.609 258.437C531.164 259.953 530.738 261.44 530.33 262.898V262.907C528.617 269.007 527.188 274.633 526.232 279.388C526.232 279.397 526.222 279.397 526.222 279.406C525.995 280.525 525.796 281.594 525.617 282.608C525.588 282.76 525.569 282.921 525.541 283.072C525.522 283.167 525.512 283.261 525.494 283.356H523.922C523.894 283.205 523.884 283.053 523.865 282.902C523.856 282.845 523.846 282.788 523.837 282.722C523.742 281.889 523.638 280.979 523.543 280.013C523.335 278.053 523.127 275.836 522.947 273.393C522.847 272.052 522.756 270.71 522.673 269.368C522.673 269.349 522.673 269.32 522.664 269.301C522.588 267.966 522.512 266.574 522.455 265.134C522.446 265.058 522.446 264.973 522.446 264.888C522.38 263.533 522.332 262.132 522.295 260.683V260.664C522.153 255.198 522.172 249.174 522.465 242.8C523.061 229.9 524.793 215.551 528.618 201.372C530.35 194.941 532.509 188.548 535.197 182.335C544.086 161.782 550.342 154.659 556.022 154.659C557.234 154.659 558.237 154.886 559.07 155.293C566.671 159.042 559.353 178.45 556.968 184.379Z" fill="#09090B"/>
<path d="M525.493 283.829H523.921C523.811 283.829 523.704 283.791 523.619 283.72C523.535 283.65 523.477 283.552 523.457 283.444C523.436 283.33 523.421 283.215 523.41 283.1L523.368 282.787L523.355 282.682C523.263 281.872 523.163 280.992 523.071 280.059C522.832 277.805 522.636 275.635 522.474 273.426C522.38 272.148 522.285 270.803 522.2 269.401C522.195 269.376 522.191 269.351 522.19 269.326C522.108 267.935 522.038 266.543 521.981 265.15C521.973 265.062 521.969 264.973 521.971 264.885C521.905 263.55 521.857 262.145 521.82 260.692C521.663 254.72 521.72 248.744 521.991 242.776C522.682 227.833 524.758 213.859 528.16 201.246C529.981 194.484 532.202 188.058 534.761 182.143C543.125 162.806 549.682 154.182 556.022 154.182C557.256 154.182 558.351 154.412 559.278 154.865C566.591 158.473 561.245 175.014 557.407 184.553C556.341 187.225 553.775 194.018 550.659 202.627C550.655 202.643 550.651 202.659 550.645 202.675C546.23 214.887 537.946 238.386 532.062 258.567C531.63 260.037 531.208 261.511 530.795 262.988L530.786 263.032C528.93 269.638 527.592 275.017 526.695 279.478C526.687 279.516 526.675 279.552 526.659 279.587C526.458 280.619 526.266 281.653 526.082 282.689L525.957 283.447C525.936 283.555 525.878 283.652 525.793 283.721C525.709 283.791 525.602 283.829 525.493 283.829ZM524.337 282.883H525.092L525.151 282.521C525.331 281.507 525.531 280.434 525.759 279.312C525.767 279.273 525.779 279.236 525.796 279.201C526.705 274.672 528.034 269.337 529.866 262.814C529.869 262.799 529.872 262.784 529.875 262.77C530.283 261.31 530.709 259.821 531.156 258.302C537.04 238.12 545.32 214.628 549.742 202.395C549.746 202.378 549.751 202.362 549.756 202.346C552.883 193.709 555.459 186.887 556.53 184.203C559.522 176.767 565.735 159.109 558.861 155.717C558.067 155.328 557.111 155.131 556.023 155.131C550.112 155.131 543.823 163.578 535.631 182.521C533.09 188.393 530.884 194.777 529.075 201.494C525.69 214.042 523.625 227.946 522.938 242.821C522.669 248.76 522.612 254.707 522.768 260.65C522.806 262.115 522.852 263.513 522.919 264.863C522.919 264.951 522.918 265.016 522.926 265.072C522.985 266.544 523.06 267.929 523.136 269.257C523.143 269.293 523.147 269.33 523.147 269.367C523.231 270.737 523.326 272.08 523.421 273.357C523.582 275.555 523.776 277.716 524.016 279.962C524.107 280.894 524.207 281.769 524.299 282.575L524.337 282.883Z" fill="#9E9E9E"/>
<path d="M559.07 155.292C553.182 164.981 548.383 175.295 544.18 185.809C540.015 196.341 536.408 207.101 533.663 218.087C530.899 229.055 528.627 240.165 527.34 251.398L526.933 254.619V254.657L526.81 255.613L526.545 257.715L526.393 259.828L525.759 268.285L525.703 268.901C525.602 270.18 525.539 271.463 525.513 272.746C525.485 274.016 525.466 275.284 525.438 276.554C525.428 276.62 525.428 276.687 525.428 276.753L525.4 278.07L525.353 280.683L525.324 281.773V282.123L525.296 283.355H523.431L523.469 282.228V282.076L523.488 281.622L523.544 280.011L523.658 276.686L523.686 275.91C523.743 274.186 523.781 272.472 523.885 270.757C523.942 269.896 524.008 269.033 524.103 268.172L524.216 266.883L524.86 259.675L525.049 257.554L525.342 255.441L525.929 251.217C526.459 247.135 527.103 243.072 527.86 239.037C529.204 231.905 530.879 224.839 532.744 217.84C535.651 206.854 539.417 196.122 543.744 185.628C548.098 175.163 553.049 164.905 559.07 155.292Z" fill="#9E9E9E"/>
<path d="M523.429 283.356H525.728C525.69 283.1 525.653 282.854 525.615 282.608C525.567 282.211 525.511 281.822 525.454 281.433C525.416 281.178 525.378 280.932 525.35 280.685C525.274 280.203 525.208 279.729 525.142 279.264C525.104 279.018 525.066 278.772 525.038 278.535L525.009 278.356C524.933 277.844 524.858 277.343 524.782 276.849V276.774C524.47 274.643 524.177 272.644 523.883 270.759C523.387 267.395 522.857 264.035 522.293 260.682V260.663C522.245 260.435 522.208 260.208 522.17 259.981C519.718 245.793 517.541 239.542 512.069 228.526C510.583 225.524 508.85 222.171 506.796 218.202C500.691 206.391 495.437 200.774 489.758 200.774C489.068 200.774 488.518 200.944 488.083 201.257C484.315 203.928 489.399 217.33 494.491 227.427C498.95 236.273 506.125 250.234 512.572 262.707C515.251 267.896 517.933 273.084 520.618 278.269C521.593 280.145 522.483 281.859 523.259 283.356H523.278H523.429Z" fill="#09090B"/>
<path d="M525.729 283.829H523.278C523.188 283.83 523.101 283.806 523.023 283.761C522.946 283.716 522.882 283.652 522.839 283.574L520.198 278.488C517.888 274.026 515.095 268.627 512.151 262.925C507.644 254.204 499.302 238.022 494.068 227.64C492.132 223.802 482.731 204.47 487.809 200.871C488.335 200.493 488.992 200.301 489.758 200.301C495.511 200.301 500.896 205.755 507.218 217.984C509.399 222.198 511.054 225.406 512.494 228.316C517.796 238.99 520.125 245.366 522.637 259.9C522.675 260.126 522.712 260.346 522.757 260.566C522.764 260.598 522.767 260.63 522.767 260.663C523.331 263.999 523.859 267.342 524.352 270.69C524.645 272.572 524.939 274.573 525.251 276.706C525.254 276.728 525.256 276.827 525.256 276.85L525.478 278.287L525.509 278.48C525.536 278.711 525.573 278.951 525.61 279.192L525.639 279.397C525.696 279.796 525.754 280.201 525.818 280.613C525.845 280.84 525.876 281.047 525.908 281.262L525.923 281.365C525.981 281.759 526.039 282.151 526.086 282.553L526.198 283.288C526.207 283.355 526.202 283.424 526.183 283.489C526.164 283.554 526.131 283.614 526.087 283.666C526.042 283.717 525.987 283.758 525.926 283.786C525.864 283.815 525.797 283.829 525.729 283.829ZM523.546 282.883H525.179L525.151 282.696C525.1 282.27 525.043 281.886 524.987 281.502L524.972 281.399C524.939 281.175 524.907 280.957 524.881 280.738C524.819 280.335 524.76 279.932 524.704 279.528L524.675 279.33C524.637 279.082 524.599 278.832 524.569 278.59L524.543 278.423L524.316 276.919C524.312 276.87 524.31 276.821 524.31 276.772C524.002 274.711 523.71 272.714 523.416 270.83C522.921 267.468 522.391 264.11 521.826 260.758C521.824 260.746 521.823 260.733 521.822 260.72C521.778 260.501 521.741 260.28 521.704 260.061C519.193 245.531 516.991 239.495 511.646 228.735C510.21 225.832 508.556 222.628 506.378 218.418C500.238 206.543 495.113 201.247 489.757 201.247C489.185 201.247 488.728 201.376 488.358 201.641C485.13 203.93 489.324 216.133 494.913 227.214C500.145 237.592 508.485 253.771 512.992 262.491C515.936 268.193 518.728 273.591 521.037 278.053L523.546 282.883Z" fill="#9E9E9E"/>
<path d="M560.755 221.28C555.64 230.493 550.576 239.735 545.561 249.003C544.34 251.248 543.091 253.568 541.793 255.974C541.491 256.542 541.188 257.12 540.876 257.698C536.306 266.23 531.774 274.783 527.282 283.356H524.214C524.309 282.087 524.423 280.666 524.564 279.113C524.631 278.384 524.706 277.626 524.782 276.849V276.774C525.028 274.378 525.331 271.735 525.7 268.903C525.813 268.07 525.927 267.226 526.05 266.365C528.312 250.339 532.846 229.369 541.821 214.101C544.537 209.479 547.416 205.548 550.198 202.517V202.507C554.184 198.151 557.961 195.651 560.753 195.651C562.211 195.651 563.375 195.897 564.303 196.351C571.811 199.968 563.282 216.715 560.755 221.28Z" fill="#09090B"/>
<path d="M527.282 283.829H524.214C524.149 283.829 524.085 283.816 524.026 283.79C523.966 283.763 523.912 283.725 523.868 283.678C523.824 283.63 523.79 283.574 523.768 283.512C523.747 283.451 523.738 283.386 523.742 283.321C523.837 282.05 523.951 280.626 524.093 279.07C524.145 278.495 524.204 277.9 524.264 277.293L524.312 276.804C524.58 274.125 524.888 271.473 525.232 268.842L525.285 268.455C525.381 267.746 525.478 267.028 525.583 266.297C527.744 250.987 532.245 229.461 541.413 213.86C544.045 209.383 546.946 205.368 549.805 202.246C549.818 202.225 549.833 202.206 549.85 202.188C553.986 197.666 557.858 195.176 560.753 195.176C562.253 195.176 563.483 195.421 564.511 195.925C565.918 196.603 566.888 197.75 567.391 199.331C569.441 205.777 563.146 217.935 561.167 221.509C556.053 230.721 550.99 239.96 545.976 249.227C544.893 251.218 543.789 253.268 542.649 255.383L541.888 256.804C541.691 257.175 541.493 257.549 541.291 257.922C536.722 266.452 532.192 275.003 527.701 283.575C527.661 283.651 527.601 283.716 527.527 283.761C527.453 283.805 527.368 283.829 527.282 283.829ZM524.724 282.883H526.995C531.444 274.393 535.932 265.923 540.457 257.474C540.66 257.101 540.856 256.73 541.052 256.361L541.816 254.934C542.922 252.88 544.032 250.827 545.145 248.777C550.159 239.507 555.225 230.265 560.34 221.051C561.715 218.567 568.475 205.861 566.49 199.619C566.064 198.277 565.281 197.347 564.099 196.777C563.213 196.343 562.089 196.123 560.755 196.123C558.138 196.123 554.531 198.486 550.595 202.777C550.581 202.798 550.565 202.818 550.549 202.837C547.72 205.918 544.844 209.895 542.231 214.34C533.14 229.807 528.67 251.204 526.52 266.43C526.416 267.16 526.319 267.875 526.222 268.582L526.17 268.966C525.829 271.586 525.52 274.23 525.254 276.821L525.206 277.384C525.023 279.215 524.862 281.048 524.724 282.883Z" fill="#9E9E9E"/>
<path d="M525.597 283.356H523.703C523.666 283.138 523.618 282.911 523.571 282.684C523.533 282.533 523.505 282.381 523.467 282.23C523.457 282.182 523.448 282.135 523.429 282.078C523.42 282.021 523.41 281.974 523.391 281.917C523.325 281.595 523.259 281.273 523.174 280.952C521.81 275.003 520.049 269.121 518.071 263.325C515.534 256.107 512.618 249.004 509.504 241.995C506.352 235.005 502.963 228.119 499.394 221.319C495.816 214.527 492.087 207.811 488.083 201.257C492.219 207.735 496.091 214.375 499.812 221.1C503.522 227.824 507.062 234.654 510.366 241.596C513.632 248.567 516.708 255.623 519.407 262.851C520.386 265.514 521.308 268.198 522.171 270.901C522.398 271.602 522.615 272.303 522.823 273.004C522.871 273.136 522.909 273.26 522.946 273.392C523.202 274.225 523.448 275.069 523.685 275.911C523.997 276.973 524.281 278.042 524.564 279.113C524.64 279.406 524.716 279.69 524.782 279.984C524.81 280.05 524.829 280.126 524.839 280.192C524.867 280.277 524.886 280.353 524.896 280.438C524.943 280.59 524.981 280.741 525.009 280.893C525.104 281.234 525.189 281.574 525.265 281.925L525.321 282.124C525.397 282.436 525.473 282.748 525.539 283.07C525.568 283.167 525.587 283.261 525.597 283.356Z" fill="#9E9E9E"/>
<path d="M564.304 196.351C560.016 203.274 555.983 210.359 552.102 217.51C548.211 224.671 544.51 231.925 541.103 239.313C538.026 245.972 535.092 252.725 532.621 259.63C532.347 260.368 532.091 261.108 531.836 261.855C530.198 266.638 528.693 271.479 527.567 276.385C527.557 276.394 527.557 276.403 527.557 276.413C527.023 278.707 526.587 281.024 526.251 283.355H524.376C524.48 282.692 524.594 282.038 524.717 281.385C524.774 281.063 524.84 280.751 524.897 280.438C524.925 280.325 524.944 280.211 524.972 280.107C525.02 279.823 525.076 279.539 525.143 279.264C525.218 278.867 525.313 278.469 525.398 278.071C526.411 273.591 527.755 269.215 529.251 264.905C529.658 263.72 530.075 262.547 530.501 261.372C530.86 260.386 531.229 259.411 531.608 258.436C534.173 251.778 537.136 245.299 540.25 238.905C543.81 231.565 547.662 224.367 551.685 217.282C555.718 210.199 559.883 203.189 564.304 196.351Z" fill="#9E9E9E"/>
<path d="M543.715 263.295C537.278 268.713 531.324 277.389 527.651 283.356H524.3C524.432 282.295 524.593 281.159 524.782 279.984C524.829 279.728 524.867 279.473 524.915 279.208C524.924 279.151 524.933 279.094 524.943 279.028C524.981 278.867 525.009 278.706 525.038 278.536C525.161 277.882 525.293 277.228 525.435 276.556C526.269 272.597 527.499 268.448 529.25 264.906C529.581 264.215 529.941 263.542 530.329 262.907V262.898C530.669 262.32 531.03 261.77 531.408 261.25C531.806 260.691 532.212 260.15 532.62 259.63C536.975 254.06 541.632 250.604 545.56 249.003C547.33 248.274 548.959 247.923 550.34 247.923C551.344 247.923 552.054 248.178 552.489 248.652C554.536 250.793 550.73 257.395 543.715 263.295Z" fill="#09090B"/>
<path d="M527.651 283.829H524.299C524.232 283.829 524.166 283.815 524.105 283.787C524.044 283.76 523.99 283.719 523.945 283.669C523.901 283.619 523.868 283.56 523.848 283.496C523.828 283.431 523.822 283.364 523.83 283.297C523.964 282.231 524.125 281.089 524.316 279.909L524.475 278.962C524.518 278.768 524.545 278.618 524.571 278.458C524.696 277.79 524.829 277.133 524.972 276.457C525.936 271.875 527.233 267.918 528.826 264.696C529.165 263.989 529.525 263.319 529.896 262.708C529.903 262.691 529.912 262.673 529.922 262.656C530.268 262.069 530.639 261.502 531.026 260.97C531.424 260.41 531.836 259.864 532.247 259.337C536.259 254.206 540.924 250.38 545.382 248.564C547.152 247.835 548.868 247.449 550.341 247.449C551.46 247.449 552.3 247.746 552.838 248.332C553.329 248.846 553.556 249.567 553.508 250.47C553.33 253.734 549.517 259.033 544.02 263.658C537.694 268.981 531.846 277.443 528.054 283.604C528.011 283.673 527.952 283.73 527.882 283.769C527.811 283.809 527.732 283.829 527.651 283.829ZM524.838 282.883H527.388C531.22 276.683 537.067 268.273 543.411 262.934C548.638 258.536 552.402 253.391 552.564 250.419C552.598 249.788 552.459 249.304 552.149 248.979C551.792 248.59 551.185 248.396 550.342 248.396C548.991 248.396 547.4 248.757 545.742 249.44C541.432 251.197 536.905 254.918 532.994 259.921C532.582 260.446 532.182 260.98 531.795 261.523C531.428 262.029 531.084 262.553 530.766 263.091C530.756 263.113 530.746 263.133 530.733 263.153C530.349 263.787 529.996 264.44 529.678 265.109C528.117 268.266 526.847 272.148 525.899 276.652C525.758 277.322 525.626 277.972 525.504 278.623C525.476 278.794 525.445 278.964 525.406 279.136L525.249 280.07C525.097 281.005 524.96 281.943 524.838 282.883Z" fill="#9E9E9E"/>
<path d="M523.429 283.356H524.072C523.997 283.205 523.931 283.063 523.864 282.902C523.77 282.703 523.675 282.504 523.571 282.296C523.562 282.267 523.543 282.239 523.533 282.201C523.514 282.163 523.495 282.125 523.467 282.078C523.448 282.031 523.42 281.974 523.391 281.917C523.332 281.78 523.269 281.644 523.202 281.51V281.501C520.58 275.997 516.812 268.752 512.572 262.709C512.231 262.208 511.881 261.725 511.53 261.251C507.743 256.126 504.828 255.104 502.063 255.104C501.041 255.104 500.293 255.378 499.801 255.87C497.075 258.551 501.694 267.615 507.743 272.521C512.041 276.016 517.503 279.928 521.507 283.356H523.278H523.429Z" fill="#09090B"/>
<path d="M524.072 283.829H521.507C521.395 283.83 521.285 283.789 521.2 283.716C518.922 281.766 516.125 279.623 513.418 277.551C511.39 275.997 509.293 274.391 507.445 272.888C502.729 269.062 498.731 262.607 498.534 258.5C498.473 257.202 498.787 256.205 499.47 255.533C500.067 254.935 500.941 254.63 502.064 254.63C504.617 254.63 507.783 255.383 511.91 260.969C512.265 261.447 512.619 261.936 512.962 262.443C517.294 268.615 521.154 276.103 523.629 281.297C523.637 281.313 523.644 281.331 523.649 281.348C523.712 281.474 523.772 281.607 523.826 281.731C523.856 281.787 523.886 281.849 523.907 281.902C523.927 281.929 523.944 281.958 523.957 281.989C523.972 282.019 523.984 282.051 523.992 282.084C524.005 282.104 524.015 282.126 524.021 282.149C524.1 282.295 524.196 282.496 524.292 282.699C524.364 282.87 524.425 283.003 524.496 283.145C524.532 283.217 524.549 283.297 524.545 283.378C524.542 283.459 524.517 283.537 524.475 283.605C524.433 283.674 524.373 283.731 524.303 283.77C524.232 283.809 524.153 283.829 524.072 283.829ZM521.682 282.883H523.332C523.274 282.763 523.213 282.638 523.148 282.508C523.13 282.469 523.113 282.429 523.097 282.389L523.06 282.32C523.015 282.222 522.995 282.184 522.976 282.145C522.913 282.003 522.848 281.862 522.779 281.722C522.768 281.701 522.759 281.678 522.752 281.656C520.291 276.497 516.469 269.086 512.184 262.981C511.849 262.491 511.504 262.008 511.15 261.532C507.272 256.284 504.381 255.576 502.063 255.576C501.2 255.576 500.552 255.787 500.135 256.205C499.65 256.682 499.43 257.437 499.478 258.454C499.66 262.263 503.581 268.535 508.04 272.153C509.878 273.648 511.97 275.249 513.993 276.798C516.658 278.838 519.41 280.947 521.682 282.883ZM552.491 248.653C548.95 250.339 545.855 252.801 543.043 255.472C542.296 256.191 541.576 256.931 540.876 257.698C538.954 259.8 537.202 262.073 535.593 264.422L534.021 266.875C533.492 267.689 533.066 268.561 532.573 269.404C531.588 271.08 530.812 272.861 529.979 274.604C529.535 275.475 529.213 276.385 528.843 277.284L527.773 279.992C527.385 281.11 527.025 282.228 526.656 283.355H524.744C524.867 283.033 524.981 282.711 525.094 282.389C525.16 282.229 525.217 282.077 525.265 281.926C525.29 281.878 525.309 281.827 525.321 281.774C525.369 281.661 525.406 281.547 525.454 281.433C525.7 280.752 525.955 280.079 526.22 279.406C526.22 279.397 526.23 279.397 526.23 279.387L527.432 276.679C527.47 276.594 527.508 276.509 527.555 276.414C527.555 276.404 527.555 276.395 527.565 276.385C527.924 275.581 528.255 274.766 528.691 273.999C529.618 272.246 530.48 270.475 531.549 268.808C532.079 267.975 532.544 267.103 533.121 266.298L534.815 263.874C536.917 261.052 539.226 258.371 541.791 255.975C542.094 255.691 542.406 255.407 542.719 255.132C545.675 252.545 548.884 250.196 552.491 248.653Z" fill="#9E9E9E"/>
<path d="M523.429 283.356H524.158L523.931 282.883C523.902 282.826 523.874 282.769 523.836 282.722C523.76 282.57 523.666 282.438 523.571 282.296C523.562 282.277 523.543 282.258 523.533 282.229C523.514 282.201 523.486 282.173 523.467 282.135C523.458 282.114 523.445 282.095 523.429 282.078C523.382 282.012 523.344 281.945 523.297 281.87L523.211 281.728C522.814 281.093 522.36 280.524 521.924 279.937C521.498 279.369 521.063 278.819 520.617 278.27C520.084 277.6 519.538 276.94 518.979 276.291C516.963 273.904 514.871 271.603 512.76 269.311C508.529 264.746 504.193 260.275 499.801 255.87C504.093 260.376 508.297 264.964 512.41 269.633C514.464 271.962 516.49 274.321 518.43 276.746C519.412 277.945 520.355 279.173 521.26 280.431C521.696 281.056 522.159 281.681 522.539 282.335C522.728 282.666 522.955 282.988 523.116 283.31L523.135 283.357H523.429V283.356Z" fill="#9E9E9E"/>
<path d="M531.114 282.069C531.114 283.4 529.4 286.157 524.31 286.157C519.22 286.157 517.506 283.4 517.506 282.069C517.506 280.739 519.521 281.996 524.612 281.996C529.702 281.996 531.114 280.739 531.114 282.069Z" fill="#9E9E9E"/>
<path d="M524.309 286.632C518.811 286.632 517.033 283.559 517.033 282.07C517.033 281.576 517.249 280.986 518.274 280.986C518.659 280.986 519.159 281.056 519.79 281.144C520.931 281.304 522.492 281.522 524.611 281.522C526.799 281.522 528.3 281.286 529.293 281.129C529.821 281.045 530.204 280.985 530.511 280.985C531.214 280.985 531.586 281.36 531.586 282.07C531.586 283.558 529.807 286.632 524.309 286.632ZM517.984 281.966C517.986 281.973 517.979 282.007 517.979 282.07C517.979 283.202 519.573 285.684 524.309 285.684C529.045 285.684 530.64 283.202 530.64 282.07C530.641 282.024 530.638 281.978 530.63 281.933C530.615 281.936 530.573 281.931 530.512 281.931C530.278 281.931 529.909 281.99 529.442 282.063C528.419 282.224 526.874 282.468 524.612 282.468C522.427 282.468 520.827 282.244 519.659 282.08C518.706 281.947 518.044 281.941 517.984 281.966Z" fill="#9E9E9E"/>
<path d="M551.288 288.063C551.288 291.201 539.209 293.746 524.31 293.746C509.411 293.746 497.332 291.201 497.332 288.063V280.486C497.332 283.624 509.411 286.169 524.31 286.169C539.209 286.169 551.288 283.624 551.288 280.486V288.063Z" fill="#09090B"/>
<path d="M524.309 294.22C511.001 294.22 496.858 292.062 496.858 288.063V280.486C496.858 280.36 496.907 280.24 496.996 280.151C497.085 280.062 497.205 280.012 497.331 280.012C497.456 280.012 497.576 280.062 497.665 280.151C497.754 280.24 497.804 280.36 497.804 280.486C497.804 282.95 508.689 285.695 524.309 285.695C539.929 285.695 550.815 282.95 550.815 280.486C550.815 280.36 550.865 280.24 550.954 280.151C551.042 280.062 551.163 280.012 551.288 280.012C551.414 280.012 551.534 280.062 551.623 280.151C551.711 280.24 551.761 280.36 551.761 280.486V288.063C551.761 292.062 537.617 294.22 524.309 294.22ZM497.804 282.196V288.063C497.804 290.527 508.689 293.273 524.309 293.273C539.929 293.273 550.815 290.527 550.815 288.063V282.196C547.437 285.096 535.574 286.642 524.309 286.642C513.046 286.642 501.182 285.096 497.804 282.196Z" fill="#9E9E9E"/>
</g>
<g clip-path="url(#clip2_3646_53411)">
<path d="M429.229 322.532L402.411 222.98L375.593 322.532L370.391 321.141L402.411 202.276L434.432 321.141L429.229 322.532Z" fill="#09090B"/>
<path d="M429.229 322.867C429.155 322.867 429.083 322.843 429.024 322.798C428.965 322.753 428.923 322.69 428.904 322.618L402.411 224.274L375.918 322.619C375.895 322.705 375.838 322.778 375.761 322.822C375.684 322.867 375.592 322.879 375.506 322.856L370.303 321.466C370.217 321.443 370.143 321.387 370.099 321.31C370.054 321.233 370.042 321.141 370.065 321.056L402.086 202.19C402.165 201.896 402.658 201.896 402.736 202.19L434.757 321.055C434.768 321.097 434.771 321.142 434.766 321.186C434.76 321.229 434.746 321.271 434.724 321.31C434.701 321.348 434.672 321.381 434.637 321.408C434.601 321.435 434.561 321.454 434.519 321.465L429.316 322.855C429.288 322.863 429.259 322.867 429.229 322.867ZM370.803 320.905L375.355 322.121L402.087 222.893C402.165 222.599 402.658 222.599 402.737 222.893L429.468 322.121L434.02 320.905L402.411 203.571L370.803 320.905Z" fill="#9E9E9E"/>
<path d="M213.261 322.532L186.443 222.98L159.625 322.532L154.422 321.141L186.443 202.276L218.464 321.141L213.261 322.532Z" fill="#09090B"/>
<path d="M213.261 322.867C213.187 322.867 213.114 322.843 213.055 322.798C212.996 322.753 212.954 322.69 212.936 322.618L186.443 224.274L159.949 322.619C159.926 322.705 159.87 322.778 159.793 322.822C159.715 322.867 159.624 322.879 159.537 322.856L154.334 321.466C154.248 321.443 154.175 321.387 154.13 321.31C154.085 321.233 154.073 321.141 154.096 321.056L186.118 202.19C186.197 201.896 186.69 201.896 186.768 202.19L218.789 321.055C218.801 321.097 218.804 321.142 218.798 321.186C218.792 321.229 218.778 321.271 218.756 321.31C218.733 321.348 218.704 321.381 218.669 321.408C218.634 321.435 218.593 321.454 218.551 321.465L213.348 322.855C213.319 322.863 213.29 322.867 213.261 322.867ZM154.834 320.905L159.387 322.121L186.118 222.893C186.197 222.599 186.69 222.599 186.768 222.893L213.499 322.121L218.052 320.905L186.443 203.571L154.834 320.905Z" fill="#9E9E9E"/>
<path d="M394.893 208.164H409.93V221.475H394.893V208.164Z" fill="#09090B"/>
<path d="M409.929 221.81H394.893C394.803 221.81 394.718 221.775 394.655 221.712C394.592 221.649 394.556 221.564 394.556 221.475V208.164C394.556 208.075 394.592 207.99 394.655 207.927C394.718 207.864 394.803 207.829 394.893 207.829H409.929C410.018 207.829 410.104 207.864 410.167 207.927C410.23 207.99 410.266 208.075 410.266 208.164V221.475C410.266 221.564 410.23 221.649 410.167 221.712C410.104 221.775 410.018 221.81 409.929 221.81ZM395.23 221.14H409.593V208.5H395.23V221.14Z" fill="#9E9E9E"/>
<path d="M178.925 208.164H193.961V221.475H178.925V208.164Z" fill="#09090B"/>
<path d="M193.961 221.81H178.925C178.835 221.81 178.75 221.775 178.687 221.712C178.623 221.649 178.588 221.564 178.588 221.475V208.164C178.588 208.075 178.623 207.99 178.687 207.927C178.75 207.864 178.835 207.829 178.925 207.829H193.961C194.05 207.829 194.136 207.864 194.199 207.927C194.262 207.99 194.298 208.075 194.298 208.164V221.475C194.298 221.564 194.262 221.649 194.199 221.712C194.136 221.775 194.05 221.81 193.961 221.81ZM179.261 221.14H193.624V208.5H179.261V221.14ZM394.893 207.494H409.93V214.098H394.893V207.494Z" fill="#9E9E9E"/>
<path d="M409.929 214.434H394.893C394.803 214.434 394.718 214.398 394.655 214.335C394.591 214.273 394.556 214.187 394.556 214.098V207.494C394.556 207.405 394.591 207.319 394.655 207.257C394.718 207.194 394.803 207.158 394.893 207.158H409.929C410.018 207.158 410.104 207.194 410.167 207.257C410.23 207.319 410.266 207.405 410.266 207.494V214.098C410.266 214.187 410.23 214.273 410.167 214.335C410.104 214.398 410.018 214.434 409.929 214.434ZM395.23 213.763H409.593V207.829H395.23V213.763ZM178.925 207.494H193.961V214.098H178.925V207.494Z" fill="#9E9E9E"/>
<path d="M193.961 214.434H178.925C178.835 214.434 178.75 214.398 178.687 214.335C178.623 214.273 178.588 214.187 178.588 214.098V207.494C178.588 207.405 178.623 207.319 178.687 207.257C178.75 207.194 178.835 207.158 178.925 207.158H193.961C194.05 207.158 194.136 207.194 194.199 207.257C194.262 207.319 194.298 207.405 194.298 207.494V214.098C194.298 214.187 194.262 214.273 194.199 214.335C194.136 214.398 194.05 214.434 193.961 214.434ZM179.261 213.763H193.624V207.829H179.261V213.763Z" fill="#9E9E9E"/>
<path d="M154.528 199.845H435.2V211.492H154.528V199.845Z" fill="#09090B"/>
<path d="M435.2 211.827H154.528C154.439 211.827 154.354 211.792 154.29 211.729C154.227 211.666 154.192 211.581 154.192 211.492V199.845C154.192 199.756 154.227 199.671 154.29 199.608C154.354 199.545 154.439 199.51 154.528 199.51H435.2C435.289 199.51 435.375 199.545 435.438 199.608C435.501 199.671 435.537 199.756 435.537 199.845V211.492C435.537 211.581 435.501 211.666 435.438 211.729C435.375 211.792 435.289 211.827 435.2 211.827ZM154.865 211.156H434.863V200.18H154.865V211.156Z" fill="#9E9E9E"/>
</g>
<g clip-path="url(#clip3_3646_53411)">
<path d="M313.004 197.529L311.818 196.924C309.615 195.8 307.765 194.087 306.472 191.975C305.18 189.863 304.496 187.434 304.496 184.957V143.361H269.983V184.957C269.983 187.434 269.299 189.863 268.007 191.975C266.715 194.087 264.865 195.8 262.661 196.924L261.475 197.529C260.638 197.956 260.941 199.222 261.88 199.222H312.599C313.538 199.222 313.841 197.956 313.004 197.529Z" fill="#09090B"/>
<path d="M312.599 199.509H261.88C261.323 199.509 260.863 199.145 260.733 198.603C260.668 198.344 260.693 198.071 260.804 197.829C260.916 197.587 261.107 197.391 261.345 197.273L262.531 196.667C266.95 194.413 269.696 189.926 269.696 184.957V143.36C269.696 143.284 269.726 143.211 269.78 143.157C269.834 143.103 269.907 143.073 269.983 143.073H304.496C304.573 143.073 304.646 143.103 304.699 143.157C304.753 143.211 304.784 143.284 304.784 143.36V184.957C304.784 189.926 307.529 194.413 311.948 196.667L313.134 197.273C313.373 197.391 313.564 197.587 313.675 197.829C313.787 198.071 313.812 198.344 313.747 198.603C313.688 198.863 313.542 199.094 313.333 199.259C313.124 199.425 312.865 199.513 312.599 199.509ZM270.27 143.648V184.957C270.27 190.144 267.405 194.827 262.792 197.18L261.606 197.785C261.292 197.946 261.237 198.244 261.291 198.469C261.345 198.694 261.528 198.935 261.88 198.935H312.599C312.951 198.935 313.135 198.694 313.189 198.469C313.243 198.244 313.188 197.946 312.874 197.785L311.688 197.18C307.075 194.827 304.21 190.144 304.21 184.957V143.648H270.27Z" fill="#9E9E9E"/>
<path d="M370.216 70.6505H204.264C203.079 70.6505 201.943 71.1221 201.105 71.9615C200.267 72.801 199.796 73.9395 199.796 75.1266V168.23C199.796 169.417 200.267 170.556 201.105 171.395C201.943 172.235 203.079 172.706 204.264 172.706H370.216C371.401 172.706 372.537 172.235 373.375 171.395C374.213 170.556 374.684 169.417 374.684 168.23V75.1266C374.684 73.9395 374.213 72.801 373.375 71.9615C372.537 71.1221 371.401 70.6505 370.216 70.6505Z" fill="#9E9E9E"/>
<path d="M370.216 172.994H204.264C201.642 172.994 199.509 170.857 199.509 168.23V75.1266C199.509 72.4996 201.642 70.3628 204.264 70.3628H370.216C372.837 70.3628 374.971 72.4996 374.971 75.126V168.23C374.971 170.857 372.837 172.994 370.216 172.994ZM204.264 70.9381C201.958 70.9381 200.083 72.8172 200.083 75.1266V168.23C200.083 170.54 201.959 172.419 204.264 172.419H370.216C372.522 172.419 374.396 170.54 374.396 168.23V75.1266C374.396 72.8172 372.521 70.9387 370.216 70.9387H204.264V70.9381Z" fill="#9E9E9E"/>
<path d="M374.684 156.98H199.796V168.23C199.796 169.417 200.267 170.556 201.105 171.395C201.943 172.235 203.079 172.706 204.264 172.706H370.216C371.401 172.706 372.537 172.235 373.375 171.395C374.213 170.556 374.684 169.417 374.684 168.23V156.98Z" fill="#09090B"/>
<path d="M370.216 172.994H204.264C201.642 172.994 199.509 170.857 199.509 168.23V156.98C199.509 156.904 199.54 156.831 199.593 156.777C199.647 156.723 199.72 156.692 199.796 156.692H374.684C374.76 156.692 374.833 156.723 374.887 156.777C374.94 156.831 374.971 156.904 374.971 156.98V168.23C374.971 170.857 372.837 172.994 370.216 172.994ZM200.083 157.268V168.23C200.083 170.54 201.959 172.419 204.264 172.419H370.216C372.522 172.419 374.396 170.54 374.396 168.23V157.268H200.083Z" fill="#9E9E9E"/>
<path d="M206.095 76.7087H368.386V150.998H206.095V76.7087Z" fill="#09090B"/>
<path d="M368.385 151.285H206.095C206.019 151.285 205.946 151.255 205.892 151.201C205.838 151.147 205.808 151.074 205.808 150.998V76.7087C205.808 76.6324 205.838 76.5592 205.892 76.5053C205.946 76.4513 206.019 76.421 206.095 76.421H368.385C368.461 76.421 368.534 76.4513 368.588 76.5053C368.642 76.5592 368.672 76.6324 368.672 76.7087V150.998C368.672 151.074 368.642 151.147 368.588 151.201C368.534 151.255 368.461 151.285 368.385 151.285ZM206.382 150.71H368.098V76.9964H206.382V150.71ZM288.98 168.603H285.5C285.026 168.602 284.573 168.413 284.238 168.077C283.903 167.742 283.714 167.287 283.713 166.813V163.325C283.714 162.851 283.903 162.396 284.238 162.061C284.573 161.725 285.026 161.536 285.5 161.535H288.98C289.454 161.536 289.907 161.725 290.242 162.061C290.577 162.396 290.766 162.851 290.767 163.325V166.813C290.766 167.287 290.577 167.742 290.242 168.077C289.907 168.413 289.454 168.602 288.98 168.603Z" fill="#9E9E9E"/>
<path d="M288.98 168.891H285.499C284.949 168.89 284.422 168.671 284.034 168.281C283.645 167.892 283.426 167.363 283.426 166.813V163.325C283.426 162.775 283.645 162.246 284.034 161.857C284.422 161.467 284.949 161.248 285.499 161.247H288.98C289.53 161.248 290.057 161.467 290.446 161.857C290.834 162.246 291.053 162.775 291.053 163.325V166.813C291.053 167.363 290.834 167.892 290.446 168.281C290.057 168.671 289.53 168.89 288.98 168.891ZM285.5 161.823C285.102 161.823 284.721 161.982 284.44 162.264C284.159 162.545 284.001 162.927 284.001 163.325V166.813C284.001 167.211 284.159 167.593 284.44 167.874C284.721 168.156 285.102 168.315 285.5 168.315H288.981C289.378 168.315 289.759 168.156 290.04 167.874C290.321 167.593 290.479 167.211 290.48 166.813V163.325C290.479 162.927 290.321 162.545 290.04 162.264C289.759 161.982 289.378 161.823 288.981 161.823H285.5Z" fill="#9E9E9E"/>
</g>
<g clip-path="url(#clip4_3646_53411)">
<path d="M270.163 96.3463L273.148 109.325C274.278 109.063 275.418 108.843 276.564 108.664L274.528 95.4942C273.064 95.7252 271.608 96.0094 270.163 96.3463ZM300.105 99.8976C301.18 100.23 301.792 101.049 301.967 102.068C303.412 102.587 304.835 103.166 306.231 103.806C306.558 100.95 304.482 97.9054 301.108 96.9805C296.396 95.5542 293.31 97.7801 292.341 102.068C291.406 106.208 293.642 109.193 297.159 110.269C300.311 111.234 303.56 110.179 305.11 106.715L305.742 105.229C303.413 104.158 301.051 103.275 298.67 102.572L297.964 105.174C299.022 105.486 300.068 105.833 301.103 106.215C301.1 106.229 300.23 108.064 297.989 107.349C296.177 106.799 295.865 105.013 296.321 102.964C296.772 100.931 298.059 99.276 300.105 99.8976V99.8976ZM271.14 109.836C269.949 105.558 268.755 101.28 267.559 97.0036C265.445 97.5921 263.201 98.3742 261.164 99.185L262.029 108.028L255.858 101.547C253.91 102.558 251.911 103.779 250.077 104.998C252.52 108.705 254.965 112.41 257.412 116.114C258.382 115.469 259.376 114.859 260.39 114.286L255.453 105.755L262.519 113.118C263.512 112.622 264.522 112.16 265.547 111.734L264.649 101.706L267.82 110.89C268.914 110.499 270.021 110.147 271.14 109.836L271.14 109.836ZM242.296 110.701C238.686 114.058 238.895 118.253 242.162 120.89C245.455 123.563 248.965 123.399 251.667 120.903C254.29 118.488 254.791 114.994 252.39 111.464C250.085 108.063 245.827 107.473 242.296 110.701L242.296 110.701ZM249.611 118.662L249.609 118.662C248.22 119.953 246.529 119.304 245.021 117.841C243.521 116.391 242.785 114.399 244.354 112.942C245.815 111.604 247.735 112.31 249.141 114.032C250.554 115.762 250.877 117.502 249.611 118.662ZM240.658 129.643C239.758 131.141 237.621 130.868 235.983 129.994C234.352 129.13 233.034 127.233 234.059 125.534C235.218 123.651 237.205 124.482 237.196 124.479C238.04 123.219 238.936 121.994 239.879 120.807C239.954 120.868 235.44 117.785 231.547 123.844C228.224 129.511 231.475 132.834 234.069 133.908C236.766 135.068 240.835 135.291 243.326 131.075C246.184 126.592 242.562 122.97 242.516 122.914C241.629 124.03 240.787 125.181 239.994 126.366C239.996 126.376 241.606 128.094 240.658 129.643L240.658 129.643ZM286.542 102.856L282.589 94.7719C280.83 94.8141 278.942 94.942 277.204 95.135L278.657 108.386C279.767 108.263 280.897 108.131 282.145 108.123L281.536 99.7635L285.463 108.121C286.876 108.168 288.287 108.278 289.69 108.451L291.147 95.1981C289.692 95.0187 288.398 94.9127 286.944 94.8397L286.542 102.856L286.542 102.856ZM308.24 114.953C304.03 114.789 301.307 117.456 301.14 121.748C300.973 126.04 303.483 128.864 307.693 129.029C311.775 129.188 314.623 126.609 314.791 122.289C314.954 118.094 312.322 115.112 308.24 114.953V114.953ZM307.814 125.938L307.813 125.937C305.796 125.859 305.116 124.11 305.199 121.982C305.281 119.854 306.183 117.968 308.12 118.044C309.912 118.114 310.791 119.924 310.703 122.189C310.615 124.453 309.643 126.01 307.814 125.938L307.814 125.938ZM320.337 111.989C316.284 113.618 314.823 117.267 316.459 121.356C318.096 125.445 321.651 127.027 325.704 125.398C329.633 123.819 331.25 120.2 329.603 116.084C328.003 112.088 324.267 110.41 320.337 111.989L320.337 111.989ZM324.527 122.454L324.525 122.454C322.583 123.234 321.209 121.884 320.397 119.857C319.586 117.83 319.651 115.683 321.516 114.934C323.241 114.241 324.829 115.563 325.693 117.721C326.556 119.878 326.287 121.746 324.527 122.454V122.454ZM338.334 110.2L330.147 106.198L326.519 109.081L334.996 119.795L337.96 117.44L332.729 110.829L340.996 115.029L344.692 112.093L336.215 101.378L333.23 103.75L338.334 110.2V110.2ZM294.49 118.459C292.538 117.749 291.819 117.043 292.014 116.395C292.219 115.712 293.176 115.427 294.582 115.85C296.384 116.394 296.638 117.38 296.464 117.958L300.607 119.206C301.485 116.279 299.505 113.9 295.85 112.798C291.861 111.596 288.867 112.566 288.042 115.315C287.289 117.822 288.927 119.726 292.267 121.025C293.995 121.698 295.265 122.307 295.018 123.133C294.806 123.838 293.744 124.023 292.34 123.6C290.892 123.163 290.411 122.369 290.68 121.474L286.565 120.234C285.833 122.674 287.138 125.381 291.322 126.642C295.311 127.844 298.239 127.092 299.105 124.208C299.881 121.623 297.605 119.59 294.49 118.458H294.49L294.49 118.459Z" fill="#9E9E9E"/>
</g>
<g clip-path="url(#clip5_3646_53411)">
<path d="M18.3879 309.239L27.1085 318.693L93.2518 309.239L80.8829 301.137L18.3879 309.239Z" fill="#9E9E9E"/>
<path d="M27.1085 319.215C27.0275 319.215 26.9474 319.198 26.8739 319.167C26.8003 319.135 26.735 319.089 26.6825 319.032L17.962 309.579C17.8961 309.508 17.8521 309.422 17.8346 309.329C17.8171 309.237 17.8266 309.142 17.8623 309.055C17.898 308.967 17.9584 308.89 18.0373 308.831C18.1161 308.773 18.2105 308.735 18.3104 308.723L80.8054 300.62C80.9466 300.601 81.0902 300.633 81.2066 300.71L93.5755 308.812C93.6671 308.872 93.7373 308.956 93.7772 309.054C93.817 309.151 93.8246 309.257 93.799 309.359C93.7733 309.46 93.7157 309.552 93.6334 309.623C93.5511 309.693 93.448 309.74 93.3372 309.755L27.1939 319.208C27.1657 319.213 27.1371 319.215 27.1085 319.215ZM19.4838 309.625L27.3322 318.133L91.7895 308.921L80.7413 301.683L19.4838 309.625Z" fill="#9E9E9E"/>
<path d="M257.314 41.2981C257.314 41.2981 251.8 50.4065 251.8 63.5V77.1627L299.591 68.6234C299.591 68.6234 292.238 54.3916 289.788 36.1737L270.182 37.312C270.182 37.312 261.603 37.8832 257.314 41.2981Z" fill="#09090B"/>
<path d="M251.8 77.6849C251.651 77.6849 251.508 77.6299 251.403 77.532C251.297 77.434 251.238 77.3012 251.238 77.1627V63.5001C251.238 50.4212 256.769 41.1342 256.825 41.0423C256.857 40.9889 256.899 40.9412 256.949 40.9014C261.181 37.5314 269.228 36.8578 270.131 36.792L289.753 35.6527C289.895 35.6452 290.036 35.6881 290.145 35.7728C290.255 35.8574 290.327 35.9776 290.345 36.109C292.756 54.0356 300.023 68.2559 300.096 68.3979C300.133 68.47 300.152 68.549 300.15 68.6287C300.149 68.7085 300.129 68.7869 300.09 68.8581C300.051 68.9293 299.996 68.9914 299.927 69.0396C299.859 69.0878 299.779 69.1208 299.695 69.1362L251.905 77.6755C251.87 77.6818 251.835 77.6849 251.8 77.6849ZM257.758 41.6334C257.227 42.5545 252.362 51.3444 252.362 63.5001V76.5309L298.781 68.2371C297.379 65.336 291.502 52.49 289.298 36.7262L270.222 37.8342H270.219C269.875 37.8583 261.814 38.4775 257.758 41.6334Z" fill="#9E9E9E"/>
<path d="M225.66 201.516C225.66 201.516 230.378 211.003 241.802 218.67L253.722 226.67L274.255 185.674C274.255 185.674 257.533 182.879 240.204 174.057L229.717 189.492C229.717 189.492 225.191 196.285 225.66 201.516Z" fill="#09090B"/>
<path d="M253.722 227.193C253.604 227.193 253.489 227.159 253.394 227.094L241.473 219.094C230.063 211.435 225.199 201.832 225.15 201.736C225.123 201.68 225.106 201.621 225.101 201.56C224.617 196.158 229.256 189.188 229.305 189.139L239.73 173.78C239.806 173.667 239.926 173.586 240.064 173.553C240.203 173.519 240.35 173.536 240.475 173.6C257.526 182.28 274.19 185.133 274.356 185.16C274.441 185.175 274.521 185.206 274.59 185.254C274.659 185.301 274.716 185.363 274.755 185.434C274.795 185.505 274.816 185.583 274.818 185.663C274.82 185.743 274.802 185.822 274.765 185.895L254.232 226.891C254.187 226.981 254.115 227.057 254.024 227.111C253.934 227.164 253.829 227.193 253.722 227.193ZM226.211 201.378C226.705 202.318 231.525 211.128 242.131 218.247L253.499 225.877L273.443 186.056C270.092 185.414 255.441 182.319 240.398 174.75L230.191 189.771C230.15 189.835 225.824 196.363 226.211 201.378Z" fill="#9E9E9E"/>
<path d="M391.37 92.3667C391.37 92.3667 402.398 110.014 403.011 119.123C403.011 119.123 408.525 118.554 414.653 112.86C420.78 107.168 423.843 104.321 423.843 98.6284V76.9956C423.843 76.9956 416.491 83.2583 410.977 86.104C405.461 88.9508 391.37 92.3667 391.37 92.3667Z" fill="#09090B"/>
<path d="M403.011 119.645C402.868 119.644 402.731 119.594 402.627 119.503C402.523 119.412 402.46 119.288 402.45 119.155C401.853 110.272 390.993 92.8042 390.883 92.6288C390.84 92.5592 390.814 92.4812 390.809 92.4009C390.803 92.3206 390.817 92.2403 390.851 92.166C390.884 92.0918 390.935 92.0256 391 91.9728C391.066 91.9199 391.143 91.8818 391.227 91.8612C391.367 91.8268 405.313 88.4296 410.703 85.6476C416.095 82.8645 423.39 76.6729 423.463 76.6113C423.544 76.5427 423.644 76.4974 423.752 76.4809C423.859 76.4643 423.97 76.4773 424.07 76.5182C424.17 76.559 424.255 76.626 424.314 76.711C424.374 76.796 424.405 76.8952 424.405 76.9966V98.6294C424.405 104.538 421.28 107.442 415.051 113.23C408.855 118.987 403.306 119.619 403.073 119.643L403.011 119.645ZM392.22 92.6967C394.128 95.8233 402.608 110.115 403.519 118.504C405.056 118.183 409.48 116.928 414.255 112.49C420.265 106.907 423.28 104.104 423.28 98.6283V78.1652C421.112 79.9468 415.652 84.2879 411.249 86.5603C406.383 89.0729 395.181 91.9584 392.22 92.6967ZM349.358 307.103L382.443 299.702L405.113 310.519L378.154 317.351C378.154 317.351 370.802 317.351 367.739 316.212C364.675 315.073 349.358 307.103 349.358 307.103Z" fill="#9E9E9E"/>
<path d="M378.154 317.873C377.85 317.873 370.658 317.859 367.53 316.697C364.467 315.558 349.71 307.884 349.083 307.558C348.984 307.507 348.904 307.429 348.854 307.335C348.803 307.241 348.784 307.135 348.8 307.031C348.815 306.927 348.864 306.829 348.94 306.751C349.016 306.673 349.116 306.619 349.226 306.594L382.311 299.193C382.442 299.164 382.58 299.179 382.7 299.236L405.369 310.053C405.47 310.101 405.553 310.176 405.607 310.269C405.66 310.361 405.683 310.467 405.671 310.572C405.659 310.676 405.614 310.775 405.541 310.855C405.467 310.936 405.37 310.993 405.26 311.021L378.302 317.853C378.254 317.866 378.204 317.873 378.154 317.873ZM350.888 307.298C354.608 309.222 365.464 314.805 367.948 315.728C370.715 316.756 377.306 316.824 378.081 316.828L403.57 310.369L382.374 300.255L350.888 307.298ZM201.664 309.864L170.399 322.353L146.089 315.25L171.418 304.285C171.418 304.285 178.665 303.131 181.891 303.773C185.117 304.414 201.664 309.864 201.664 309.864Z" fill="#9E9E9E"/>
<path d="M170.399 322.875C170.342 322.875 170.285 322.867 170.231 322.851L145.92 315.749C145.812 315.717 145.717 315.656 145.647 315.573C145.577 315.49 145.536 315.39 145.528 315.285C145.521 315.18 145.548 315.075 145.606 314.985C145.663 314.894 145.749 314.822 145.852 314.777L171.181 303.812C171.226 303.793 171.273 303.779 171.322 303.77C171.505 303.741 175.847 303.056 179.331 303.056C180.42 303.056 181.322 303.125 182.007 303.262C185.233 303.903 201.174 309.149 201.85 309.372C201.957 309.407 202.05 309.471 202.117 309.556C202.184 309.641 202.221 309.742 202.225 309.847C202.229 309.952 202.198 310.056 202.138 310.145C202.077 310.233 201.989 310.303 201.885 310.344L170.621 322.833C170.551 322.86 170.475 322.875 170.399 322.875ZM147.638 315.155L170.369 321.796L200.121 309.912C196.104 308.6 184.389 304.803 181.774 304.283C181.164 304.162 180.344 304.1 179.332 304.1C176.187 304.1 172.175 304.698 171.586 304.789L147.638 315.155ZM368.303 260.434C371.539 261.629 374.849 262.282 377.705 262.282H377.706C382.043 262.282 387.38 260.798 388.181 253.726C388.515 250.776 387.888 247.588 386.316 244.236L368.303 260.434ZM379.039 232.637C380.088 233.614 383.394 236.866 386.005 241.286L388.957 217.633C385.669 222.645 382.364 227.646 379.039 232.637ZM391.37 207.361L390.764 212.217C391.417 210.376 391.494 208.689 391.37 207.361Z" fill="#9E9E9E"/>
<path d="M377.706 262.804C374.802 262.804 371.388 262.135 368.095 260.919C368.008 260.887 367.931 260.835 367.871 260.768C367.811 260.701 367.77 260.621 367.752 260.536C367.733 260.45 367.738 260.362 367.767 260.278C367.795 260.195 367.845 260.12 367.912 260.059L385.925 243.861C385.99 243.802 386.07 243.759 386.157 243.735C386.244 243.711 386.336 243.707 386.425 243.723C386.515 243.74 386.598 243.776 386.669 243.829C386.739 243.882 386.795 243.95 386.831 244.028C388.441 247.463 389.082 250.744 388.74 253.782C387.896 261.239 382.274 262.804 377.706 262.804ZM369.329 260.239C372.232 261.223 375.178 261.76 377.706 261.76H377.707C383.679 261.76 387.016 259.039 387.624 253.672C387.924 251.02 387.417 248.155 386.116 245.143L369.329 260.239ZM386.005 241.808C385.904 241.808 385.805 241.783 385.719 241.735C385.632 241.687 385.561 241.618 385.513 241.536C382.921 237.149 379.599 233.897 378.642 233.004C378.553 232.921 378.497 232.812 378.482 232.695C378.468 232.579 378.496 232.461 378.562 232.361C379.187 231.422 384.778 223.024 388.478 217.36C388.545 217.259 388.647 217.182 388.767 217.142C388.887 217.102 389.019 217.101 389.14 217.14C389.261 217.179 389.364 217.254 389.432 217.355C389.5 217.455 389.53 217.574 389.515 217.693L386.564 241.345C386.548 241.472 386.482 241.59 386.379 241.675C386.276 241.761 386.143 241.808 386.005 241.808ZM379.749 232.563C381.979 234.729 383.955 237.108 385.643 239.662L388.103 219.94C384.834 224.917 380.843 230.919 379.749 232.563ZM390.764 212.739C390.684 212.739 390.606 212.724 390.534 212.694C390.461 212.664 390.397 212.62 390.344 212.565C390.291 212.51 390.251 212.445 390.227 212.374C390.204 212.304 390.196 212.23 390.205 212.157L390.811 207.301C390.845 207.034 391.109 206.851 391.377 206.839C391.517 206.841 391.65 206.891 391.752 206.979C391.854 207.067 391.917 207.187 391.929 207.316C392.093 209.027 391.878 210.751 391.298 212.381C391.261 212.486 391.189 212.576 391.093 212.641C390.997 212.705 390.882 212.739 390.764 212.739Z" fill="#9E9E9E"/>
<path d="M391.804 204.252C391.804 204.252 400.995 215.069 402.22 223.609C403.445 232.148 402.832 231.01 400.382 236.133C397.932 241.256 386.939 258.865 386.939 258.865C386.939 258.865 395.481 250.366 378.325 232.718L391.804 204.252Z" fill="#09090B"/>
<path d="M386.939 259.388C386.84 259.388 386.743 259.364 386.657 259.318C386.572 259.272 386.501 259.206 386.452 259.126C386.402 259.047 386.376 258.956 386.376 258.865C386.377 258.773 386.403 258.683 386.452 258.603L387.706 256.585C389.199 253.079 389.885 245.389 377.907 233.068C377.834 232.993 377.787 232.9 377.77 232.801C377.752 232.701 377.767 232.599 377.81 232.507L391.29 204.042C391.329 203.959 391.39 203.887 391.468 203.833C391.545 203.779 391.637 203.745 391.733 203.734C391.829 203.722 391.927 203.734 392.016 203.768C392.106 203.802 392.185 203.857 392.245 203.928C392.624 204.374 401.544 214.956 402.776 223.539C403.809 230.743 403.534 231.267 402.002 234.166C401.617 234.884 401.248 235.611 400.896 236.344C398.958 240.394 391.752 252.141 388.72 257.04C388.1 258.464 387.381 259.19 387.349 259.22C387.297 259.273 387.234 259.315 387.163 259.344C387.092 259.373 387.016 259.388 386.939 259.388ZM378.986 232.62C388.198 242.185 389.961 249.127 389.585 253.538C393.042 247.908 398.276 239.251 399.869 235.922C400.3 235.02 400.676 234.311 400.994 233.708C402.431 230.989 402.652 230.57 401.664 223.68C400.649 216.606 393.949 207.793 391.935 205.277L378.986 232.62Z" fill="#9E9E9E"/>
<path d="M320.572 108.573L297.902 159.809C297.902 159.809 321.797 183.15 335.276 164.363C335.276 164.363 326.086 164.363 332.825 147.285C339.564 130.206 338.952 131.913 338.952 131.913L320.572 108.573Z" fill="#09090B"/>
<path d="M321.911 172.199C309.949 172.199 297.998 160.66 297.496 160.169C297.421 160.096 297.37 160.005 297.35 159.905C297.33 159.806 297.342 159.704 297.383 159.611L320.053 108.375C320.091 108.289 320.153 108.215 320.232 108.159C320.312 108.103 320.405 108.067 320.504 108.056C320.603 108.045 320.704 108.058 320.795 108.095C320.887 108.132 320.966 108.191 321.025 108.265L339.261 131.422C339.324 131.458 339.379 131.505 339.423 131.561C339.528 131.696 339.543 131.919 339.486 132.079C339.471 132.118 339.452 132.157 339.428 132.192C339.208 132.707 338.151 135.305 333.353 147.464C329.868 156.296 330.762 160.311 332.125 162.125C333.401 163.822 335.258 163.841 335.278 163.841C335.379 163.841 335.479 163.867 335.566 163.915C335.653 163.964 335.725 164.033 335.773 164.117C335.821 164.2 335.843 164.294 335.839 164.388C335.834 164.482 335.801 164.574 335.745 164.652C332.152 169.66 327.498 172.199 321.911 172.199ZM298.563 159.689C300.36 161.358 311.358 171.154 321.911 171.154C326.844 171.154 331.01 169.001 334.305 164.751C333.042 164.446 331.939 163.726 331.203 162.724C328.998 159.79 329.367 154.535 332.298 147.106C336.594 136.22 337.927 132.904 338.31 131.982L320.711 109.634L298.563 159.689Z" fill="#9E9E9E"/>
<path d="M485.297 155.966C485.297 155.966 480.396 181.584 471.206 206.063C471.206 206.063 468.142 210.048 466.917 210.618C466.917 210.618 466.917 193.539 457.726 179.876L472.431 171.337C472.431 171.336 480.396 168.49 485.297 155.966Z" fill="#09090B"/>
<path d="M466.917 211.14C466.843 211.14 466.77 211.127 466.701 211.101C466.633 211.075 466.571 211.036 466.518 210.988C466.466 210.939 466.425 210.881 466.397 210.818C466.369 210.754 466.354 210.686 466.355 210.618C466.355 210.448 466.245 193.525 457.25 180.153C457.211 180.095 457.184 180.03 457.172 179.963C457.16 179.895 457.162 179.826 457.179 179.759C457.195 179.692 457.226 179.629 457.269 179.573C457.312 179.517 457.366 179.47 457.429 179.434L472.133 170.894C472.162 170.877 472.193 170.862 472.225 170.85C472.542 170.732 480.055 167.831 484.77 155.786C484.819 155.664 484.915 155.563 485.039 155.503C485.164 155.443 485.308 155.428 485.444 155.462C485.579 155.496 485.696 155.575 485.772 155.685C485.847 155.795 485.876 155.927 485.852 156.056C485.803 156.313 480.837 181.995 471.737 206.235C471.719 206.281 471.695 206.325 471.664 206.366C471.343 206.785 468.481 210.474 467.17 211.084C467.091 211.12 467.004 211.139 466.917 211.14ZM458.497 180.043C466.086 191.634 467.263 205.625 467.445 209.549C468.419 208.636 469.822 206.957 470.701 205.82C477.433 187.87 481.891 169.139 483.754 160.609C478.971 169.383 472.933 171.713 472.64 171.821L458.497 180.043ZM456.761 298.841L444.821 312.373L483.852 314.993L492.116 298.841H456.761Z" fill="#9E9E9E"/>
<path d="M483.852 315.515L483.812 315.514L444.781 312.894C444.678 312.888 444.58 312.855 444.496 312.799C444.412 312.744 444.346 312.668 444.305 312.58C444.265 312.492 444.251 312.396 444.265 312.301C444.28 312.206 444.322 312.117 444.388 312.043L456.327 298.511C456.38 298.452 456.446 298.403 456.521 298.37C456.597 298.337 456.679 298.32 456.762 298.32H492.117C492.212 298.321 492.305 298.343 492.388 298.386C492.471 298.429 492.541 298.49 492.591 298.564C492.642 298.639 492.672 298.724 492.678 298.812C492.684 298.899 492.666 298.987 492.626 299.067L484.361 315.218C484.315 315.307 484.242 315.382 484.152 315.434C484.062 315.487 483.958 315.514 483.852 315.515ZM445.944 311.925L483.51 314.446L491.227 299.363H457.027L445.944 311.925Z" fill="#9E9E9E"/>
<path d="M221.827 87.3311L248.456 100.963C248.456 100.963 238.1 106.417 238.84 111.869C239.58 117.322 244.018 118.685 246.238 117.322C248.457 115.96 250.676 113.233 250.676 113.233C250.676 113.233 244.759 122.094 238.1 126.183C231.443 130.273 215.908 129.592 211.471 126.183C211.471 126.183 209.251 104.372 221.827 87.3311Z" fill="#09090B"/>
<path d="M224.668 129.523C218.756 129.523 213.436 128.37 211.113 126.585C211.056 126.542 211.008 126.488 210.974 126.428C210.939 126.367 210.918 126.301 210.911 126.233C210.889 126.012 208.818 104.036 221.363 87.0356C221.442 86.9286 221.561 86.8527 221.697 86.8228C221.833 86.7929 221.976 86.811 222.098 86.8737L248.727 100.506C248.815 100.551 248.888 100.616 248.939 100.696C248.99 100.776 249.018 100.867 249.018 100.96C249.019 101.053 248.993 101.144 248.943 101.225C248.893 101.305 248.821 101.372 248.734 101.418C248.634 101.471 238.713 106.761 239.397 111.804C239.909 115.575 242.335 117.292 244.373 117.292C244.959 117.292 245.497 117.152 245.929 116.887C248.043 115.588 250.207 112.945 250.229 112.919C250.316 112.811 250.444 112.739 250.587 112.717C250.73 112.695 250.877 112.725 250.996 112.801C251.116 112.877 251.199 112.994 251.228 113.125C251.258 113.257 251.232 113.395 251.155 113.509C250.911 113.874 245.096 122.514 238.412 126.619C235.405 128.464 230.397 129.523 224.668 129.523ZM212.012 125.915C214.218 127.454 219.245 128.479 224.668 128.479C230.182 128.479 234.965 127.484 237.79 125.748C241.07 123.733 244.193 120.505 246.486 117.796C243.935 119.292 239.064 117.697 238.282 111.935C237.627 107.1 244.805 102.459 247.332 100.984L222.005 88.0183C210.66 103.746 211.832 123.61 212.012 125.915Z" fill="#9E9E9E"/>
</g>
<path d="M179.744 383L173.586 361.182H177.837L181.768 377.215H181.97L186.168 361.182H190.035L194.243 377.226H194.435L198.366 361.182H202.616L196.459 383H192.56L188.192 367.691H188.021L183.643 383H179.744ZM210.429 383.32C208.831 383.32 207.447 382.968 206.275 382.265C205.103 381.562 204.194 380.578 203.547 379.314C202.908 378.05 202.589 376.572 202.589 374.882C202.589 373.192 202.908 371.711 203.547 370.44C204.194 369.168 205.103 368.181 206.275 367.478C207.447 366.775 208.831 366.423 210.429 366.423C212.027 366.423 213.412 366.775 214.584 367.478C215.756 368.181 216.662 369.168 217.301 370.44C217.947 371.711 218.27 373.192 218.27 374.882C218.27 376.572 217.947 378.05 217.301 379.314C216.662 380.578 215.756 381.562 214.584 382.265C213.412 382.968 212.027 383.32 210.429 383.32ZM210.451 380.23C211.317 380.23 212.042 379.992 212.624 379.516C213.206 379.033 213.64 378.387 213.924 377.577C214.215 376.768 214.361 375.866 214.361 374.871C214.361 373.87 214.215 372.964 213.924 372.155C213.64 371.338 213.206 370.688 212.624 370.205C212.042 369.722 211.317 369.481 210.451 369.481C209.563 369.481 208.824 369.722 208.235 370.205C207.652 370.688 207.216 371.338 206.925 372.155C206.64 372.964 206.498 373.87 206.498 374.871C206.498 375.866 206.64 376.768 206.925 377.577C207.216 378.387 207.652 379.033 208.235 379.516C208.824 379.992 209.563 380.23 210.451 380.23ZM221.319 383V366.636H225.058V369.364H225.228C225.527 368.419 226.038 367.691 226.763 367.18C227.494 366.661 228.329 366.402 229.266 366.402C229.479 366.402 229.717 366.413 229.98 366.434C230.25 366.448 230.473 366.473 230.651 366.509V370.056C230.488 369.999 230.228 369.95 229.873 369.907C229.525 369.857 229.188 369.832 228.861 369.832C228.158 369.832 227.526 369.985 226.965 370.29C226.411 370.589 225.974 371.004 225.655 371.537C225.335 372.07 225.175 372.684 225.175 373.38V383H221.319ZM236.504 377.865L236.493 373.21H237.111L242.992 366.636H247.498L240.264 374.69H239.465L236.504 377.865ZM232.988 383V361.182H236.845V383H232.988ZM243.258 383L237.931 375.553L240.531 372.837L247.871 383H243.258ZM257.06 383V366.636H260.916V383H257.06ZM258.999 364.314C258.388 364.314 257.862 364.112 257.422 363.707C256.982 363.295 256.761 362.801 256.761 362.226C256.761 361.643 256.982 361.15 257.422 360.745C257.862 360.333 258.388 360.127 258.999 360.127C259.616 360.127 260.142 360.333 260.575 360.745C261.016 361.15 261.236 361.643 261.236 362.226C261.236 362.801 261.016 363.295 260.575 363.707C260.142 364.112 259.616 364.314 258.999 364.314ZM268.513 373.412V383H264.657V366.636H268.343V369.417H268.535C268.911 368.501 269.511 367.773 270.335 367.233C271.166 366.693 272.192 366.423 273.414 366.423C274.543 366.423 275.527 366.665 276.365 367.148C277.21 367.631 277.864 368.33 278.325 369.246C278.794 370.163 279.025 371.274 279.018 372.581V383H275.161V373.178C275.161 372.084 274.877 371.228 274.309 370.61C273.748 369.992 272.97 369.683 271.976 369.683C271.301 369.683 270.701 369.832 270.175 370.131C269.657 370.422 269.249 370.844 268.95 371.398C268.659 371.952 268.513 372.624 268.513 373.412ZM290.1 383V361.182H298.282C299.958 361.182 301.364 361.494 302.501 362.119C303.644 362.744 304.507 363.604 305.089 364.697C305.679 365.784 305.974 367.02 305.974 368.405C305.974 369.804 305.679 371.047 305.089 372.134C304.5 373.22 303.63 374.076 302.479 374.701C301.329 375.319 299.912 375.628 298.229 375.628H292.806V372.379H297.696C298.676 372.379 299.479 372.208 300.104 371.867C300.729 371.526 301.19 371.058 301.489 370.461C301.794 369.864 301.947 369.179 301.947 368.405C301.947 367.631 301.794 366.949 301.489 366.359C301.19 365.77 300.725 365.312 300.093 364.985C299.468 364.651 298.662 364.484 297.675 364.484H294.052V383H290.1ZM309.011 383V366.636H312.751V369.364H312.921C313.219 368.419 313.731 367.691 314.455 367.18C315.187 366.661 316.021 366.402 316.959 366.402C317.172 366.402 317.41 366.413 317.672 366.434C317.942 366.448 318.166 366.473 318.344 366.509V370.056C318.18 369.999 317.921 369.95 317.566 369.907C317.218 369.857 316.881 369.832 316.554 369.832C315.851 369.832 315.219 369.985 314.658 370.29C314.104 370.589 313.667 371.004 313.347 371.537C313.028 372.07 312.868 372.684 312.868 373.38V383H309.011ZM327.145 383.32C325.547 383.32 324.162 382.968 322.99 382.265C321.818 381.562 320.909 380.578 320.263 379.314C319.623 378.05 319.304 376.572 319.304 374.882C319.304 373.192 319.623 371.711 320.263 370.44C320.909 369.168 321.818 368.181 322.99 367.478C324.162 366.775 325.547 366.423 327.145 366.423C328.743 366.423 330.128 366.775 331.3 367.478C332.471 368.181 333.377 369.168 334.016 370.44C334.662 371.711 334.986 373.192 334.986 374.882C334.986 376.572 334.662 378.05 334.016 379.314C333.377 380.578 332.471 381.562 331.3 382.265C330.128 382.968 328.743 383.32 327.145 383.32ZM327.166 380.23C328.032 380.23 328.757 379.992 329.339 379.516C329.922 379.033 330.355 378.387 330.639 377.577C330.93 376.768 331.076 375.866 331.076 374.871C331.076 373.87 330.93 372.964 330.639 372.155C330.355 371.338 329.922 370.688 329.339 370.205C328.757 369.722 328.032 369.481 327.166 369.481C326.278 369.481 325.54 369.722 324.95 370.205C324.368 370.688 323.931 371.338 323.64 372.155C323.356 372.964 323.214 373.87 323.214 374.871C323.214 375.866 323.356 376.768 323.64 377.577C323.931 378.387 324.368 379.033 324.95 379.516C325.54 379.992 326.278 380.23 327.166 380.23ZM345.15 389.477C343.765 389.477 342.576 389.289 341.581 388.913C340.587 388.543 339.788 388.046 339.184 387.421C338.581 386.796 338.162 386.104 337.927 385.344L341.4 384.502C341.557 384.822 341.784 385.138 342.082 385.45C342.38 385.77 342.782 386.033 343.286 386.239C343.797 386.452 344.44 386.558 345.214 386.558C346.308 386.558 347.214 386.292 347.931 385.759C348.648 385.234 349.007 384.367 349.007 383.16V380.06H348.815C348.616 380.457 348.325 380.866 347.942 381.285C347.565 381.704 347.064 382.055 346.439 382.339C345.822 382.624 345.044 382.766 344.106 382.766C342.849 382.766 341.709 382.471 340.687 381.881C339.671 381.285 338.861 380.397 338.258 379.218C337.661 378.032 337.363 376.548 337.363 374.765C337.363 372.968 337.661 371.452 338.258 370.216C338.861 368.973 339.674 368.032 340.697 367.393C341.72 366.746 342.86 366.423 344.117 366.423C345.076 366.423 345.864 366.587 346.482 366.913C347.107 367.233 347.604 367.62 347.974 368.075C348.343 368.522 348.623 368.945 348.815 369.342H349.028V366.636H352.831V383.266C352.831 384.665 352.498 385.823 351.83 386.739C351.162 387.656 350.25 388.341 349.092 388.795C347.934 389.25 346.621 389.477 345.15 389.477ZM345.182 379.74C345.999 379.74 346.695 379.541 347.27 379.143C347.846 378.746 348.282 378.174 348.581 377.428C348.879 376.683 349.028 375.788 349.028 374.744C349.028 373.714 348.879 372.812 348.581 372.038C348.29 371.263 347.856 370.663 347.281 370.237C346.713 369.804 346.013 369.587 345.182 369.587C344.323 369.587 343.606 369.811 343.03 370.259C342.455 370.706 342.022 371.32 341.731 372.102C341.439 372.876 341.294 373.756 341.294 374.744C341.294 375.745 341.439 376.622 341.731 377.375C342.029 378.121 342.466 378.703 343.041 379.122C343.623 379.534 344.337 379.74 345.182 379.74ZM356.559 383V366.636H360.298V369.364H360.469C360.767 368.419 361.278 367.691 362.003 367.18C362.734 366.661 363.569 366.402 364.506 366.402C364.719 366.402 364.957 366.413 365.22 366.434C365.49 366.448 365.714 366.473 365.891 366.509V370.056C365.728 369.999 365.469 369.95 365.114 369.907C364.766 369.857 364.428 369.832 364.101 369.832C363.398 369.832 362.766 369.985 362.205 370.29C361.651 370.589 361.214 371.004 360.895 371.537C360.575 372.07 360.415 372.684 360.415 373.38V383H356.559ZM374.799 383.32C373.158 383.32 371.741 382.979 370.548 382.297C369.362 381.608 368.449 380.635 367.81 379.378C367.171 378.114 366.851 376.626 366.851 374.914C366.851 373.231 367.171 371.754 367.81 370.482C368.457 369.204 369.359 368.21 370.516 367.499C371.674 366.782 373.034 366.423 374.596 366.423C375.605 366.423 376.557 366.587 377.452 366.913C378.354 367.233 379.149 367.73 379.838 368.405C380.534 369.08 381.081 369.939 381.479 370.983C381.876 372.02 382.075 373.256 382.075 374.69V375.873H368.663V373.273H378.378C378.371 372.535 378.212 371.878 377.899 371.303C377.587 370.72 377.15 370.262 376.589 369.928C376.035 369.594 375.388 369.428 374.65 369.428C373.861 369.428 373.169 369.619 372.572 370.003C371.976 370.379 371.511 370.876 371.177 371.494C370.85 372.105 370.683 372.776 370.676 373.508V375.777C370.676 376.729 370.85 377.545 371.198 378.227C371.546 378.902 372.033 379.42 372.658 379.783C373.283 380.138 374.014 380.315 374.852 380.315C375.413 380.315 375.921 380.237 376.376 380.081C376.83 379.918 377.224 379.68 377.558 379.367C377.892 379.055 378.144 378.668 378.315 378.206L381.915 378.611C381.688 379.562 381.255 380.393 380.616 381.104C379.984 381.807 379.174 382.354 378.187 382.744C377.199 383.128 376.07 383.32 374.799 383.32ZM398.046 370.962L394.53 371.345C394.431 370.99 394.257 370.656 394.008 370.344C393.767 370.031 393.44 369.779 393.028 369.587C392.616 369.396 392.112 369.3 391.515 369.3C390.713 369.3 390.038 369.474 389.491 369.822C388.952 370.17 388.685 370.621 388.692 371.175C388.685 371.651 388.859 372.038 389.214 372.336C389.577 372.634 390.173 372.879 391.004 373.071L393.795 373.668C395.344 374.001 396.494 374.531 397.247 375.255C398.007 375.979 398.39 376.928 398.398 378.099C398.39 379.129 398.089 380.038 397.492 380.827C396.903 381.608 396.082 382.219 395.031 382.659C393.98 383.099 392.773 383.32 391.409 383.32C389.406 383.32 387.794 382.901 386.572 382.062C385.351 381.217 384.623 380.042 384.388 378.536L388.149 378.174C388.319 378.913 388.682 379.47 389.236 379.847C389.79 380.223 390.511 380.411 391.398 380.411C392.314 380.411 393.05 380.223 393.604 379.847C394.165 379.47 394.445 379.005 394.445 378.451C394.445 377.982 394.264 377.595 393.902 377.29C393.547 376.984 392.993 376.75 392.24 376.587L389.449 376.001C387.879 375.674 386.718 375.124 385.965 374.349C385.212 373.568 384.839 372.581 384.846 371.388C384.839 370.379 385.113 369.506 385.667 368.767C386.228 368.021 387.006 367.446 388 367.041C389.001 366.629 390.155 366.423 391.462 366.423C393.38 366.423 394.889 366.832 395.99 367.648C397.098 368.465 397.783 369.57 398.046 370.962ZM414.286 370.962L410.77 371.345C410.671 370.99 410.497 370.656 410.248 370.344C410.007 370.031 409.68 369.779 409.268 369.587C408.856 369.396 408.352 369.3 407.755 369.3C406.953 369.3 406.278 369.474 405.731 369.822C405.191 370.17 404.925 370.621 404.932 371.175C404.925 371.651 405.099 372.038 405.454 372.336C405.816 372.634 406.413 372.879 407.244 373.071L410.035 373.668C411.583 374.001 412.734 374.531 413.487 375.255C414.247 375.979 414.63 376.928 414.637 378.099C414.63 379.129 414.328 380.038 413.732 380.827C413.142 381.608 412.322 382.219 411.271 382.659C410.22 383.099 409.012 383.32 407.649 383.32C405.646 383.32 404.034 382.901 402.812 382.062C401.591 381.217 400.863 380.042 400.628 378.536L404.389 378.174C404.559 378.913 404.922 379.47 405.475 379.847C406.029 380.223 406.75 380.411 407.638 380.411C408.554 380.411 409.289 380.223 409.843 379.847C410.404 379.47 410.685 379.005 410.685 378.451C410.685 377.982 410.504 377.595 410.142 377.29C409.787 376.984 409.233 376.75 408.48 376.587L405.689 376.001C404.119 375.674 402.958 375.124 402.205 374.349C401.452 373.568 401.079 372.581 401.086 371.388C401.079 370.379 401.353 369.506 401.907 368.767C402.468 368.021 403.245 367.446 404.24 367.041C405.241 366.629 406.395 366.423 407.702 366.423C409.62 366.423 411.129 366.832 412.23 367.648C413.338 368.465 414.023 369.57 414.286 370.962Z" fill="#9E9E9E"/>
<defs>
<clipPath id="clip0_3646_53411">
<rect width="588.285" height="309.952" fill="white"/>
</clipPath>
<clipPath id="clip1_3646_53411">
<rect width="81.496" height="194.165" fill="white" transform="translate(486.304 139.835)"/>
</clipPath>
<clipPath id="clip2_3646_53411">
<rect width="281.451" height="123.357" fill="white" transform="translate(154.085 199.51)"/>
</clipPath>
<clipPath id="clip3_3646_53411">
<rect width="175.461" height="129.147" fill="white" transform="translate(199.509 70.3628)"/>
</clipPath>
<clipPath id="clip4_3646_53411">
<rect width="115.341" height="40.5253" fill="white" transform="translate(229.792 94.4106)"/>
</clipPath>
<clipPath id="clip5_3646_53411">
<rect width="474.852" height="287.223" fill="white" transform="translate(17.8259 35.6516)"/>
</clipPath>
</defs>
</svg>
