<svg xmlns="http://www.w3.org/2000/svg" width="589" height="390" fill="none"><g clip-path="url(#a)"><path fill="#FAFCFF" d="M320.8.49h53.4v308.98h-53.4V.49Z"/><path fill="#707070" d="M374.2 309.95h-53.4c-.3 0-.49-.2-.49-.48V.49c0-.3.2-.49.49-.49h53.4c.29 0 .48.2.48.49v308.98c0 .29-.2.48-.48.48Zm-52.92-.97h52.43V.98h-52.43v308Z"/><path fill="#FAFCFF" d="M267.4.49h53.4v308.98h-53.4V.49Z"/><path fill="#707070" d="M320.8 309.95h-53.4c-.3 0-.5-.2-.5-.48V.49c0-.3.2-.49.5-.49h53.4c.29 0 .48.2.48.49v308.98c0 .29-.2.48-.48.48Zm-52.92-.97h52.43V.98h-52.43v308Z"/><path fill="#FAFCFF" d="M374.2.49h53.4v308.98h-53.4V.49Z"/><path fill="#707070" d="M427.6 309.95h-53.4c-.3 0-.49-.2-.49-.48V.49c0-.3.2-.49.49-.49h53.4c.29 0 .48.2.48.49v308.98c0 .29-.2.48-.48.48Zm-52.92-.97h52.43V.98h-52.43v308Z"/><path fill="#FAFCFF" d="M481 .49h53.4v308.98H481V.49Z"/><path fill="#707070" d="M534.4 309.95H481c-.3 0-.49-.2-.49-.48V.49c0-.3.2-.49.49-.49h53.4c.3 0 .49.2.49.49v308.98c0 .29-.2.48-.5.48Zm-52.92-.97h52.43V.98h-52.43v308Z"/><path fill="#FAFCFF" d="M160.69.49h53.4v308.98h-53.4V.49Z"/><path fill="#707070" d="M214.09 309.95h-53.4c-.3 0-.49-.2-.49-.48V.49c0-.3.2-.49.49-.49h53.4c.3 0 .48.2.48.49v308.98c0 .29-.29.48-.48.48Zm-52.92-.97h52.43V.98h-52.43v308Z"/><path fill="#FAFCFF" d="M53.89.49h53.4v308.98h-53.4V.49Z"/><path fill="#707070" d="M107.29 309.95h-53.4c-.3 0-.49-.2-.49-.48V.49c0-.3.2-.49.49-.49h53.4c.29 0 .48.2.48.49v308.98c0 .29-.2.48-.48.48Zm-52.92-.97h52.43V.98H54.37v308Z"/><path fill="#FAFCFF" d="M427.6.49H481v308.98h-53.4V.49Z"/><path fill="#707070" d="M481 309.95h-53.4c-.3 0-.49-.2-.49-.48V.49c0-.3.2-.49.49-.49H481c.29 0 .48.2.48.49v308.98c0 .29-.2.48-.48.48Zm-52.92-.97h52.43V.98h-52.43v308Z"/><path fill="#FAFCFF" d="M534.4.49h53.4v308.98h-53.4V.49Z"/><path fill="#707070" d="M587.8 309.95h-53.4c-.3 0-.49-.2-.49-.48V.49c0-.3.2-.49.49-.49h53.4c.3 0 .49.2.49.49v308.98c0 .29-.3.48-.49.48Zm-52.92-.97h52.43V.98h-52.43v308Z"/><path fill="#FAFCFF" d="M214.09.49h53.4v308.98h-53.4V.49Z"/><path fill="#707070" d="M267.4 309.95H214c-.3 0-.5-.2-.5-.48V.49c0-.3.2-.49.5-.49h53.4c.29 0 .48.2.48.49v308.98c0 .29-.2.48-.49.48Zm-52.82-.97H267V.98h-52.43v308Z"/><path fill="#FAFCFF" d="M107.29.49h53.4v308.98h-53.4V.49Z"/><path fill="#707070" d="M160.69 309.95h-53.4c-.3 0-.49-.2-.49-.48V.49c0-.3.2-.49.49-.49h53.4c.29 0 .48.2.48.49v308.98c0 .29-.29.48-.48.48Zm-52.92-.97h52.43V.98h-52.43v308Z"/><path fill="#FAFCFF" d="M.49.49h53.4v308.98H.49V.49Z"/><path fill="#707070" d="M53.89 309.95H.49c-.3 0-.49-.2-.49-.48V.49C0 .19.2 0 .49 0h53.4c.29 0 .48.2.48.49v308.98c0 .29-.2.48-.48.48Zm-52.92-.97H53.4V.98H.97v308Z"/></g><g clip-path="url(#b)"><path fill="#FAFCFF" d="m499.22 279.54 7.58 50.2c0 2.09 7.84 3.79 17.51 3.79 9.67 0 17.51-1.7 17.51-3.8l7.58-50.2h-50.18Z"/><path fill="#707070" d="M524.3 334c-8.93 0-17.98-1.46-17.98-4.26l-7.56-50.13a.47.47 0 0 1 .1-.38.49.49 0 0 1 .36-.17h50.17c.07 0 .14.02.2.05a.47.47 0 0 1 .26.3c.02.06.02.13.01.2l-7.57 50.2c0 2.73-9.04 4.19-17.98 4.19ZM499.78 280l7.5 49.66c0 1.45 6.48 3.38 17.04 3.38 10.56 0 17.04-1.93 17.04-3.31l7.5-49.73h-49.08Z"/><path fill="#FAFCFF" d="M524.3 286.17c14.9 0 26.99-2.55 26.99-5.68 0-3.14-12.08-5.69-26.98-5.69s-26.98 2.55-26.98 5.69c0 3.13 12.08 5.68 26.98 5.68Z"/><path fill="#707070" d="M524.3 286.64c-13.3 0-27.44-2.15-27.44-6.15s14.14-6.16 27.45-6.16c13.3 0 27.45 2.16 27.45 6.16s-14.14 6.15-27.45 6.15Zm0-11.36c-15.61 0-26.5 2.74-26.5 5.2 0 2.47 10.89 5.21 26.5 5.21 15.63 0 26.52-2.74 26.52-5.2 0-2.47-10.9-5.21-26.51-5.21Z"/><path fill="#707070" d="M524.31 288.06c13 0 23.55-1.85 23.55-4.14 0-2.29-10.54-4.14-23.55-4.14-13 0-23.55 1.85-23.55 4.14 0 2.29 10.55 4.14 23.55 4.14Z"/><path fill="#707070" d="M524.3 288.54c-9.65 0-24.01-1.23-24.01-4.62s14.36-4.62 24.02-4.62c9.65 0 24.02 1.23 24.02 4.62s-14.37 4.62-24.02 4.62Zm0-8.3c-14.29 0-23.06 2.15-23.06 3.68 0 1.53 8.77 3.67 23.07 3.67s23.07-2.14 23.07-3.67c0-1.53-8.77-3.67-23.07-3.67Z"/><path fill="#FAFCFF" d="m545.62 304.58-.79 5.2c-3.36 1.7-11.28 2.9-20.52 2.9s-17.16-1.2-20.52-2.9l-.79-5.2c2.76 1.95 11.25 3.37 21.31 3.37 10.06 0 18.55-1.42 21.3-3.37Z"/><path fill="#707070" d="M524.3 313.16c-9.04 0-17.18-1.16-20.73-2.96a.47.47 0 0 1-.25-.35l-.79-5.2a.47.47 0 0 1 .74-.45c2.74 1.93 11.38 3.28 21.04 3.28 9.65 0 18.3-1.35 21.03-3.28a.47.47 0 0 1 .52-.02.47.47 0 0 1 .23.47l-.8 5.2a.47.47 0 0 1-.25.35c-3.54 1.8-11.68 2.96-20.73 2.96Zm-20.08-3.7c3.53 1.68 11.36 2.75 20.09 2.75s16.56-1.07 20.1-2.75l.6-3.97c-3.56 1.78-11.58 2.94-20.7 2.94s-17.14-1.16-20.7-2.94l.6 3.97Z"/><path fill="#FAFCFF" d="m546.9 296.05-.77 5.14c-3.87 1.76-12.18 2.98-21.82 2.98s-17.95-1.22-21.82-2.98l-.78-5.14c3.44 1.98 12.26 3.38 22.6 3.38 10.34 0 19.16-1.4 22.6-3.38Z"/><path fill="#707070" d="M524.3 304.64c-9.48 0-17.92-1.16-22-3.02a.47.47 0 0 1-.28-.36l-.77-5.14a.48.48 0 0 1 .2-.46.47.47 0 0 1 .25-.08c.08 0 .17.01.25.06 3.44 1.98 12.43 3.31 22.36 3.31s18.91-1.33 22.36-3.31a.47.47 0 0 1 .7.48l-.77 5.14a.48.48 0 0 1-.1.22.49.49 0 0 1-.18.14c-4.08 1.86-12.52 3.02-22.01 3.02Zm-21.38-3.78c4.01 1.72 12.35 2.83 21.39 2.83 9.04 0 17.38-1.1 21.39-2.83l.6-3.97c-4.05 1.84-12.47 3.01-22 3.01-9.51 0-17.93-1.17-21.98-3.01l.6 3.97Z"/><path fill="#FAFCFF" d="M527.86 239.04c-.27 5.4-.59 10.65-.93 15.58v.04a957.05 957.05 0 0 1-1.92 23.7l-.06.67c-.02.1-.02.18-.02.27l-.09.9-.12 1.19-.2 1.97h-.9l-.05-.68c0-.15-.03-.3-.04-.45v-.03a111.85 111.85 0 0 0-.55-5.5c-.23-1.93-.5-3.87-.8-5.8-2.19-13.45-6.17-27.46-10.1-42.37-2.98-11.27-5.94-23.04-8.06-35.47-5.8-33.96-5.68-50.17 4.76-52.46.87-.2 1.81-.3 2.83-.3 7.36 0 14.77 10.5 16.71 51.78.14 3.02.24 6.13.3 9.3.22 12.28-.14 25.4-.76 37.66Z"/><path fill="#707070" d="M524.53 283.83h-.91a.47.47 0 0 1-.47-.43l-.09-1.14c0-.22-.03-.4-.04-.6a141.11 141.11 0 0 0-1.31-10.7c-1.86-11.43-5.02-23.27-8.36-35.8l-1.74-6.51c-3.39-12.85-6.06-23.8-8.05-35.5-5.42-31.67-6.32-50.5 5.11-53.01.89-.2 1.88-.3 2.94-.3 9.77 0 15.56 17.56 17.18 52.22.14 2.88.24 6.01.3 9.3.2 10.97-.05 23.65-.76 37.7a787.94 787.94 0 0 1-1.8 27.34l-.55 6.4-.5 5.6-.07.67-.01.23-.09.92-.11 1.1-.2 2.08a.48.48 0 0 1-.47.43Zm-.47-.95h.04l.15-1.65.12-1.1a14.35 14.35 0 0 1 .1-1.12l.07-.7.5-5.6a962.29 962.29 0 0 0 2.35-33.7c.7-14.02.96-26.69.75-37.63-.05-3.1-.15-6.19-.3-9.28-1.59-34.05-7.06-51.32-16.23-51.32-1 0-1.91.1-2.73.28-9.45 2.08-10.6 15.67-4.4 51.93 2 11.66 4.66 22.6 8.05 35.41l1.73 6.52c3.35 12.55 6.51 24.4 8.38 35.9a138.44 138.44 0 0 1 1.37 11.36l.05.7Z"/><path fill="#707070" d="M523.43 283.36h1.72l-.06-.97-.08-1.5-.04-.78-.05-.8v-.1l-.14-2.36v-.08l-.56-9.77v-.11c-.43-6.02-.8-12.04-1.26-18.06-.18-2-.33-4.02-.5-6.03-.3-4.04-.63-8.08-1.03-12.11l-.83-9.07-.95-9.05a947.56 947.56 0 0 0-4.5-36.14c-.9-6-1.82-12-2.87-17.97a337.2 337.2 0 0 0-3.5-17.86 338.9 338.9 0 0 1 3.26 17.9c.98 5.98 1.82 11.98 2.64 18 1.6 12.02 2.9 24.09 4.04 36.16l.82 9.06.72 9.07c.5 6.03.85 12.1 1.28 18.14.23 3.68.43 7.37.63 11.05l.27 4.9.01.25.12 1.96.1 2.2v.07l.15 3.64.16 3.7.2 4.25.02.55.01.23.07 1.62h.15Z"/><path fill="#FAFCFF" d="M556.97 184.38a744.5 744.5 0 0 0-6.77 18.13c-5.56 15.38-13.17 37.32-18.6 55.93l-1.27 4.46a233.56 233.56 0 0 0-4.1 16.49v.02a128 128 0 0 0-.61 3.2l-.08.46-.05.29h-1.57c-.03-.16-.04-.3-.05-.46a7.73 7.73 0 0 1-.03-.18l-.3-2.7a206.25 206.25 0 0 1-.87-10.65v-.07c-.08-1.33-.16-2.73-.21-4.17l-.01-.24c-.07-1.36-.12-2.76-.16-4.2v-.03c-.14-5.46-.12-11.49.17-17.86.6-12.9 2.33-27.25 6.16-41.43 1.73-6.43 3.89-12.82 6.58-19.03 8.88-20.56 15.14-27.68 20.82-27.68 1.21 0 2.22.23 3.05.63 7.6 3.75.28 23.16-2.1 29.09Z"/><path fill="#707070" d="M525.5 283.83h-1.58a.47.47 0 0 1-.46-.39 4.44 4.44 0 0 1-.05-.34l-.04-.31-.01-.1a203.5 203.5 0 0 1-1.15-13.28c-.02-.03-.02-.06-.02-.08a242.1 242.1 0 0 1-.37-8.64c-.16-5.97-.1-11.95.17-17.91.7-14.95 2.77-28.92 6.17-41.53a139.9 139.9 0 0 1 6.6-19.1c8.37-19.34 14.92-27.97 21.26-27.97 1.24 0 2.33.23 3.26.69 7.31 3.6 1.97 20.14-1.87 29.68a747.58 747.58 0 0 0-6.76 18.13c-4.42 12.2-12.7 35.7-18.59 55.89-.43 1.47-.85 2.94-1.26 4.42l-.01.04a230 230 0 0 0-4.13 16.56c-.2 1.03-.4 2.06-.58 3.1l-.12.76c-.02.1-.08.2-.17.27-.08.07-.19.1-.3.1Zm-1.16-.95h.75l.06-.36a131.15 131.15 0 0 1 .65-3.32c.9-4.53 2.23-9.86 4.07-16.39v-.04l1.28-4.47c5.89-20.18 14.17-43.67 18.6-55.9v-.05c3.13-8.64 5.7-15.46 6.78-18.15 3-7.43 9.2-25.1 2.33-28.48a6.42 6.42 0 0 0-2.84-.59c-5.9 0-12.2 8.45-20.39 27.4a138.77 138.77 0 0 0-6.55 18.96c-3.39 12.55-5.46 26.46-6.14 41.33a248.82 248.82 0 0 0-.02 22.04v.21a241.74 241.74 0 0 0 1.1 14.9l.28 2.6.04.31Z"/><path fill="#707070" d="M559.07 155.3c-5.89 9.68-10.69 20-14.9 30.5a257.8 257.8 0 0 0-10.5 32.29 255.83 255.83 0 0 0-6.33 33.3l-.4 3.23v.04l-.13.95-.26 2.1-.16 2.12-.63 8.46-.06.61c-.1 1.28-.16 2.56-.19 3.85l-.07 3.8-.01.2-.03 1.32-.05 2.61-.03 1.1v.34l-.02 1.24h-1.87l.04-1.13v-.15l.02-.46.05-1.6.12-3.33.03-.78c.05-1.72.1-3.44.2-5.15.05-.86.12-1.73.21-2.59l.12-1.29.64-7.2.19-2.13.3-2.1.58-4.23c.53-4.09 1.17-8.15 1.93-12.18a293.5 293.5 0 0 1 4.88-21.2 257.27 257.27 0 0 1 11-32.21c4.36-10.47 9.3-20.72 15.33-30.34Z"/><path fill="#FAFCFF" d="M523.43 283.36h2.3l-.12-.75c-.04-.4-.1-.79-.16-1.18l-.1-.75c-.08-.48-.14-.95-.2-1.42-.05-.24-.08-.49-.11-.72l-.03-.18-.23-1.51v-.08c-.31-2.13-.6-4.13-.9-6.01-.5-3.37-1.02-6.72-1.59-10.08v-.02l-.12-.68c-2.45-14.19-4.63-20.44-10.1-31.45-1.49-3-3.22-6.36-5.27-10.33-6.1-11.8-11.36-17.43-17.04-17.43-.7 0-1.24.17-1.68.49-3.76 2.67 1.32 16.07 6.41 26.17 4.46 8.84 11.63 22.8 18.08 35.28a14274.68 14274.68 0 0 0 10.69 20.65H523.43Z"/><path fill="#707070" d="M525.73 283.83h-2.45a.5.5 0 0 1-.44-.26l-2.64-5.08-8.05-15.56c-4.5-8.73-12.85-24.9-18.08-35.29-1.94-3.84-11.34-23.17-6.26-26.77a3.27 3.27 0 0 1 1.95-.57c5.75 0 11.14 5.45 17.46 17.68 2.18 4.22 3.83 7.43 5.27 10.34 5.3 10.67 7.63 17.05 10.15 31.58a19.2 19.2 0 0 0 .13.76c.56 3.34 1.09 6.68 1.58 10.03a637.32 637.32 0 0 1 .9 6.16l.23 1.44.03.19.1.71.03.2.18 1.22c.02.23.06.44.09.65l.01.1.17 1.2.1.73a.47.47 0 0 1-.46.54Zm-2.18-.95h1.63l-.03-.18-.16-1.2-.02-.1-.09-.66-.18-1.21-.03-.2-.1-.74-.03-.17-.22-1.5-.01-.15c-.3-2.06-.6-4.06-.9-5.94a490.2 490.2 0 0 0-1.58-10.07v-.04l-.13-.66c-2.5-14.53-4.7-20.56-10.05-31.32-1.44-2.9-3.1-6.11-5.27-10.32-6.14-11.88-11.27-17.17-16.62-17.17-.57 0-1.03.13-1.4.4-3.23 2.28.96 14.48 6.55 25.56A4676.6 4676.6 0 0 0 513 262.5l8.05 15.56 2.5 4.83Z"/><path fill="#FAFCFF" d="M560.75 221.28A2918.97 2918.97 0 0 0 545.56 249l-3.77 6.97-.91 1.73a3221.7 3221.7 0 0 0-13.6 25.66h-3.07c.1-1.27.21-2.7.35-4.25l.22-2.26v-.08c.25-2.4.55-5.03.92-7.87l.35-2.53c2.26-16.03 6.8-37 15.77-52.27a69 69 0 0 1 8.38-11.58v-.01c3.98-4.36 7.76-6.86 10.55-6.86a8 8 0 0 1 3.55.7c7.51 3.62-1.02 20.37-3.55 24.93Z"/><path fill="#707070" d="M527.28 283.83h-3.06a.47.47 0 0 1-.35-.15.49.49 0 0 1-.13-.36c.1-1.27.21-2.7.35-4.25l.17-1.78.05-.49c.27-2.68.58-5.33.92-7.96l.05-.38.3-2.16c2.16-15.31 6.66-36.84 15.83-52.44a70.01 70.01 0 0 1 8.44-11.67c4.14-4.52 8-7.01 10.9-7.01 1.5 0 2.73.24 3.76.75a5.45 5.45 0 0 1 2.88 3.4c2.05 6.45-4.24 18.6-6.22 22.18a2895.64 2895.64 0 0 0-15.2 27.72l-3.32 6.15-.76 1.42-.6 1.12a3203.1 3203.1 0 0 0-13.59 25.65.48.48 0 0 1-.17.2.48.48 0 0 1-.25.06Zm-2.56-.95H527c4.45-8.49 8.94-16.96 13.47-25.4l.6-1.12.76-1.43 3.32-6.15c5.02-9.27 10.09-18.52 15.2-27.73 1.38-2.48 8.13-15.19 6.15-21.43a4.48 4.48 0 0 0-2.39-2.84 7.62 7.62 0 0 0-3.35-.66c-2.61 0-6.22 2.37-10.15 6.66a68.94 68.94 0 0 0-8.36 11.56c-9.1 15.47-13.57 36.86-15.72 52.09l-.3 2.15-.05.39c-.34 2.62-.65 5.26-.92 7.85l-.04.56c-.19 1.83-.35 3.67-.49 5.5Z"/><path fill="#707070" d="M525.6 283.36h-1.9a19.4 19.4 0 0 0-.13-.68l-.1-.45-.04-.15-.04-.16a177.37 177.37 0 0 0-5.32-18.6A287.27 287.27 0 0 0 509.5 242a384.78 384.78 0 0 0-10.1-20.68c-3.58-6.8-7.31-13.5-11.32-20.06 4.14 6.48 8.01 13.12 11.73 19.84a383.84 383.84 0 0 1 10.56 20.5 285.02 285.02 0 0 1 9.04 21.25 195.31 195.31 0 0 1 4.27 13.06c.32 1.06.6 2.13.89 3.2l.21.87a.8.8 0 0 1 .06.21c.03.09.05.16.06.25.04.15.08.3.1.45.1.34.19.68.26 1.04l.06.2.22.94.06.29Z"/><path fill="#707070" d="M564.3 196.35a426.4 426.4 0 0 0-12.2 21.16c-3.89 7.16-7.59 14.42-11 21.8a247.17 247.17 0 0 0-9.26 22.55 145.47 145.47 0 0 0-4.27 14.52l-.01.03c-.54 2.3-.97 4.61-1.31 6.94h-1.87c.1-.66.21-1.31.34-1.97.05-.32.12-.63.18-.94l.07-.33c.05-.29.1-.57.17-.85l.26-1.19c1.01-4.48 2.36-8.86 3.85-13.17a220.34 220.34 0 0 1 2.36-6.46 249.83 249.83 0 0 1 8.64-19.53 376.82 376.82 0 0 1 11.43-21.63c4.04-7.08 8.2-14.1 12.62-20.93Z"/><path fill="#FAFCFF" d="M543.71 263.3c-6.43 5.41-12.39 14.09-16.06 20.06h-3.35c.13-1.06.3-2.2.48-3.38l.13-.77.03-.18.1-.5c.12-.65.25-1.3.4-1.97.83-3.96 2.06-8.11 3.8-11.65.34-.7.7-1.37 1.09-2v-.01c.34-.58.7-1.13 1.08-1.65.4-.56.8-1.1 1.2-1.62 4.36-5.57 9.02-9.03 12.95-10.63 1.77-.73 3.4-1.08 4.78-1.08 1 0 1.71.26 2.15.73 2.04 2.14-1.76 8.74-8.78 14.65Z"/><path fill="#707070" d="M527.65 283.83h-3.35a.46.46 0 0 1-.35-.16.47.47 0 0 1-.12-.37c.13-1.07.3-2.21.49-3.4l.15-.94.1-.5.4-2a49.92 49.92 0 0 1 3.86-11.76 22.79 22.79 0 0 1 1.1-2.04c.34-.6.7-1.16 1.1-1.69.4-.56.8-1.1 1.22-1.63 4-5.13 8.67-8.96 13.13-10.78a13.39 13.39 0 0 1 4.96-1.11c1.12 0 1.96.3 2.5.88.49.52.72 1.24.67 2.14-.18 3.26-4 8.56-9.5 13.19-6.32 5.32-12.16 13.78-15.96 19.94a.47.47 0 0 1-.4.23Zm-2.81-.95h2.55c3.83-6.2 9.68-14.6 16.02-19.95 5.23-4.4 9-9.54 9.15-12.51.04-.63-.1-1.12-.41-1.44-.36-.39-.97-.58-1.8-.58-1.36 0-2.95.36-4.6 1.04-4.32 1.76-8.85 5.48-12.76 10.48l-1.2 1.6a20.06 20.06 0 0 0-1.06 1.63c-.38.64-.73 1.29-1.05 1.96a49.06 49.06 0 0 0-3.78 11.54 90.5 90.5 0 0 0-.5 2.49l-.15.93c-.15.94-.29 1.87-.41 2.81Z"/><path fill="#FAFCFF" d="M523.43 283.36h.64l-.2-.46-.3-.6c0-.03-.03-.06-.04-.1l-.06-.12-.08-.16a8.84 8.84 0 0 0-.19-.41c-2.62-5.51-6.39-12.76-10.63-18.8-.34-.5-.69-.98-1.04-1.46-3.79-5.12-6.7-6.15-9.47-6.15-1.02 0-1.77.28-2.26.77-2.73 2.68 1.9 11.75 7.94 16.65 4.3 3.5 9.76 7.4 13.77 10.84h1.92Z"/><path fill="#707070" d="M524.07 283.83h-2.56a.47.47 0 0 1-.31-.11c-2.28-1.95-5.08-4.1-7.78-6.17-2.03-1.55-4.13-3.16-5.97-4.66-4.72-3.83-8.72-10.28-8.92-14.39-.06-1.3.26-2.3.94-2.97.6-.6 1.47-.9 2.6-.9 2.55 0 5.71.75 9.84 6.34l1.05 1.47c4.33 6.18 8.2 13.66 10.67 18.86l.02.05a8.1 8.1 0 0 1 .3.64l.04.1.03.06a12.54 12.54 0 0 1 .48 1 .47.47 0 0 1-.02.46.48.48 0 0 1-.4.22Zm-2.39-.95h1.65a20.69 20.69 0 0 0-.23-.5l-.04-.06-.08-.18a11.55 11.55 0 0 0-.23-.48c-2.46-5.16-6.28-12.57-10.57-18.68-.33-.49-.68-.97-1.03-1.45-3.88-5.25-6.77-5.95-9.09-5.95-.86 0-1.5.2-1.93.62-.48.48-.7 1.24-.65 2.25.18 3.81 4.1 10.09 8.56 13.7 1.84 1.5 3.93 3.1 5.95 4.65 2.67 2.04 5.42 4.15 7.7 6.08Zm30.81-34.23c-3.54 1.69-6.63 4.15-9.45 6.82-.75.72-1.46 1.46-2.16 2.23a61.32 61.32 0 0 0-5.29 6.72l-1.57 2.45c-.53.82-.95 1.7-1.45 2.53-.98 1.68-1.76 3.46-2.6 5.2-.44.88-.76 1.78-1.13 2.68l-1.07 2.71c-.38 1.12-.75 2.24-1.11 3.37h-1.92c.13-.33.24-.65.35-.97a5.5 5.5 0 0 0 .23-.62c.05-.1.09-.22.13-.34.25-.68.5-1.35.77-2.02v-.02l1.21-2.71.13-.27v-.03c.36-.8.7-1.61 1.13-2.38.93-1.75 1.79-3.52 2.86-5.2.53-.82 1-1.7 1.57-2.5l1.7-2.43a58.9 58.9 0 0 1 7.9-8.74c2.95-2.59 6.16-4.93 9.77-6.48Z"/><path fill="#707070" d="M523.43 283.36h.73l-.23-.48a.9.9 0 0 0-.1-.16c-.07-.15-.17-.28-.26-.42l-.04-.07-.06-.1a.25.25 0 0 0-.04-.05l-.13-.21-.09-.14c-.4-.64-.85-1.2-1.29-1.8a65.83 65.83 0 0 0-2.94-3.65c-2.02-2.38-4.1-4.68-6.22-6.97a513.66 513.66 0 0 0-12.96-13.44c4.3 4.5 8.5 9.1 12.61 13.76 2.05 2.33 4.08 4.7 6.02 7.12.98 1.2 1.93 2.42 2.83 3.68.44.63.9 1.25 1.28 1.9.19.34.42.66.58.98l.01.05h.3Z"/><path fill="#707070" d="M531.11 282.07c0 1.33-1.71 4.09-6.8 4.09-5.1 0-6.8-2.76-6.8-4.1 0-1.32 2.01-.06 7.1-.06 5.1 0 6.5-1.26 6.5.07Z"/><path fill="#707070" d="M524.3 286.63c-5.49 0-7.27-3.07-7.27-4.56 0-.5.22-1.08 1.24-1.08.39 0 .89.07 1.52.15 1.14.16 2.7.38 4.82.38 2.19 0 3.69-.23 4.68-.4.53-.07.91-.13 1.22-.13.7 0 1.08.37 1.08 1.08 0 1.49-1.78 4.56-7.28 4.56Zm-6.32-4.66v.1c0 1.13 1.6 3.61 6.33 3.61 4.74 0 6.33-2.48 6.33-3.61l-.01-.14h-.12c-.23 0-.6.06-1.07.13-1.02.16-2.57.4-4.83.4-2.18 0-3.78-.22-4.95-.38a8.15 8.15 0 0 0-1.68-.11Z"/><path fill="#FAFCFF" d="M551.29 288.06c0 3.14-12.08 5.69-26.98 5.69s-26.98-2.55-26.98-5.69v-7.57c0 3.13 12.08 5.68 26.98 5.68s26.98-2.55 26.98-5.68v7.57Z"/><path fill="#707070" d="M524.3 294.22c-13.3 0-27.44-2.16-27.44-6.16v-7.57a.47.47 0 1 1 .94 0c0 2.46 10.89 5.2 26.5 5.2 15.63 0 26.52-2.74 26.52-5.2a.47.47 0 1 1 .94 0v7.57c0 4-14.14 6.16-27.45 6.16Zm-26.5-12.02v5.86c0 2.47 10.89 5.21 26.5 5.21 15.63 0 26.52-2.74 26.52-5.2v-5.87c-3.38 2.9-15.25 4.44-26.51 4.44-11.26 0-23.13-1.54-26.5-4.44Z"/></g><g clip-path="url(#c)"><path fill="#FAFCFF" d="m429.23 322.53-26.82-99.55-26.82 99.55-5.2-1.39 32.02-118.86 32.02 118.86-5.2 1.4Z"/><path fill="#707070" d="M429.23 322.87a.34.34 0 0 1-.2-.07.33.33 0 0 1-.13-.18l-26.49-98.35-26.5 98.35a.34.34 0 0 1-.41.24l-5.2-1.4a.34.34 0 0 1-.24-.4l32.02-118.87c.08-.3.58-.3.66 0l32.02 118.87v.13c0 .04-.01.08-.04.12a.34.34 0 0 1-.2.15l-5.2 1.4a.31.31 0 0 1-.1 0Zm-58.43-1.97 4.56 1.22 26.73-99.23c.08-.3.57-.3.65 0l26.73 99.23 4.55-1.22-31.6-117.33L370.8 320.9Z"/><path fill="#FAFCFF" d="m213.26 322.53-26.82-99.55-26.81 99.55-5.2-1.39 32.01-118.86 32.02 118.86-5.2 1.4Z"/><path fill="#707070" d="M213.26 322.87a.34.34 0 0 1-.32-.25l-26.5-98.35-26.5 98.35a.34.34 0 0 1-.4.24l-5.2-1.4a.34.34 0 0 1-.25-.4l32.03-118.87c.08-.3.57-.3.65 0l32.02 118.87v.13l-.03.12a.34.34 0 0 1-.21.15l-5.2 1.4a.32.32 0 0 1-.09 0Zm-58.43-1.97 4.56 1.22 26.73-99.23c.08-.3.57-.3.65 0l26.73 99.23 4.55-1.22-31.6-117.33-31.62 117.33Z"/><path fill="#FAFCFF" d="M394.9 208.16h15.03v13.31h-15.04v-13.3Z"/><path fill="#707070" d="M409.93 221.81h-15.04a.34.34 0 0 1-.33-.34v-13.3a.33.33 0 0 1 .33-.34h15.04a.34.34 0 0 1 .33.33v13.31a.33.33 0 0 1-.33.34Zm-14.7-.67h14.36V208.5h-14.36v12.64Z"/><path fill="#FAFCFF" d="M178.93 208.16h15.03v13.31h-15.03v-13.3Z"/><path fill="#707070" d="M193.96 221.81h-15.03a.33.33 0 0 1-.34-.34v-13.3a.33.33 0 0 1 .34-.34h15.03a.34.34 0 0 1 .34.33v13.31a.34.34 0 0 1-.34.34Zm-14.7-.67h14.36V208.5h-14.36v12.64Zm215.63-13.65h15.04v6.6h-15.04v-6.6Z"/><path fill="#707070" d="M409.93 214.43h-15.04a.34.34 0 0 1-.33-.33v-6.6c0-.1.03-.18.1-.24.06-.07.14-.1.23-.1h15.04a.34.34 0 0 1 .34.33v6.6c0 .1-.04.18-.1.25a.34.34 0 0 1-.24.1Zm-14.7-.67h14.36v-5.93h-14.36v5.93Zm-216.3-6.27h15.03v6.6h-15.03v-6.6Z"/><path fill="#707070" d="M193.96 214.43h-15.03a.34.34 0 0 1-.24-.1.33.33 0 0 1-.1-.23v-6.6c0-.1.03-.18.1-.24.06-.07.15-.1.24-.1h15.03a.34.34 0 0 1 .34.33v6.6c0 .1-.04.18-.1.25a.34.34 0 0 1-.24.1Zm-14.7-.67h14.36v-5.93h-14.36v5.93Z"/><path fill="#FAFCFF" d="M154.53 199.84H435.2v11.65H154.53v-11.65Z"/><path fill="#707070" d="M435.2 211.83H154.53a.34.34 0 0 1-.34-.34v-11.65a.34.34 0 0 1 .34-.33H435.2a.34.34 0 0 1 .34.34v11.64a.33.33 0 0 1-.34.34Zm-280.33-.67h280v-10.98h-280v10.98Z"/></g><g clip-path="url(#d)"><path fill="#FAFCFF" d="m313 197.53-1.18-.6a13.42 13.42 0 0 1-7.32-11.97v-41.6h-34.52v41.6a13.45 13.45 0 0 1-7.32 11.96l-1.18.6c-.84.44-.54 1.7.4 1.7h50.72c.94 0 1.24-1.26.4-1.7Z"/><path fill="#707070" d="M312.6 199.5h-50.72c-.56 0-1.02-.35-1.15-.9a1.17 1.17 0 0 1 .62-1.33l1.18-.6a13.08 13.08 0 0 0 7.17-11.71v-41.6a.29.29 0 0 1 .28-.29h34.52c.07 0 .15.03.2.09.05.05.08.12.08.2v41.6c0 4.97 2.75 9.45 7.17 11.7l1.18.61a1.16 1.16 0 0 1 .62 1.33 1.16 1.16 0 0 1-1.15.9Zm-42.33-55.85v41.3c0 5.2-2.87 9.88-7.48 12.23l-1.18.6a.59.59 0 0 0-.32.69c.06.22.24.47.59.47h50.72c.35 0 .53-.25.59-.47a.59.59 0 0 0-.32-.69l-1.18-.6a13.66 13.66 0 0 1-7.48-12.22v-41.31h-33.94Z"/><path fill="#707070" d="M370.22 70.65H204.26a4.46 4.46 0 0 0-4.46 4.48v93.1a4.48 4.48 0 0 0 4.46 4.48h165.96a4.46 4.46 0 0 0 4.46-4.48v-93.1a4.48 4.48 0 0 0-4.46-4.48Z"/><path fill="#707070" d="M370.22 173H204.26a4.76 4.76 0 0 1-4.75-4.77v-93.1a4.76 4.76 0 0 1 4.75-4.77h165.96a4.76 4.76 0 0 1 4.75 4.77v93.1a4.76 4.76 0 0 1-4.75 4.76ZM204.26 70.93a4.19 4.19 0 0 0-4.18 4.19v93.1a4.19 4.19 0 0 0 4.18 4.19h165.96c2.3 0 4.18-1.88 4.18-4.19v-93.1c0-2.31-1.88-4.2-4.18-4.2H204.26Z"/><path fill="#FAFCFF" d="M374.68 156.98H199.8v11.25a4.48 4.48 0 0 0 4.46 4.48h165.96a4.46 4.46 0 0 0 4.46-4.48v-11.25Z"/><path fill="#707070" d="M370.22 173H204.26a4.76 4.76 0 0 1-4.75-4.77v-11.25a.29.29 0 0 1 .29-.29h174.88a.29.29 0 0 1 .3.29v11.25a4.76 4.76 0 0 1-4.76 4.76Zm-170.14-15.73v10.96a4.19 4.19 0 0 0 4.18 4.19h165.96c2.3 0 4.18-1.88 4.18-4.19v-10.96H200.08Z"/><path fill="#FAFCFF" d="M206.1 76.7h162.29V151h-162.3V76.7Z"/><path fill="#707070" d="M368.38 151.28H206.1a.29.29 0 0 1-.3-.28V76.7a.29.29 0 0 1 .3-.28h162.28a.29.29 0 0 1 .3.29V151a.29.29 0 0 1-.3.28Zm-162-.57H368.1V77H206.38v73.71Zm82.6 17.9h-3.48a1.79 1.79 0 0 1-1.79-1.8v-3.49a1.8 1.8 0 0 1 1.79-1.78h3.48a1.79 1.79 0 0 1 1.79 1.78v3.5a1.8 1.8 0 0 1-1.79 1.78Z"/><path fill="#707070" d="M288.98 168.9h-3.48a2.07 2.07 0 0 1-2.07-2.09v-3.49a2.08 2.08 0 0 1 2.07-2.07h3.48a2.08 2.08 0 0 1 2.07 2.07v3.5a2.08 2.08 0 0 1-2.07 2.07Zm-3.48-7.08a1.5 1.5 0 0 0-1.5 1.5v3.5a1.5 1.5 0 0 0 1.5 1.5h3.48a1.5 1.5 0 0 0 1.5-1.5v-3.5a1.5 1.5 0 0 0-1.5-1.5h-3.48Z"/></g><g clip-path="url(#e)"><path fill="#707070" d="m270.16 96.35 2.99 12.98c1.13-.27 2.27-.49 3.41-.67l-2.03-13.17c-1.47.24-2.92.52-4.37.86Zm29.94 3.55a2.62 2.62 0 0 1 1.87 2.17c1.44.52 2.86 1.1 4.26 1.74.33-2.86-1.75-5.9-5.12-6.83-4.72-1.43-7.8.8-8.77 5.09-.94 4.14 1.3 7.12 4.82 8.2 3.15.96 6.4-.1 7.95-3.55l.63-1.5a52.5 52.5 0 0 0-7.07-2.65l-.7 2.6c1.05.32 2.1.66 3.13 1.05 0 0-.87 1.84-3.11 1.13-1.81-.55-2.13-2.34-1.67-4.39.45-2.03 1.74-3.68 3.79-3.06Zm-28.96 9.94L267.56 97a64.71 64.71 0 0 0-6.4 2.19l.87 8.84-6.17-6.48a63.8 63.8 0 0 0-5.78 3.45l7.33 11.11c.97-.64 1.96-1.25 2.98-1.82l-4.94-8.54 7.07 7.37c1-.5 2-.96 3.03-1.39l-.9-10.02 3.17 9.18c1.1-.4 2.2-.74 3.32-1.05Zm-28.84.86c-3.62 3.36-3.4 7.55-.14 10.19 3.3 2.67 6.8 2.5 9.5.01 2.63-2.41 3.13-5.9.73-9.44-2.3-3.4-6.56-3.99-10.1-.76Zm7.31 7.96c-1.39 1.3-3.08.64-4.59-.82-1.5-1.45-2.24-3.44-.67-4.9 1.47-1.34 3.39-.63 4.79 1.1 1.41 1.72 1.74 3.46.47 4.62Zm-8.95 10.98c-.9 1.5-3.04 1.23-4.68.35-1.63-.86-2.95-2.76-1.92-4.46 1.16-1.88 3.15-1.05 3.14-1.05a55.7 55.7 0 0 1 2.68-3.67c.07.06-4.44-3.03-8.33 3.03-3.33 5.67-.08 9 2.52 10.07 2.7 1.16 6.77 1.38 9.25-2.84 2.86-4.48-.76-8.1-.8-8.16a52.28 52.28 0 0 0-2.53 3.46s1.62 1.72.67 3.27Zm45.88-26.78-3.95-8.09c-1.76.04-3.65.17-5.39.37l1.46 13.25c1.1-.13 2.24-.26 3.48-.27l-.6-8.36 3.92 8.36c1.42.05 2.83.16 4.23.33l1.46-13.25a56.1 56.1 0 0 0-4.2-.36l-.4 8.02Zm21.7 12.1c-4.21-.17-6.93 2.5-7.1 6.79-.17 4.29 2.34 7.11 6.55 7.28 4.08.16 6.93-2.42 7.1-6.74.16-4.2-2.47-7.18-6.55-7.34Zm-.43 10.98c-2.01-.08-2.7-1.83-2.61-3.96.08-2.13.98-4.01 2.92-3.94 1.8.07 2.67 1.88 2.58 4.15-.09 2.26-1.06 3.82-2.89 3.75Zm12.53-13.95c-4.06 1.63-5.52 5.28-3.88 9.37 1.64 4.08 5.2 5.67 9.24 4.04 3.93-1.58 5.55-5.2 3.9-9.32-1.6-4-5.33-5.67-9.26-4.1Zm4.19 10.46c-1.95.78-3.32-.57-4.13-2.6-.81-2.02-.75-4.17 1.12-4.92 1.72-.69 3.3.63 4.17 2.8.87 2.15.6 4.02-1.16 4.72Zm13.8-12.25-8.18-4-3.63 2.88L335 119.8l2.96-2.36-5.23-6.61 8.26 4.2 3.7-2.94-8.48-10.71-2.98 2.37 5.1 6.45Zm-43.84 8.26c-1.95-.71-2.67-1.42-2.48-2.06.2-.69 1.17-.97 2.57-.55 1.8.54 2.06 1.53 1.88 2.1l4.15 1.26c.88-2.93-1.1-5.31-4.76-6.41-3.99-1.2-6.98-.23-7.8 2.52-.76 2.5.88 4.4 4.22 5.7 1.72.68 3 1.29 2.75 2.11-.21.7-1.28.9-2.68.47-1.45-.44-1.93-1.23-1.66-2.13l-4.12-1.24c-.73 2.44.58 5.15 4.76 6.41 4 1.2 6.92.45 7.78-2.43.78-2.59-1.5-4.62-4.61-5.75Z"/></g><g clip-path="url(#f)"><path fill="#707070" d="m18.39 309.24 8.72 9.45 66.14-9.45-12.37-8.1-62.5 8.1Z"/><path fill="#707070" d="M27.1 319.21a.57.57 0 0 1-.43-.18l-8.7-9.45a.5.5 0 0 1-.14-.25c-.01-.1 0-.19.03-.27.04-.1.1-.17.18-.23.08-.06.17-.1.27-.1l62.5-8.11c.14-.02.28.01.4.09l12.37 8.1c.09.06.16.15.2.24.04.1.04.2.02.3-.03.11-.08.2-.17.27a.58.58 0 0 1-.3.13l-66.14 9.46h-.08Zm-7.62-9.58 7.85 8.5 64.46-9.2-11.05-7.25-61.26 7.94Z"/><path fill="#FAFCFF" d="M257.31 41.3s-5.51 9.1-5.51 22.2v13.66l47.79-8.54s-7.35-14.23-9.8-32.45l-19.6 1.14s-8.59.57-12.88 3.99Z"/><path fill="#707070" d="M251.8 77.68a.58.58 0 0 1-.4-.15.5.5 0 0 1-.16-.37V63.5c0-13.08 5.53-22.37 5.58-22.46l.13-.14c4.23-3.37 12.28-4.04 13.18-4.1l19.62-1.15a.6.6 0 0 1 .4.12c.1.09.18.2.2.34a111.1 111.1 0 0 0 9.75 32.29.49.49 0 0 1 0 .46.53.53 0 0 1-.17.18.58.58 0 0 1-.24.1l-47.78 8.54a.6.6 0 0 1-.11 0Zm5.96-36.05c-.53.92-5.4 9.71-5.4 21.87v13.03l46.42-8.3c-1.4-2.9-7.28-15.74-9.48-31.5l-19.08 1.1c-.35.03-8.4.65-12.46 3.8Z"/><path fill="#FAFCFF" d="M225.66 201.52s4.72 9.48 16.14 17.15l11.92 8 20.53-41s-16.72-2.8-34.04-11.61l-10.5 15.43s-4.52 6.8-4.05 12.03Z"/><path fill="#707070" d="M253.72 227.2a.58.58 0 0 1-.33-.1l-11.92-8c-11.4-7.66-16.27-17.27-16.32-17.36a.5.5 0 0 1-.05-.18c-.48-5.4 4.16-12.37 4.2-12.42l10.43-15.36c.08-.11.2-.2.33-.23a.6.6 0 0 1 .41.05 132.63 132.63 0 0 0 33.89 11.56c.08.02.16.05.23.1a.53.53 0 0 1 .23.4c0 .08-.02.16-.06.24l-20.53 41a.54.54 0 0 1-.2.21.6.6 0 0 1-.3.08Zm-27.5-25.82c.49.94 5.3 9.75 15.91 16.87l11.37 7.63 19.94-39.82c-3.35-.65-18-3.74-33.04-11.31l-10.2 15.02c-.05.06-4.38 6.6-3.99 11.6Z"/><path fill="#FAFCFF" d="M391.37 92.37s11.03 17.64 11.64 26.75c0 0 5.52-.57 11.64-6.26 6.13-5.7 9.2-8.54 9.2-14.23V77s-7.36 6.26-12.87 9.1c-5.52 2.85-19.61 6.27-19.61 6.27Z"/><path fill="#707070" d="M403.01 119.64a.6.6 0 0 1-.38-.14.5.5 0 0 1-.18-.34c-.6-8.89-11.46-26.36-11.57-26.53a.5.5 0 0 1-.03-.46.52.52 0 0 1 .15-.2c.07-.05.14-.09.23-.1.14-.04 14.08-3.44 19.47-6.22 5.4-2.79 12.7-8.98 12.76-9.04a.6.6 0 0 1 .6-.1c.11.05.2.12.25.2.06.09.1.19.1.29v21.63c0 5.9-3.13 8.81-9.36 14.6-6.2 5.76-11.74 6.39-11.98 6.41h-.06ZM392.22 92.7c1.9 3.12 10.39 17.41 11.3 25.8 1.54-.32 5.96-1.57 10.74-6.01 6-5.58 9.02-8.39 9.02-13.86V78.17c-2.17 1.78-7.63 6.12-12.03 8.39-4.87 2.51-16.07 5.4-19.03 6.14Zm-42.86 214.4 33.08-7.4 22.67 10.82-26.96 6.83s-7.35 0-10.41-1.14c-3.06-1.14-18.38-9.1-18.38-9.1Z"/><path fill="#707070" d="M378.15 317.87c-.3 0-7.5-.01-10.62-1.17-3.06-1.14-17.82-8.82-18.45-9.14a.54.54 0 0 1-.23-.23.48.48 0 0 1-.05-.3.5.5 0 0 1 .14-.28.58.58 0 0 1 .29-.16l33.08-7.4a.6.6 0 0 1 .39.05l22.67 10.81c.1.05.18.13.24.22a.5.5 0 0 1-.07.59.57.57 0 0 1-.28.16l-26.96 6.83a.57.57 0 0 1-.15.02ZM350.9 307.3c3.72 1.92 14.57 7.5 17.06 8.43 2.76 1.03 9.36 1.1 10.13 1.1l25.49-6.46-21.2-10.12-31.48 7.05Zm-149.23 2.56-31.26 12.5-24.31-7.11 25.33-10.96s7.25-1.16 10.47-.52c3.23.64 19.77 6.1 19.77 6.1Z"/><path fill="#707070" d="M170.4 322.88a.6.6 0 0 1-.17-.03l-24.31-7.1a.57.57 0 0 1-.27-.18.5.5 0 0 1-.04-.58c.05-.1.14-.17.24-.21l25.33-10.97.14-.04c.19-.03 4.53-.71 8.01-.71 1.09 0 2 .06 2.68.2 3.22.64 19.16 5.89 19.84 6.11.1.04.2.1.27.19a.5.5 0 0 1 .02.58.56.56 0 0 1-.25.2l-31.27 12.5a.62.62 0 0 1-.22.04Zm-22.76-7.73 22.73 6.65 29.75-11.89c-4.02-1.31-15.73-5.1-18.35-5.63-.6-.12-1.43-.18-2.44-.18-3.14 0-7.16.6-7.74.69l-23.95 10.36Zm220.66-54.72a27.99 27.99 0 0 0 9.4 1.85c4.34 0 9.68-1.48 10.48-8.55.33-2.95-.3-6.14-1.86-9.5l-18.02 16.2Zm10.74-27.8c1.05.98 4.35 4.24 6.96 8.66l2.96-23.66c-3.29 5.02-6.6 10.02-9.92 15Zm12.33-25.27-.6 4.86c.65-1.84.72-3.53.6-4.86Z"/><path fill="#707070" d="M377.7 262.8c-2.9 0-6.31-.67-9.6-1.88a.56.56 0 0 1-.23-.15.5.5 0 0 1 .04-.7l18.02-16.2c.06-.07.14-.11.23-.13a.59.59 0 0 1 .51.1c.07.04.13.11.16.19 1.61 3.43 2.25 6.71 1.91 9.75-.84 7.46-6.47 9.02-11.03 9.02Zm-8.37-2.56c2.9.98 5.85 1.52 8.38 1.52 5.97 0 9.3-2.72 9.91-8.09.3-2.65-.2-5.51-1.5-8.53l-16.79 15.1Zm16.68-18.43a.6.6 0 0 1-.3-.07.54.54 0 0 1-.2-.2 40.94 40.94 0 0 0-6.87-8.54.5.5 0 0 1-.08-.64c.63-.94 6.22-9.34 9.92-15 .06-.1.17-.18.29-.22a.6.6 0 0 1 .37 0c.12.04.22.11.3.22.06.1.09.21.07.33l-2.95 23.66a.51.51 0 0 1-.18.33.59.59 0 0 1-.38.13Zm-6.26-9.25a42.86 42.86 0 0 1 5.9 7.1l2.45-19.72c-3.27 4.98-7.26 10.98-8.35 12.62Zm11.01-19.82a.57.57 0 0 1-.42-.17.5.5 0 0 1-.13-.41l.6-4.86c.04-.27.3-.45.57-.46.14 0 .27.05.37.14.1.09.17.2.18.34.16 1.7-.05 3.43-.63 5.06-.04.1-.11.2-.2.26a.6.6 0 0 1-.34.1Z"/><path fill="#FAFCFF" d="M391.8 204.25s9.2 10.82 10.42 19.36c1.22 8.54.61 7.4-1.84 12.52-2.45 5.13-13.44 22.74-13.44 22.74s8.54-8.5-8.62-26.15l13.48-28.47Z"/><path fill="#707070" d="M386.94 259.39a.6.6 0 0 1-.28-.07.54.54 0 0 1-.2-.2.5.5 0 0 1 0-.52l1.25-2.02c1.49-3.5 2.18-11.2-9.8-23.51a.49.49 0 0 1-.1-.56l13.48-28.47a.58.58 0 0 1 .44-.3.56.56 0 0 1 .51.2c.38.43 9.3 11.02 10.54 19.6 1.03 7.2.75 7.73-.78 10.63-.38.71-.75 1.44-1.1 2.17-1.94 4.05-9.15 15.8-12.18 20.7a7.42 7.42 0 0 1-1.37 2.18.59.59 0 0 1-.41.17Zm-7.95-26.77c9.2 9.56 10.97 16.5 10.6 20.92 3.45-5.63 8.69-14.29 10.28-17.62.43-.9.8-1.6 1.12-2.21 1.44-2.72 1.66-3.14.67-10.03-1.01-7.07-7.71-15.89-9.73-18.4L379 232.62Z"/><path fill="#FAFCFF" d="m320.57 108.57-22.67 51.24s23.9 23.34 37.38 4.55c0 0-9.2 0-2.45-17.08 6.73-17.07 6.12-15.37 6.12-15.37l-18.38-23.34Z"/><path fill="#707070" d="M321.91 172.2c-11.96 0-23.91-11.54-24.41-12.03a.49.49 0 0 1-.11-.56l22.66-51.23c.04-.1.1-.16.18-.22a.59.59 0 0 1 .56-.06c.1.03.18.1.23.17l18.24 23.15c.06.04.12.09.16.14.1.14.12.36.07.52a1213.5 1213.5 0 0 0-6.13 15.38c-3.5 8.84-2.6 12.85-1.24 14.66a4.28 4.28 0 0 0 3.16 1.72c.1 0 .2.03.29.07.08.05.16.12.2.2a.5.5 0 0 1 .07.28.5.5 0 0 1-.1.26c-3.59 5.01-8.24 7.55-13.83 7.55Zm-23.35-12.51c1.8 1.67 12.8 11.46 23.35 11.46 4.93 0 9.1-2.15 12.4-6.4a5.41 5.41 0 0 1-3.1-2.03c-2.21-2.93-1.84-8.19 1.09-15.61 4.3-10.89 5.63-14.2 6.01-15.13l-17.6-22.35-22.15 50.06Z"/><path fill="#FAFCFF" d="M485.3 155.97s-4.9 25.61-14.1 50.1c0 0-3.06 3.98-4.28 4.55 0 0 0-17.08-9.2-30.74l14.71-8.54s7.97-2.85 12.87-15.37Z"/><path fill="#707070" d="M466.92 211.14a.58.58 0 0 1-.4-.15.53.53 0 0 1-.12-.17.47.47 0 0 1-.04-.2c0-.17-.12-17.1-9.11-30.47a.5.5 0 0 1-.07-.4.5.5 0 0 1 .09-.18c.04-.05.1-.1.16-.14l14.7-8.54a.6.6 0 0 1 .1-.04c.31-.12 7.82-3.02 12.54-15.06a.54.54 0 0 1 .27-.29.6.6 0 0 1 .4-.04c.14.04.26.11.33.22.08.11.1.25.08.38-.05.25-5.01 25.94-14.11 50.18a.55.55 0 0 1-.08.13c-.32.41-3.18 4.1-4.49 4.71a.63.63 0 0 1-.25.06Zm-8.42-31.1c7.59 11.6 8.76 25.59 8.94 29.5.98-.9 2.38-2.58 3.26-3.72 6.73-17.95 11.2-36.68 13.05-45.21-4.78 8.77-10.82 11.1-11.11 11.21l-14.14 8.22Zm-1.74 118.8-11.94 13.53 39.03 2.62 8.27-16.15h-35.36Z"/><path fill="#707070" d="M483.85 315.51h-.04l-39.03-2.62a.57.57 0 0 1-.47-.31c-.05-.09-.06-.18-.05-.28a.5.5 0 0 1 .13-.26l11.94-13.53a.6.6 0 0 1 .44-.2h35.35c.1.01.19.03.27.08.08.04.15.1.2.17.05.08.08.16.09.25a.5.5 0 0 1-.05.26l-8.27 16.15a.53.53 0 0 1-.2.21.6.6 0 0 1-.3.08Zm-37.9-3.58 37.56 2.52 7.72-15.09h-34.2l-11.09 12.56Z"/><path fill="#FAFCFF" d="m221.83 87.33 26.63 13.63s-10.36 5.46-9.62 10.9c.74 5.46 5.18 6.83 7.4 5.46 2.22-1.36 4.44-4.09 4.44-4.09s-5.92 8.86-12.58 12.95c-6.66 4.1-22.2 3.41-26.63 0 0 0-2.22-21.8 10.36-38.85Z"/><path fill="#707070" d="M224.67 129.52c-5.91 0-11.23-1.15-13.56-2.94a.52.52 0 0 1-.2-.35c-.02-.22-2.1-22.2 10.45-39.2.08-.1.2-.18.34-.2a.6.6 0 0 1 .4.04l26.63 13.64c.09.04.16.1.21.19a.5.5 0 0 1 0 .52.55.55 0 0 1-.2.2c-.1.05-10.03 5.34-9.34 10.38.51 3.78 2.94 5.5 4.97 5.5.59 0 1.13-.15 1.56-.41 2.11-1.3 4.28-3.95 4.3-3.97a.6.6 0 0 1 .77-.12c.12.08.2.2.23.33a.5.5 0 0 1-.07.38c-.25.36-6.06 9-12.75 13.1-3 1.85-8.01 2.91-13.74 2.91Zm-12.66-3.6c2.2 1.53 7.24 2.56 12.66 2.56 5.51 0 10.3-1 13.12-2.73 3.28-2.02 6.4-5.25 8.7-7.95-2.56 1.5-7.43-.1-8.2-5.86-.66-4.84 6.52-9.48 9.04-10.96L222 88.02c-11.34 15.73-10.17 35.59-9.99 37.9Z"/></g><path fill="#707070" d="m179.74 383-6.15-21.82h4.25l3.93 16.03h.2l4.2-16.03h3.87l4.2 16.05h.2l3.93-16.05h4.25L196.46 383h-3.9l-4.37-15.3h-.17l-4.38 15.3h-3.9Zm30.69.32c-1.6 0-2.98-.35-4.16-1.06a7.17 7.17 0 0 1-2.72-2.95 9.7 9.7 0 0 1-.96-4.43c0-1.69.32-3.17.96-4.44a7.15 7.15 0 0 1 2.72-2.96 7.92 7.92 0 0 1 4.16-1.06c1.6 0 2.98.35 4.15 1.06a7.07 7.07 0 0 1 2.72 2.96c.65 1.27.97 2.75.97 4.44 0 1.7-.32 3.17-.97 4.43a7.1 7.1 0 0 1-2.72 2.95 7.93 7.93 0 0 1-4.15 1.06Zm.02-3.09c.87 0 1.6-.24 2.17-.71a4.3 4.3 0 0 0 1.3-1.94c.3-.81.44-1.71.44-2.7 0-1.01-.15-1.92-.44-2.73a4.3 4.3 0 0 0-1.3-1.94 3.29 3.29 0 0 0-2.17-.73c-.89 0-1.63.24-2.21.72a4.37 4.37 0 0 0-1.31 1.95c-.29.81-.43 1.72-.43 2.72 0 1 .14 1.9.43 2.7.29.82.72 1.46 1.3 1.95.6.47 1.33.71 2.22.71Zm10.87 2.77v-16.36h3.74v2.72h.17a4.08 4.08 0 0 1 4.04-2.96 9.06 9.06 0 0 1 1.38.1v3.56a7.11 7.11 0 0 0-1.79-.22c-.7 0-1.33.14-1.9.45a3.35 3.35 0 0 0-1.78 3.09V383h-3.86Zm15.18-5.13v-4.66h.61l5.88-6.57h4.5l-7.23 8.05h-.8l-2.96 3.18ZM233 383v-21.82h3.85V383H233Zm10.27 0-5.33-7.45 2.6-2.71 7.34 10.16h-4.61Zm13.8 0v-16.36h3.86V383h-3.86Zm1.94-18.69c-.61 0-1.14-.2-1.58-.6-.44-.41-.66-.9-.66-1.48 0-.59.22-1.08.66-1.49.44-.4.97-.61 1.58-.61.62 0 1.14.2 1.57.62.45.4.67.9.67 1.48 0 .57-.22 1.06-.67 1.48-.43.4-.95.6-1.57.6Zm9.51 9.1V383h-3.85v-16.36h3.68v2.78h.2c.37-.92.97-1.65 1.8-2.19a5.53 5.53 0 0 1 3.07-.8 5.8 5.8 0 0 1 2.95.72c.85.48 1.5 1.18 1.96 2.1.47.91.7 2.02.7 3.33V383h-3.86v-9.82c0-1.1-.28-1.95-.85-2.57a3 3 0 0 0-2.33-.93c-.68 0-1.28.15-1.8.45-.52.3-.93.71-1.23 1.27-.3.55-.44 1.22-.44 2.01ZM290.1 383v-21.82h8.18c1.68 0 3.08.31 4.22.94 1.14.62 2 1.48 2.59 2.58.59 1.08.88 2.32.88 3.7 0 1.4-.3 2.65-.88 3.73a6.31 6.31 0 0 1-2.61 2.57 8.89 8.89 0 0 1-4.25.93h-5.42v-3.25h4.89a5 5 0 0 0 2.4-.51c.63-.34 1.09-.81 1.39-1.4.3-.6.46-1.3.46-2.07a4.4 4.4 0 0 0-.46-2.04 3.12 3.12 0 0 0-1.4-1.38 5.11 5.11 0 0 0-2.41-.5h-3.63V383h-3.95Zm18.91 0v-16.36h3.74v2.72h.17a4.08 4.08 0 0 1 4.04-2.96 9.02 9.02 0 0 1 1.38.1v3.56a7.11 7.11 0 0 0-1.79-.22c-.7 0-1.33.14-1.9.45a3.36 3.36 0 0 0-1.78 3.09V383H309Zm18.13.32c-1.6 0-2.98-.35-4.15-1.06a7.16 7.16 0 0 1-2.73-2.95 9.7 9.7 0 0 1-.96-4.43c0-1.69.32-3.17.96-4.44a7.14 7.14 0 0 1 2.73-2.96 7.93 7.93 0 0 1 4.15-1.06c1.6 0 2.99.35 4.16 1.06a7.08 7.08 0 0 1 2.72 2.96c.64 1.27.97 2.75.97 4.44 0 1.7-.33 3.17-.97 4.43a7.1 7.1 0 0 1-2.72 2.95 7.93 7.93 0 0 1-4.16 1.06Zm.03-3.09c.86 0 1.59-.24 2.17-.71a4.3 4.3 0 0 0 1.3-1.94c.29-.81.44-1.71.44-2.7 0-1.01-.15-1.92-.44-2.73a4.3 4.3 0 0 0-1.3-1.94 3.29 3.29 0 0 0-2.17-.73c-.9 0-1.63.24-2.22.72a4.37 4.37 0 0 0-1.31 1.95c-.28.81-.43 1.72-.43 2.72 0 1 .15 1.9.43 2.7.3.82.73 1.46 1.31 1.95.59.47 1.33.71 2.22.71Zm17.98 9.25a10.1 10.1 0 0 1-3.57-.57c-1-.37-1.8-.86-2.4-1.49a5.18 5.18 0 0 1-1.25-2.08l3.47-.84c.16.32.38.64.68.95.3.32.7.58 1.2.79.52.21 1.16.32 1.93.32 1.1 0 2-.27 2.72-.8.72-.53 1.08-1.4 1.08-2.6v-3.1h-.2c-.2.4-.49.8-.87 1.23-.38.41-.88.76-1.5 1.05-.62.28-1.4.43-2.33.43-1.26 0-2.4-.3-3.42-.89a6.33 6.33 0 0 1-2.43-2.66 9.86 9.86 0 0 1-.9-4.46c0-1.8.3-3.3.9-4.54a6.63 6.63 0 0 1 2.44-2.83 6.27 6.27 0 0 1 3.42-.97c.96 0 1.74.17 2.36.5.63.31 1.12.7 1.5 1.15.36.45.64.88.83 1.27h.22v-2.7h3.8v16.63c0 1.4-.33 2.55-1 3.47a6 6 0 0 1-2.74 2.06 10.7 10.7 0 0 1-3.94.68Zm.03-9.74c.82 0 1.51-.2 2.09-.6.58-.4 1.01-.97 1.31-1.71.3-.75.45-1.64.45-2.69a7.5 7.5 0 0 0-.45-2.7 3.86 3.86 0 0 0-1.3-1.8 3.36 3.36 0 0 0-2.1-.65 3.4 3.4 0 0 0-2.15.67c-.57.45-1 1.06-1.3 1.84-.3.78-.44 1.66-.44 2.64 0 1 .15 1.88.44 2.63.3.75.74 1.33 1.31 1.75.58.41 1.3.62 2.14.62Zm11.38 3.26v-16.36h3.74v2.72h.17a4.07 4.07 0 0 1 4.04-2.96 9.06 9.06 0 0 1 1.38.1v3.56a7.13 7.13 0 0 0-1.79-.22c-.7 0-1.33.14-1.9.45a3.35 3.35 0 0 0-1.78 3.09V383h-3.86Zm18.24.32a8.42 8.42 0 0 1-4.25-1.02 6.93 6.93 0 0 1-2.74-2.92 9.78 9.78 0 0 1-.96-4.47c0-1.68.32-3.16.96-4.43a7.27 7.27 0 0 1 6.79-4.06c1 0 1.96.17 2.85.5.9.31 1.7.81 2.39 1.48a7 7 0 0 1 1.64 2.58c.4 1.04.6 2.28.6 3.71v1.18h-13.42v-2.6h9.72c0-.73-.17-1.4-.48-1.97a3.48 3.48 0 0 0-1.31-1.37c-.55-.34-1.2-.5-1.94-.5-.79 0-1.48.19-2.08.57-.6.38-1.06.88-1.4 1.5-.32.6-.49 1.28-.5 2v2.28c0 .95.18 1.77.53 2.45.35.67.83 1.19 1.46 1.55.62.36 1.35.54 2.2.54.55 0 1.06-.08 1.52-.24.45-.16.84-.4 1.18-.71.33-.31.58-.7.75-1.16l3.6.4a5.62 5.62 0 0 1-1.3 2.5 6.33 6.33 0 0 1-2.42 1.63 9.3 9.3 0 0 1-3.4.58Zm23.25-12.36-3.52.39a2.8 2.8 0 0 0-1.5-1.76c-.41-.2-.92-.29-1.51-.29-.8 0-1.48.17-2.03.52-.54.35-.8.8-.8 1.36 0 .47.17.86.52 1.16.37.3.96.54 1.8.73l2.79.6c1.54.33 2.7.86 3.45 1.58a3.79 3.79 0 0 1 1.15 2.85c-.01 1.03-.31 1.94-.9 2.73a5.8 5.8 0 0 1-2.47 1.83 9.31 9.31 0 0 1-3.62.66c-2 0-3.62-.42-4.84-1.26a5.06 5.06 0 0 1-2.18-3.52l3.76-.37c.17.74.53 1.3 1.09 1.68.55.37 1.27.56 2.16.56.91 0 1.65-.19 2.2-.56.56-.38.84-.85.84-1.4 0-.47-.18-.85-.54-1.16-.35-.3-.9-.54-1.66-.7l-2.8-.59a6.64 6.64 0 0 1-3.48-1.65 4.06 4.06 0 0 1-1.11-2.96c-.01-1.01.26-1.88.82-2.62a5.37 5.37 0 0 1 2.33-1.73c1-.41 2.15-.62 3.46-.62 1.92 0 3.43.41 4.53 1.23 1.1.81 1.8 1.92 2.06 3.31Zm16.24 0-3.52.39a2.8 2.8 0 0 0-1.5-1.76c-.41-.2-.92-.29-1.51-.29-.8 0-1.48.17-2.03.52-.54.35-.8.8-.8 1.36 0 .47.17.86.52 1.16.37.3.96.54 1.8.73l2.79.6c1.54.33 2.7.86 3.45 1.58a3.78 3.78 0 0 1 1.15 2.85c-.01 1.03-.31 1.94-.9 2.73a5.81 5.81 0 0 1-2.47 1.83 9.32 9.32 0 0 1-3.62.66c-2 0-3.62-.42-4.84-1.26a5.06 5.06 0 0 1-2.18-3.52l3.76-.37c.17.74.53 1.3 1.09 1.68.55.37 1.27.56 2.16.56.91 0 1.65-.19 2.2-.56.56-.38.85-.85.85-1.4 0-.47-.19-.85-.55-1.16-.35-.3-.9-.54-1.66-.7l-2.8-.59a6.64 6.64 0 0 1-3.48-1.65 4.06 4.06 0 0 1-1.11-2.96c-.01-1.01.26-1.88.82-2.62a5.37 5.37 0 0 1 2.33-1.73c1-.41 2.15-.62 3.46-.62 1.92 0 3.43.41 4.53 1.23 1.1.81 1.8 1.92 2.06 3.31Z"/><defs><clipPath id="a"><path fill="#fff" d="M0 0h588.28v309.95H0z"/></clipPath><clipPath id="b"><path fill="#fff" d="M486.3 139.84h81.5V334h-81.5z"/></clipPath><clipPath id="c"><path fill="#fff" d="M154.09 199.51h281.44v123.36H154.1z"/></clipPath><clipPath id="d"><path fill="#fff" d="M199.51 70.36h175.46v129.15H199.51z"/></clipPath><clipPath id="e"><path fill="#fff" d="M229.8 94.41h115.33v40.53H229.8z"/></clipPath><clipPath id="f"><path fill="#fff" d="M17.83 35.65h474.85v287.22H17.83z"/></clipPath></defs></svg>
