<svg xmlns="http://www.w3.org/2000/svg" width="12" height="12" viewBox="0 0 12 12" fill="none">
<path class="fixed-color"  d="M9.30829 9.9L8.33329 5.45833L10.2291 3.5625C11.0416 2.75 11.3125 1.66667 11.0416 1.125C10.5 0.854167 9.41663 1.125 8.60413 1.9375L6.70829 3.83333L2.26663 2.85833C1.99579 2.80417 1.77913 2.9125 1.67079 3.12917L1.50829 3.4C1.39996 3.67083 1.45413 3.94167 1.67079 4.10417L4.54163 6L3.45829 7.625H1.83329L1.29163 8.16667L2.91663 9.25L3.99996 10.875L4.54163 10.3333V8.70833L6.16663 7.625L8.06246 10.4958C8.22496 10.7125 8.49579 10.7667 8.76663 10.6583L9.03746 10.55C9.25413 10.3875 9.36246 10.1708 9.30829 9.9Z" fill="#EF4444" stroke="#FAFCFF" stroke-linecap="round" stroke-linejoin="round"/>
</svg>