<svg xmlns="http://www.w3.org/2000/svg" width="16" height="16" viewBox="0 0 16 16" fill="none">
<path class="fixed-color"  d="M14.2099 8.18907C14.1684 7.95043 14.1065 7.69839 14.0233 7.43243C13.1984 4.79613 10.6863 3.88337 8.81395 3.68011C7.77209 8.54853 11.9772 8.71459 14.2099 8.18907Z" fill="#4975F8"/>
<path class="fixed-color"  d="M1 4.40529V6.29718M1 8.18907V6.29718M1 6.29718V6.29718C2.64007 6.29718 4.12236 5.443 5.41486 4.43342C6.11735 3.8847 6.8786 3.5014 7.51163 3.64853M7.51163 3.64853V1M7.51163 3.64853C7.87325 3.62227 8.32147 3.62665 8.81395 3.68011M4.25581 9.7027V9.7027C3.6251 11.1687 6.3827 11.738 7.97635 11.8227C12.1091 12.0422 14.724 11.1431 14.2099 8.18907M3.60465 15H11.5601C12.978 15 15 14.9044 15 13.4865V13.4865M14.2099 8.18907C14.1684 7.95043 14.1065 7.69839 14.0233 7.43243C13.1984 4.79613 10.6863 3.88337 8.81395 3.68011M14.2099 8.18907C11.9772 8.71459 7.77209 8.54853 8.81395 3.68011M10.1163 1.37838H14.2099M4.90698 1.37838H1" stroke="#FAFCFF" stroke-width="1.5" stroke-linecap="round" stroke-linejoin="round"/>
</svg>