<svg width="65" height="64" viewBox="0 0 65 64" fill="none" xmlns="http://www.w3.org/2000/svg">
<g id="Frame" clip-path="url(#clip0_5031_64122)">
<path id="Vector" d="M64.5 -9.33325H-3.5V72.5592H64.5V-9.33325Z" fill="#DADADA"/>
<path id="Vector_2" d="M56.7242 4.70455L64.5 -3.05621V-5.57009L55.5045 3.40804L55.5761 3.42624L55.5472 3.53881L55.4602 3.45211L55.5044 3.40794L21.1996 -5.15009L22.8478 -8.56021L21.2835 -9.31199L21.2393 -9.33325L21.2286 -9.31199L19.4342 -5.59136L5.31336 -9.33254H5.13343L2.34575 6.3404L-1.49652 15.1541L-3.5 14.1909V16.1692L10.9418 23.1099L14.4378 26.2308L10.7176 29.8448V29.8554V29.8432H10.7069L-3.5 27.5227V29.3288L9.40466 31.438L13.7439 42.9134L-3.5 47.2485V50.9158L1.19282 58.6173L-3.5 62.9937V65.4284L2.95545 59.4071L16.7461 64.6083L15.7627 72.5516H17.5573L18.4809 64.9962H18.4642L18.4885 64.9293L18.4808 64.9994L32.6755 66.7494L29.7161 72.5547H31.7196L34.56 66.9821H34.5767L34.5937 66.8498L48.2713 64.2629L48.4237 72.5593H50.2121L50.1679 70.499L64.4998 68.533V66.7342L50.1377 68.7123L50.0521 63.9297L51.1911 63.7135L64.4999 49.9467V47.3795L50.3038 62.0594L50.0218 62.1127L49.9028 55.4916L45.9296 51.9461L54.9555 39.7952H64.2987V38.0043H54.9983L43.6534 23.4887L48.8126 13.8622L64.4999 11.3742V9.56945L49.8632 11.8886L51.1637 9.45382L56.7242 4.70455ZM11.9556 21.6244L0.113689 15.9272L3.36099 8.49061L4.07925 6.83953L5.23495 -0.131416L6.37541 -7.00953L18.6505 -3.94784L13.7458 6.2172L20.2406 20.6049L15.734 24.9829L11.9557 21.6245L11.9556 21.6244ZM11.4419 31.7927L15.8191 27.468L27.1658 37.5934L27.5469 52.7617L16.7462 45.8212L11.442 31.7927H11.4419ZM17.4108 59.1833L16.9716 62.796L2.50268 57.3424L2.56667 57.4458L2.51341 57.3894L2.36068 57.5294L2.44625 57.3179L2.50574 57.3406L-2.65375 48.8754L7.38758 46.3509L17.4167 59.1834H17.4108V59.1833ZM18.6914 63.2298L19.2525 58.6401L9.27974 45.8745L14.3797 44.5917L15.2946 47.0006L29.6629 56.2357L32.787 64.9674L18.6914 63.2298ZM29.364 53.9275L28.9951 39.223L43.1439 51.8396L32.514 58.8988L31.1418 55.0807H31.1251L31.1402 55.058L29.3639 53.9273L29.364 53.9275ZM34.7751 65.3402L34.7858 65.255L34.7674 65.2034H34.7918V65.2522L34.8178 65.3236L34.775 65.3402H34.7751ZM48.1252 56.2861L48.2349 62.4414L34.702 65.0178L33.1332 60.6352L44.5269 53.0736L48.1253 56.2861H48.1252ZM53.4034 38.8623L44.5846 50.7319L17.0965 26.2123L21.4204 21.9426L42.1758 24.5005L53.4034 38.8623ZM42.0539 22.6913L22.0138 20.22L17.4017 10.0032L46.9037 13.6446L42.0539 22.6912V22.6913ZM49.5934 8.62302L47.8079 11.9555L25.8666 9.24995L19.7403 8.48908L16.6361 8.10711L16.618 8.25924L15.7032 6.2399L20.4099 -3.51424L53.8823 4.83695L49.5935 8.62302H49.5934Z" fill="#F6F6F6"/>
<g id="Group">
<path id="Vector_3" d="M21.1499 26.9279L23.3288 24.1039L40.2709 26.5425L50.3332 37.9678L43.8378 47.3397L21.1499 26.9279ZM63.0833 13.0526V36.0052H56.3822L46.0834 22.604L50.6847 15.3002L63.0833 13.0526ZM30.2166 41.9559L30.5989 52.7818L31.822 53.6199L33.2216 56.9741L41.2667 51.6386L30.2166 41.9558V41.9559ZM34.4667 61.2094L35.5808 64.0583L47.2167 61.65V57.0493L44.5559 54.424L34.4667 61.2094ZM12.9333 32.0959L17.438 44.6351L25.9667 50.1734V38.1445L15.916 29.2043L12.9334 32.0958L12.9333 32.0959ZM-2.64996 30.3379V45.6396L11.5167 42.0006L8.12435 32.1066L-2.64996 30.3379Z" fill="#9E9E9E"/>
</g>
</g>
<defs>
<clipPath id="clip0_5031_64122">
<rect width="68" height="81.8925" fill="white" transform="translate(-3.5 -9.33325)"/>
</clipPath>
</defs>
</svg>
