<svg xmlns="http://www.w3.org/2000/svg" width="557" height="418" fill="none">
  <g clip-path="url(#a)">
    <g clip-path="url(#b)">
      <path fill="#09090B" d="M111.75 291.23c5.56 0 10.07-28.53 10.07-63.73 0-35.2-4.51-63.73-10.07-63.73-5.56 0-10.07 28.53-10.07 63.73 0 35.2 4.5 63.73 10.07 63.73Z"/>
      <path fill="#9E9E9E" d="M111.75 291.98c-7.03 0-10.83-33.22-10.83-64.48 0-31.26 3.8-64.48 10.83-64.48s10.82 33.22 10.82 64.48c0 31.26-3.8 64.48-10.82 64.48Zm0-127.46c-4.4 0-9.32 25.86-9.32 62.98s4.91 62.98 9.32 62.98c4.4 0 9.31-25.86 9.31-62.98s-4.9-62.98-9.31-62.98Z"/>
      <path fill="#09090B" d="M124.86 260.63c-4.05-27.64 11.56-57.21 39.5-76.3 2.53-1.73 1.09-5.69-1.98-5.42-12.01 1.07-31.38 6.34-42.95 27.9-15.12 28.2.45 55.46.45 55.46l4.98-1.64Z"/>
      <path fill="#9E9E9E" d="M119.88 263.02a.76.76 0 0 1-.66-.38c-.16-.27-15.6-27.95-.45-56.18 11.97-22.31 32.42-27.3 43.55-28.3a3.68 3.68 0 0 1 3.92 2.63 3.63 3.63 0 0 1-1.46 4.16c-27.75 18.96-43.12 48.62-39.18 75.57a.75.75 0 0 1-.5.83l-4.98 1.64a.85.85 0 0 1-.24.03Zm42.8-83.37-.23.01c-13.22 1.18-31.3 6.9-42.35 27.5-13.59 25.34-1.89 50.25.14 54.2l3.78-1.24c-3.7-27.35 11.9-57.28 39.9-76.4 1-.69 1.1-1.74.87-2.49a2.2 2.2 0 0 0-2.1-1.58Z"/>
      <path fill="#09090B" d="M98.64 260.63c4.05-27.64-11.56-57.21-39.5-76.3-2.53-1.73-1.1-5.69 1.97-5.42 12.02 1.07 31.39 6.34 42.95 27.9 15.12 28.2-.44 55.46-.44 55.46l-4.98-1.64Z"/>
      <path fill="#9E9E9E" d="M103.62 263.02a.76.76 0 0 1-.24-.03l-4.98-1.64a.75.75 0 0 1-.5-.83c3.94-26.95-11.44-56.61-39.18-75.57a3.66 3.66 0 0 1-1.46-4.16 3.67 3.67 0 0 1 3.92-2.62c11.13.99 31.58 5.98 43.55 28.29 15.14 28.23-.3 55.9-.45 56.18a.76.76 0 0 1-.66.38Zm-4.15-2.9 3.78 1.24c2.04-3.95 13.74-28.86.15-54.2-11.05-20.6-29.13-26.32-42.36-27.5a2.2 2.2 0 0 0-2.34 1.57c-.23.75-.13 1.8.87 2.48 28 19.13 43.6 49.06 39.9 76.4Z"/>
      <path fill="#09090B" d="M125.6 250.63c6.48-23.69 29.5-42.08 58.75-47.71 2.65-.51 2.88-4.2.32-5.05-10.06-3.34-27.53-5.85-44.46 7.5C118.08 222.8 121 250.21 121 250.21l4.6.41Z"/>
      <path fill="#9E9E9E" d="M125.6 251.39h-.07l-4.6-.42a.76.76 0 0 1-.68-.67c-.03-.28-2.71-28.03 19.5-45.52 8.67-6.85 18.41-10.31 28.94-10.31 5.37 0 10.83.9 16.22 2.69a3.35 3.35 0 0 1 1.48 5.43c-.5.56-1.16.93-1.9 1.07-29.02 5.59-51.85 24.1-58.17 47.17a.76.76 0 0 1-.72.56Zm-3.9-1.86 3.34.3c6.7-23.33 29.84-42 59.16-47.64a1.8 1.8 0 0 0 1.51-1.71 1.8 1.8 0 0 0-1.28-1.9 50 50 0 0 0-15.74-2.61c-10.18 0-19.6 3.36-28.01 9.98-19.73 15.55-19.22 39.47-18.97 43.58Z"/>
      <path fill="#09090B" d="M97.9 250.63c-6.49-23.69-29.5-42.08-58.75-47.7-2.65-.52-2.89-4.21-.32-5.06 10.06-3.34 27.53-5.85 44.46 7.5 22.13 17.44 19.2 44.85 19.2 44.85l-4.59.41Z"/>
      <path fill="#9E9E9E" d="M97.9 251.39a.76.76 0 0 1-.73-.56c-6.32-23.07-29.15-41.59-58.16-47.17a3.35 3.35 0 0 1-2.17-5.2 3.35 3.35 0 0 1 1.75-1.3 51.58 51.58 0 0 1 16.22-2.7c10.52 0 20.26 3.47 28.94 10.31 22.2 17.5 19.53 45.25 19.5 45.53a.76.76 0 0 1-.68.67l-4.6.41h-.07Zm-43.1-55.42a50 50 0 0 0-15.73 2.61 1.8 1.8 0 0 0-1.29 1.9c.05.7.47 1.5 1.51 1.7 29.33 5.65 52.47 24.32 59.17 47.65l3.33-.3c.25-4.11.75-28.03-18.97-43.58-8.4-6.62-17.83-9.98-28.01-9.98Z"/>
      <path fill="#09090B" d="M119.63 251.44c21.26-18.52 54.91-21.58 86.4-8.55 2.86 1.18 5.43-2.2 3.52-4.62-7.48-9.51-22.55-22.9-47.18-20.82-32.2 2.71-46.86 30.7-46.86 30.7l4.12 3.29Z"/>
      <path fill="#9E9E9E" d="M119.63 252.19a.76.76 0 0 1-.47-.17l-4.12-3.28a.74.74 0 0 1-.2-.94c.15-.28 15.22-28.38 47.47-31.1 1.7-.14 3.4-.22 5.1-.22 21.46 0 35.09 11.6 42.74 21.33a3.64 3.64 0 0 1 .43 3.93 3.8 3.8 0 0 1-4.84 1.84c-12.48-5.17-25.75-7.9-38.36-7.9-18.39 0-35.17 5.8-47.25 16.32a.75.75 0 0 1-.5.19Zm-3.15-4.23 3.13 2.5c12.32-10.5 29.26-16.28 47.77-16.28 12.8 0 26.27 2.77 38.94 8.02a2.26 2.26 0 0 0 2.9-1.12c.39-.79.3-1.64-.26-2.35-7.45-9.46-20.7-20.75-41.54-20.75-1.64 0-3.31.07-4.98.21-28.96 2.44-43.72 25.91-45.96 29.77Z"/>
      <path fill="#09090B" d="M103.87 251.44c-21.26-18.52-54.92-21.58-86.4-8.55-2.86 1.18-5.43-2.2-3.53-4.62 7.48-9.51 22.55-22.9 47.18-20.82 32.22 2.71 46.87 30.7 46.87 30.7l-4.12 3.29Z"/>
      <path fill="#9E9E9E" d="M103.87 252.19a.76.76 0 0 1-.5-.19c-12.08-10.52-28.87-16.32-47.26-16.32-12.6 0-25.87 2.73-38.35 7.9a3.8 3.8 0 0 1-4.84-1.84 3.64 3.64 0 0 1 .43-3.93c7.65-9.73 21.28-21.33 42.73-21.33 1.68 0 3.4.08 5.11.22 32.25 2.72 47.32 30.82 47.47 31.1a.74.74 0 0 1-.2.94l-4.12 3.28a.73.73 0 0 1-.47.17Zm-47.76-18c18.52 0 35.46 5.77 47.78 16.27l3.13-2.5c-2.24-3.86-17-27.33-45.96-29.77a59.17 59.17 0 0 0-4.98-.2c-20.85 0-34.1 11.28-41.54 20.74a2.25 2.25 0 0 0 2.64 3.46c12.67-5.24 26.13-8 38.93-8Z"/>
      <path fill="#09090B" d="M158.98 270.65a46.7 46.7 0 0 0-13.6-32.99H78.11a46.7 46.7 0 0 0-13.6 32.99 46.91 46.91 0 0 0 24 40.9v5.95h19.99a48.23 48.23 0 0 0 6.48 0h19.98v-5.95a46.91 46.91 0 0 0 24.01-40.9Z"/>
      <path fill="#9E9E9E" d="M111.75 318.38c-1 0-2.05-.04-3.3-.13H88.53a.76.76 0 0 1-.75-.75v-5.52a47.8 47.8 0 0 1-24.01-41.33 47.3 47.3 0 0 1 13.83-33.52.75.75 0 0 1 .53-.22h67.25c.2 0 .4.08.54.22a47.3 47.3 0 0 1 13.83 33.52 47.8 47.8 0 0 1-24 41.33v5.52c0 .2-.09.4-.23.54a.75.75 0 0 1-.53.21h-20c-1.19.09-2.23.13-3.23.13Zm-22.47-1.63h19.23c2.52.17 4 .17 6.43 0h19.28v-5.2c0-.27.15-.52.39-.66a46.3 46.3 0 0 0 23.62-40.24 45.82 45.82 0 0 0-13.17-32.24H78.44a45.82 45.82 0 0 0-13.17 32.24 46.3 46.3 0 0 0 23.62 40.25.75.75 0 0 1 .39.65v5.2Z"/>
      <path fill="#09090B" d="M156.81 232.94c-20.24-10.34-39.63-2.36-45.06.3-5.44-2.66-24.83-10.64-45.07-.3-18.26 9.32-22.94 25.35-24 35.32-.26 2.54 3.05 3.79 4.53 1.7 16.37-22.91 41.34-35.48 64.47-31.83v.02h.13v-.02c23.13-3.65 48.11 8.92 64.47 31.83 1.49 2.09 4.8.84 4.52-1.7-1.05-9.97-5.73-26-23.99-35.32Z"/>
      <path fill="#9E9E9E" d="M178.28 271.76a3.19 3.19 0 0 1-2.61-1.36c-14.37-20.13-35.24-32.14-55.81-32.14a51.16 51.16 0 0 0-8.15.63 50.8 50.8 0 0 0-8.07-.64c-20.57 0-41.44 12.02-55.81 32.15a3.18 3.18 0 0 1-2.61 1.36 3.36 3.36 0 0 1-2.49-1.1 3.17 3.17 0 0 1-.79-2.48c.98-9.26 5.45-26.23 24.4-35.91a47.6 47.6 0 0 1 21.85-5.23 56.28 56.28 0 0 1 23.56 5.37 56.3 56.3 0 0 1 23.56-5.37c7.7 0 15.05 1.76 21.85 5.23 18.95 9.68 23.42 26.65 24.4 35.9a3.17 3.17 0 0 1-.79 2.5c-.63.7-1.54 1.1-2.49 1.1Zm-58.43-35c21.07 0 42.4 12.25 57.05 32.77.34.47.83.74 1.38.74a1.9 1.9 0 0 0 1.37-.6c.22-.25.48-.69.4-1.33-1.15-10.94-6.18-25.85-23.58-34.73a46.1 46.1 0 0 0-21.17-5.07 54.66 54.66 0 0 0-23.22 5.38.76.76 0 0 1-.66 0 54.66 54.66 0 0 0-23.23-5.38 46.1 46.1 0 0 0-21.16 5.07c-17.4 8.88-22.44 23.79-23.6 34.73-.06.65.2 1.08.42 1.33.7.78 2.1.77 2.75-.14 14.65-20.52 35.98-32.77 57.04-32.77 2.72 0 5.43.2 8.1.62 2.69-.42 5.4-.63 8.11-.63Z"/>
    </g>
    <g clip-path="url(#c)">
      <path fill="#09090B" d="m334.65 312.4-2.17-1.1a24.47 24.47 0 0 1-13.38-21.77v-75.66H256v75.66a24.37 24.37 0 0 1-13.38 21.76l-2.17 1.1c-1.53.78-.97 3.08.74 3.08h92.72c1.71 0 2.27-2.3.74-3.08Z"/>
      <path fill="#9E9E9E" d="M333.9 316.29h-92.7a2.41 2.41 0 0 1-2.39-1.88 2.4 2.4 0 0 1 1.27-2.74l2.17-1.1a23.55 23.55 0 0 0 12.94-21.05v-75.65a.81.81 0 0 1 .82-.81h63.09a.82.82 0 0 1 .81.81v75.66a23.45 23.45 0 0 0 12.94 21.04l2.17 1.1a2.4 2.4 0 0 1 1.27 2.74 2.4 2.4 0 0 1-2.38 1.88Zm-77.08-101.6v74.84A25.07 25.07 0 0 1 243 312.02l-2.16 1.1a.78.78 0 0 0-.43.92c.04.14.2.62.8.62h92.7a.78.78 0 0 0 .8-.63.78.78 0 0 0-.42-.91l-2.17-1.1a25.17 25.17 0 0 1-13.83-22.5V214.7h-61.46Z"/>
      <path fill="#9E9E9E" d="M447.06 81.63H128.04a8.18 8.18 0 0 0-8.16 8.14V259.1a8.13 8.13 0 0 0 8.16 8.14h319.02a8.18 8.18 0 0 0 8.17-8.14V89.77a8.13 8.13 0 0 0-8.17-8.14Z"/>
      <path fill="#9E9E9E" d="M447.06 268.06H128.04a9 9 0 0 1-8.98-8.95V89.77a8.98 8.98 0 0 1 8.98-8.96h319.02a8.98 8.98 0 0 1 8.98 8.96V259.1a8.98 8.98 0 0 1-8.98 8.95ZM128.04 82.44a7.37 7.37 0 0 0-7.35 7.33V259.1c0 4.03 3.3 7.32 7.35 7.32h319.02a7.35 7.35 0 0 0 7.35-7.32V89.77c0-4.04-3.3-7.33-7.35-7.33H128.04Z"/>
      <path fill="#09090B" d="M455.23 238.64H119.87v20.47a8.13 8.13 0 0 0 8.17 8.14h319.02a8.18 8.18 0 0 0 8.17-8.14v-20.47Z"/>
      <path fill="#9E9E9E" d="M447.06 268.06H128.04a9 9 0 0 1-8.98-8.95v-20.47a.81.81 0 0 1 .81-.81h335.36a.82.82 0 0 1 .81.81v20.47a8.98 8.98 0 0 1-8.98 8.95Zm-326.37-28.6v19.65c0 4.03 3.3 7.32 7.35 7.32h319.02a7.35 7.35 0 0 0 7.35-7.32v-19.65H120.69Z"/>
      <path fill="#09090B" d="M131.39 92.65h312.33v135.11H131.39V92.65Z"/>
      <path fill="#9E9E9E" d="M443.71 228.57H131.4a.82.82 0 0 1-.82-.8V92.64a.81.81 0 0 1 .82-.82h312.33a.82.82 0 0 1 .81.82v135.11a.81.81 0 0 1-.81.81Zm-311.5-1.62H442.9V93.46H132.2v133.49Z"/>
      <path fill="#09090B" d="M290.73 259.78h-6.36a3.27 3.27 0 0 1-3.27-3.25v-6.34c0-1.8 1.47-3.26 3.27-3.26h6.36c1.8 0 3.27 1.46 3.27 3.25v6.35a3.27 3.27 0 0 1-3.27 3.25Z"/>
      <path fill="#9E9E9E" d="M290.73 260.6h-6.36a4.09 4.09 0 0 1-4.08-4.07v-6.35a4.08 4.08 0 0 1 4.08-4.07h6.36a4.08 4.08 0 0 1 4.08 4.07v6.35a4.08 4.08 0 0 1-4.08 4.07Zm-6.36-12.86a2.45 2.45 0 0 0-2.45 2.44v6.35c0 1.34 1.1 2.44 2.45 2.44h6.36c1.35 0 2.45-1.1 2.45-2.44v-6.34c0-1.35-1.1-2.45-2.45-2.45h-6.36Z"/>
    </g>
    <g clip-path="url(#d)">
      <path fill="#09090B" d="m380.28 287.56 3.09 12.81-27.53 6.96-3.09-12.8 27.53-6.97Z"/>
      <path fill="#9E9E9E" d="M355.84 307.53c-.03 0-.07 0-.1-.03a.2.2 0 0 1-.09-.12l-3.09-12.81a.21.21 0 0 1 .14-.24l27.53-6.95a.2.2 0 0 1 .14.02.2.2 0 0 1 .1.12l3.08 12.81a.2.2 0 0 1-.14.24l-27.52 6.95-.05.01ZM353 294.66l3 12.44 27.14-6.87-3-12.43-27.14 6.86Z"/>
      <path fill="#9E9E9E" d="m309.85 318.11-2.7-11.22a1.92 1.92 0 0 1 1.37-2.32l59.87-15.14 3.6 14.95-59.87 15.14c-1 .25-2.02-.38-2.27-1.41Z"/>
      <path fill="#9E9E9E" d="M311.67 319.77a2.09 2.09 0 0 1-2-1.61l-2.7-11.22a2.12 2.12 0 0 1 1.5-2.56l59.88-15.14a.2.2 0 0 1 .24.14l3.6 14.95a.2.2 0 0 1-.14.24l-59.88 15.13c-.17.05-.33.07-.5.07Zm-1.63-1.7c.1.45.38.82.77 1.06.39.24.84.3 1.27.2l59.68-15.1-3.5-14.56-59.7 15.08a1.73 1.73 0 0 0-1.22 2.1l2.7 11.21Z"/>
      <path fill="#09090B" d="M410.18 318.47c17.08 0 30.93-14.19 30.93-31.68 0-17.49-13.85-31.67-30.93-31.67s-30.92 14.18-30.92 31.67c0 17.5 13.84 31.68 30.92 31.68Z"/>
      <path fill="#9E9E9E" d="M410.12 320.4c-5.9 0-11.71-1.64-16.9-4.85a33.33 33.33 0 0 1-14.88-20.7 34.08 34.08 0 0 1 3.77-25.42 32.64 32.64 0 0 1 20.2-15.25c17.57-4.44 35.38 6.58 39.71 24.56 4.34 17.99-6.42 36.23-23.98 40.67-2.6.66-5.25.99-7.92 1Zm.06-63.36a28.91 28.91 0 0 0-24.86 14.38 30.18 30.18 0 0 0-3.34 22.5 29.5 29.5 0 0 0 13.18 18.34 28.28 28.28 0 0 0 21.98 3.42c15.55-3.93 25.09-20.08 21.24-36-3.26-13.55-15.15-22.63-28.2-22.63v-.01Z"/>
      <path fill="#9E9E9E" d="M410.12 320.6a32.32 32.32 0 0 1-17-4.88 33.5 33.5 0 0 1-14.97-20.83 34.27 34.27 0 0 1 3.8-25.57A32.86 32.86 0 0 1 402.27 254a32.1 32.1 0 0 1 24.77 3.78 33.49 33.49 0 0 1 15.17 20.93c4.36 18.08-6.47 36.44-24.13 40.9-2.6.66-5.28 1-7.97 1Zm.09-67.21a32.46 32.46 0 0 0-27.94 16.14 33.88 33.88 0 0 0-3.74 25.27 33.13 33.13 0 0 0 14.8 20.58 31.95 31.95 0 0 0 24.67 3.84c17.45-4.41 28.15-22.55 23.84-40.43a33.1 33.1 0 0 0-15-20.68 31.89 31.89 0 0 0-16.63-4.72Zm-.08 63.36a28.55 28.55 0 0 1-15.07-4.32 29.69 29.69 0 0 1-13.27-18.46 30.37 30.37 0 0 1 3.36-22.66 29.1 29.1 0 0 1 25.03-14.46c13.49 0 25.16 9.36 28.4 22.77 3.86 16.03-5.73 32.3-21.39 36.25-2.3.59-4.68.89-7.06.89Zm.05-59.51a28.71 28.71 0 0 0-24.7 14.28 29.97 29.97 0 0 0-3.31 22.36 29.32 29.32 0 0 0 13.1 18.21 28.1 28.1 0 0 0 21.83 3.4c15.45-3.9 24.91-19.96 21.1-35.78-3.2-13.23-14.71-22.47-28.02-22.47Z"/>
    </g>
    <g clip-path="url(#e)">
      <path fill="#9E9E9E" d="M545.86 309.32c0 9.23-7.68 16.72-17.16 16.72H24.82c-9.48 0-17.16-7.49-17.16-16.72h538.2Z"/>
    </g>
    <g clip-path="url(#f)">
      <path fill="#09090B" d="M361.65 44.07v158.26H56.8V44.07a9.53 9.53 0 0 1 9.52-9.53h285.8a9.51 9.51 0 0 1 9.53 9.53Z"/>
      <path fill="#9E9E9E" d="M361.65 202.73H56.8a.4.4 0 0 1-.4-.4V44.07a9.94 9.94 0 0 1 9.93-9.93h285.8a9.93 9.93 0 0 1 9.92 9.93v158.26a.4.4 0 0 1-.4.4Zm-304.45-.8h304.04V44.06a9.12 9.12 0 0 0-9.1-9.13H66.32a9.13 9.13 0 0 0-9.13 9.13v157.85Z"/>
      <path fill="#9E9E9E" d="M361.65 44.07v19.61H56.8V44.07a9.53 9.53 0 0 1 9.52-9.53h285.8a9.51 9.51 0 0 1 9.53 9.53Z"/>
      <path fill="#9E9E9E" d="M361.65 64.09H56.8a.4.4 0 0 1-.4-.4V44.06a9.94 9.94 0 0 1 9.93-9.93h285.8a9.93 9.93 0 0 1 9.92 9.93v19.61a.4.4 0 0 1-.4.4Zm-304.45-.8h304.04V44.06a9.12 9.12 0 0 0-9.1-9.13H66.32a9.13 9.13 0 0 0-9.13 9.13v19.21Z"/>
      <path fill="#09090B" d="M77.72 52.4a3.45 3.45 0 1 0 0-6.88 3.45 3.45 0 0 0 0 6.89Z"/>
      <path fill="#9E9E9E" d="M89.94 52.4a3.45 3.45 0 1 0 0-6.88 3.45 3.45 0 0 0 0 6.89Z"/>
      <path fill="#09090B" d="M89.94 52.81a3.85 3.85 0 1 1 .01-7.7 3.85 3.85 0 0 1 0 7.7Zm0-6.9a3.05 3.05 0 1 0 0 6.1 3.05 3.05 0 0 0 0-6.1Zm12.22 6.49a3.44 3.44 0 1 0 0-6.88 3.44 3.44 0 0 0 0 6.89ZM348.7 40.05h3.32v3.32h-3.32v-3.32Zm0 7.56h3.32v3.32h-3.32V47.6Zm0 7.56h3.32v3.32h-3.32v-3.32Zm-24.3-1.55H130.85a5.26 5.26 0 0 1-5.24-5.24 5.26 5.26 0 0 1 5.24-5.25H324.4a5.26 5.26 0 0 1 5.25 5.25 5.26 5.26 0 0 1-5.25 5.24Z"/>
    </g>
    <g fill="#9E9E9E" clip-path="url(#g)">
      <path d="m170.58 100.43 10.55-10.56 62.56 62.6-10.55 10.55-62.56-62.6Z"/>
      <path d="m170.58 152.46 62.56-62.59 10.55 10.56-62.56 62.59-10.55-10.56Z"/>
    </g>
    <g clip-path="url(#h)">
      <path fill="#09090B" d="M495.32 368.13H51.23v-17.27c0-2.46 2.4-3.87 4.89-3.87l434.6-.27c2.5 0 4.6 1.69 4.6 4.14v17.27Z"/>
      <path fill="#9E9E9E" d="M495.32 368.54H51.23a.4.4 0 0 1-.4-.4v-17.28c0-2.78 2.73-4.28 5.29-4.28l434.6-.27c2.86 0 5.01 1.95 5.01 4.55v17.27a.4.4 0 0 1-.4.4Zm-443.68-.82h443.28v-16.87c0-2.13-1.8-3.73-4.2-3.73l-434.6.27c-2.22 0-4.48 1.19-4.48 3.46v16.87Z"/>
      <path fill="#9E9E9E" d="M84.82 350.36H63.94l2.5-10.68h8.66l1.61 1.64h5.6l2.5 9.04Zm32.25 0H96.25l2.5-10.68h8.66l1.44 1.64h5.72l2.5 9.04Zm32.3 0h-20.81l2.44-10.68h8.72l1.22 1.64h5.94l2.5 9.04Zm32.31 0h-20.87l2.5-10.68h8.77l.28.71 6.77.06 2.55 9.91Zm131.18 0h-20.82l2.5-10.68h8.71l.5.66 6.67.05 2.44 9.97Zm32.3 0h-20.81l2.5-10.68h8.65l.5.66h6.72l2.44 10.02Zm32.31 0H356.6l2.5-10.68h8.66l.72 1.1h6.5l2.5 9.58Zm32.26 0H388.9l2.5-10.68h8.66l.89 1.1h6.27l2.5 9.58Zm32.3 0h-20.81l2.5-10.68h8.65l.67 1.1h6.5l2.5 9.58Zm32.31 0h-20.87l2.5-10.68h8.66l.88 1.1h6.33l2.5 9.58Zm-196.23-10.13-17.27.38-55.9-.16-.6-.77h-8.72l-2.5 10.68h87.49l-2.5-10.13Z"/>
      <path fill="#9E9E9E" d="M474.34 350.77h-20.87a.4.4 0 0 1-.4-.32.41.41 0 0 1 0-.18l2.5-10.68a.4.4 0 0 1 .4-.31h8.66a.4.4 0 0 1 .31.14l.77.94h6.13a.4.4 0 0 1 .4.3l2.5 9.6a.42.42 0 0 1-.08.35.4.4 0 0 1-.32.16Zm-20.36-.81h19.83l-2.28-8.78h-6.01a.42.42 0 0 1-.32-.15l-.76-.94h-8.15l-2.31 9.87Zm-11.95.81h-20.81a.4.4 0 0 1-.32-.15.4.4 0 0 1-.08-.35l2.5-10.68a.4.4 0 0 1 .4-.31h8.65a.4.4 0 0 1 .35.19l.55.9h6.27a.4.4 0 0 1 .4.3l2.49 9.59a.4.4 0 0 1 0 .19.4.4 0 0 1-.22.28.42.42 0 0 1-.18.04Zm-20.3-.81h19.78l-2.29-8.78h-6.18a.4.4 0 0 1-.34-.2l-.55-.9h-8.11l-2.31 9.88Zm-12 .81H388.9a.4.4 0 0 1-.4-.32.41.41 0 0 1 0-.18l2.5-10.68a.4.4 0 0 1 .4-.31h8.66a.4.4 0 0 1 .31.14l.77.94h6.08a.4.4 0 0 1 .4.31l2.49 9.59a.41.41 0 0 1-.07.35.42.42 0 0 1-.32.16Zm-20.3-.81h19.77l-2.28-8.78h-5.96a.42.42 0 0 1-.32-.15l-.76-.94h-8.15l-2.3 9.87Zm-11.96.81H356.6a.4.4 0 0 1-.4-.5l2.5-10.68a.4.4 0 0 1 .4-.31h8.66a.4.4 0 0 1 .34.18l.6.9h6.27a.4.4 0 0 1 .4.3l2.5 9.6a.4.4 0 0 1-.08.35.4.4 0 0 1-.32.16Zm-20.36-.81h19.84l-2.29-8.78h-6.18a.4.4 0 0 1-.34-.19l-.6-.9h-8.12l-2.3 9.87Zm-11.94.81h-20.82a.4.4 0 0 1-.4-.32.4.4 0 0 1 0-.18l2.5-10.68a.4.4 0 0 1 .4-.31h8.65a.4.4 0 0 1 .33.16l.38.49h6.51a.4.4 0 0 1 .25.09.4.4 0 0 1 .14.22l2.45 10.03a.41.41 0 0 1-.08.34.42.42 0 0 1-.32.16Zm-20.31-.81h19.79l-2.25-9.22H336a.4.4 0 0 1-.32-.16l-.37-.5h-8.14l-2.31 9.88Zm-12 .81h-20.82a.4.4 0 0 1-.4-.5l2.5-10.68a.4.4 0 0 1 .4-.31h8.71a.4.4 0 0 1 .33.16l.38.5 6.46.04a.4.4 0 0 1 .39.31l2.44 9.98a.4.4 0 0 1-.21.46.4.4 0 0 1-.18.04Zm-20.3-.81h19.78l-2.24-9.17-6.35-.05a.4.4 0 0 1-.32-.16l-.38-.5h-8.19l-2.3 9.88Zm-11.95.81h-87.5a.4.4 0 0 1-.39-.5l2.5-10.68a.4.4 0 0 1 .4-.31h8.71a.41.41 0 0 1 .32.15l.49.6 55.7.17 17.26-.38c.22 0 .35.12.4.3l2.5 10.14a.4.4 0 0 1 0 .19.4.4 0 0 1-.08.16.39.39 0 0 1-.31.16Zm-86.98-.81h86.46l-2.3-9.32-16.94.37-55.9-.16a.4.4 0 0 1-.18-.04.4.4 0 0 1-.14-.11l-.5-.61h-8.2l-2.3 9.87Zm-11.95.81h-20.87a.4.4 0 0 1-.4-.32.4.4 0 0 1 0-.18l2.5-10.68a.4.4 0 0 1 .4-.31h8.77a.4.4 0 0 1 .38.25l.17.46 6.5.05a.4.4 0 0 1 .39.3l2.55 9.92c.02.06.02.12 0 .18a.41.41 0 0 1-.07.17.39.39 0 0 1-.32.16Zm-20.36-.81h19.84l-2.34-9.11-6.46-.05a.41.41 0 0 1-.38-.26l-.18-.45h-8.17l-2.3 9.87Zm-11.94.81h-20.82a.4.4 0 0 1-.4-.5l2.44-10.68a.4.4 0 0 1 .15-.22.4.4 0 0 1 .25-.1h8.72a.4.4 0 0 1 .32.17l1.1 1.47h5.74a.4.4 0 0 1 .39.3l2.5 9.05a.4.4 0 0 1-.07.35.4.4 0 0 1-.32.16Zm-20.31-.81h19.77l-2.27-8.24h-5.63a.4.4 0 0 1-.18-.04.4.4 0 0 1-.14-.12l-1.1-1.47h-8.2l-2.25 9.87Zm-12 .81H96.25a.4.4 0 0 1-.4-.32.4.4 0 0 1 0-.18l2.5-10.68a.4.4 0 0 1 .4-.31h8.66a.4.4 0 0 1 .3.13l1.33 1.5h5.53a.4.4 0 0 1 .4.3l2.49 9.05a.4.4 0 0 1-.4.51Zm-20.3-.81h19.77l-2.28-8.24h-5.4a.4.4 0 0 1-.31-.13l-1.32-1.5h-8.15l-2.32 9.87Zm-11.95.81H63.94a.4.4 0 0 1-.4-.32.4.4 0 0 1 0-.18l2.5-10.68a.4.4 0 0 1 .4-.31h8.66c.1 0 .21.04.29.12l1.5 1.51h5.43a.4.4 0 0 1 .39.3l2.5 9.05a.4.4 0 0 1-.4.51Zm-20.36-.81h19.82l-2.27-8.24h-5.3a.4.4 0 0 1-.29-.12l-1.49-1.51h-8.17l-2.3 9.87Z"/>
      <path fill="#09090B" d="M93.48 350.36H72.6l2.5-10.68h15.88l2.5 10.68Zm32.25 0H104.9l2.5-10.68h15.82l2.5 10.68Zm32.3 0h-20.81l2.5-10.68h15.82l2.5 10.68Zm32.31 0h-20.87l2.5-10.68h15.88l2.5 10.68Zm131.18 0H300.7l2.5-10.68h15.87l2.45 10.68Zm32.3 0h-20.81l2.5-10.68h15.82l2.5 10.68Zm32.31 0h-20.87l2.5-10.68h15.87l2.5 10.68Zm32.26 0h-20.82l2.5-10.68h15.87l2.45 10.68Zm32.3 0h-20.81l2.5-10.68h15.81l2.5 10.68Zm32.31 0h-20.87l2.5-10.68h15.87l2.5 10.68Zm-196.23-10.68h-82.5l-2.5 10.69h87.5l-2.5-10.69Z"/>
      <path fill="#9E9E9E" d="M483 350.77h-20.87a.4.4 0 0 1-.32-.15.4.4 0 0 1-.08-.35l2.5-10.68a.4.4 0 0 1 .4-.31h15.87a.4.4 0 0 1 .4.31l2.5 10.68a.4.4 0 0 1-.4.5Zm-20.36-.81h19.85l-2.31-9.87h-15.23l-2.31 9.87Zm-11.95.81h-20.81a.4.4 0 0 1-.4-.32.4.4 0 0 1 0-.18l2.5-10.68a.4.4 0 0 1 .4-.31h15.81a.4.4 0 0 1 .4.31l2.5 10.68a.4.4 0 0 1-.08.35.4.4 0 0 1-.32.15Zm-20.3-.81h19.8l-2.32-9.87H432.7l-2.3 9.87Zm-12 .81h-20.82a.4.4 0 0 1-.4-.5l2.5-10.68a.4.4 0 0 1 .4-.31h15.87a.4.4 0 0 1 .4.31l2.44 10.68a.42.42 0 0 1-.22.46.4.4 0 0 1-.17.04Zm-20.3-.81h19.79l-2.26-9.87h-15.23l-2.3 9.87Zm-11.96.81h-20.87a.4.4 0 0 1-.4-.32.41.41 0 0 1 0-.18l2.5-10.68a.4.4 0 0 1 .4-.31h15.87c.1 0 .19.03.26.08a.4.4 0 0 1 .14.23l2.5 10.68a.4.4 0 0 1-.08.35.42.42 0 0 1-.32.15Zm-20.36-.81h19.85l-2.3-9.87h-15.24l-2.3 9.87Zm-11.95.81h-20.81a.4.4 0 0 1-.4-.32.41.41 0 0 1 0-.18l2.5-10.68a.4.4 0 0 1 .4-.31h15.82a.4.4 0 0 1 .4.31l2.49 10.68a.4.4 0 0 1-.08.35.41.41 0 0 1-.32.15Zm-20.3-.81h19.8l-2.32-9.87h-15.18l-2.3 9.87Zm-12 .81H300.7a.4.4 0 0 1-.32-.15.4.4 0 0 1-.07-.35l2.5-10.68a.4.4 0 0 1 .39-.31h15.87a.4.4 0 0 1 .4.31l2.44 10.68a.4.4 0 0 1-.08.35.4.4 0 0 1-.31.15Zm-20.3-.81H321l-2.26-9.87h-15.23l-2.3 9.87Zm-11.95.81h-87.5a.4.4 0 0 1-.31-.15.4.4 0 0 1-.08-.35l2.5-10.68a.4.4 0 0 1 .4-.31h82.49a.4.4 0 0 1 .4.31l2.5 10.68a.4.4 0 0 1-.09.35.4.4 0 0 1-.31.15Zm-86.98-.81h86.46l-2.3-9.87H204.6l-2.31 9.87Zm-11.95.81h-20.87a.4.4 0 0 1-.4-.32.4.4 0 0 1 0-.18l2.5-10.68a.4.4 0 0 1 .4-.31h15.88a.4.4 0 0 1 .4.31l2.49 10.68a.4.4 0 0 1-.08.35.41.41 0 0 1-.32.15Zm-20.36-.81h19.85l-2.3-9.87h-15.24l-2.3 9.87Zm-11.94.81h-20.82a.4.4 0 0 1-.32-.15.4.4 0 0 1-.08-.35l2.5-10.68a.4.4 0 0 1 .4-.31h15.82c.09 0 .18.03.25.08a.4.4 0 0 1 .14.23l2.5 10.68a.4.4 0 0 1-.08.35.41.41 0 0 1-.31.15Zm-20.3-.81h19.78l-2.3-9.87h-15.18l-2.3 9.87Zm-12.01.81H104.9a.4.4 0 0 1-.4-.32.41.41 0 0 1 0-.18l2.5-10.68a.4.4 0 0 1 .4-.31h15.82a.4.4 0 0 1 .4.31l2.5 10.68a.4.4 0 0 1-.4.5Zm-20.3-.81h19.79l-2.31-9.87h-15.18l-2.3 9.87Zm-11.95.81H72.6a.4.4 0 0 1-.4-.32.4.4 0 0 1 0-.18l2.5-10.68a.4.4 0 0 1 .4-.31h15.88a.4.4 0 0 1 .4.31l2.5 10.68a.4.4 0 0 1-.4.5Zm-20.36-.81h19.85l-2.31-9.87H75.42l-2.3 9.87Z"/>
      <path fill="#09090B" d="M495.32 351.3H51.23v-.4c0-2.44 2-4.4 4.5-4.4h435.1c2.5 0 4.5 1.96 4.5 4.4v.4Z"/>
      <path fill="#9E9E9E" d="M495.32 351.7H51.23a.4.4 0 0 1-.4-.4v-.39c0-2.66 2.2-4.82 4.9-4.82h435.1c2.7 0 4.9 2.16 4.9 4.82v.38a.4.4 0 0 1-.4.4Zm-443.68-.81h443.28a4.06 4.06 0 0 0-4.1-3.99H55.74a4.06 4.06 0 0 0-4.1 3.99Z"/>
    </g>
    <path fill="#9E9E9E" d="M185.08 392.18V414h-3.51l-10.28-14.86h-.19V414h-3.95v-21.82h3.54l10.27 14.87h.2v-14.87h3.92Zm11.05 22.14c-1.6 0-2.98-.35-4.15-1.06a7.16 7.16 0 0 1-2.73-2.95 9.7 9.7 0 0 1-.96-4.43c0-1.69.32-3.17.96-4.44a7.14 7.14 0 0 1 2.73-2.96 7.93 7.93 0 0 1 4.15-1.06c1.6 0 2.98.35 4.16 1.06a7.07 7.07 0 0 1 2.71 2.96c.65 1.27.97 2.75.97 4.44 0 1.7-.32 3.17-.97 4.43a7.1 7.1 0 0 1-2.72 2.95 7.92 7.92 0 0 1-4.15 1.06Zm.02-3.09c.87 0 1.6-.24 2.17-.71a4.3 4.3 0 0 0 1.3-1.94c.3-.81.44-1.71.44-2.7 0-1.01-.14-1.92-.44-2.73a4.3 4.3 0 0 0-1.3-1.94 3.29 3.29 0 0 0-2.17-.73c-.89 0-1.62.24-2.21.72a4.37 4.37 0 0 0-1.31 1.95 8.04 8.04 0 0 0-.43 2.72c0 1 .14 1.9.43 2.7.29.82.72 1.46 1.3 1.95.6.47 1.33.71 2.22.71Zm18.26 2.77v-21.82h8.18c1.67 0 3.08.3 4.22.88 1.14.58 2 1.4 2.59 2.45a7.3 7.3 0 0 1 .88 3.65c0 1.4-.3 2.61-.9 3.64a5.9 5.9 0 0 1-2.6 2.38 9.72 9.72 0 0 1-4.25.83h-5.82v-3.28h5.3c.97 0 1.78-.14 2.4-.4a2.86 2.86 0 0 0 1.38-1.21c.31-.53.46-1.19.46-1.96a4 4 0 0 0-.46-1.98c-.3-.56-.76-.98-1.39-1.26a5.76 5.76 0 0 0-2.42-.44h-3.62V414h-3.95Zm11.27-9.89 5.4 9.89h-4.41l-5.3-9.89h4.3Zm14.85 10.21a8.42 8.42 0 0 1-4.25-1.02 6.93 6.93 0 0 1-2.74-2.92 9.78 9.78 0 0 1-.95-4.47c0-1.68.31-3.16.95-4.43a7.27 7.27 0 0 1 6.79-4.06c1 0 1.96.17 2.86.5.9.31 1.7.81 2.38 1.48a7 7 0 0 1 1.64 2.58c.4 1.04.6 2.28.6 3.71v1.18H234.4v-2.6h9.71a4 4 0 0 0-.48-1.97 3.48 3.48 0 0 0-1.3-1.37c-.56-.34-1.2-.5-1.95-.5-.78 0-1.48.19-2.07.57a4.03 4.03 0 0 0-1.9 3.5v2.28c0 .95.17 1.77.52 2.45.35.67.84 1.19 1.46 1.55.63.36 1.36.54 2.2.54.56 0 1.06-.08 1.52-.24.45-.16.85-.4 1.18-.71.34-.31.59-.7.76-1.16l3.6.4a5.62 5.62 0 0 1-1.3 2.5 6.33 6.33 0 0 1-2.43 1.63 9.3 9.3 0 0 1-3.39.58Zm10.32 5.82v-22.5h3.79v2.7h.22c.2-.4.48-.82.84-1.26.37-.46.86-.85 1.48-1.17.61-.32 1.4-.49 2.36-.49a6.23 6.23 0 0 1 5.85 3.82c.6 1.25.9 2.78.9 4.6 0 1.8-.3 3.32-.88 4.58a6.73 6.73 0 0 1-2.4 2.88 6.2 6.2 0 0 1-3.46.99 4.75 4.75 0 0 1-3.82-1.6 7.34 7.34 0 0 1-.87-1.27h-.16v8.72h-3.85Zm3.78-14.32c0 1.06.15 1.98.45 2.78.3.8.74 1.42 1.3 1.86.58.44 1.28.66 2.1.66.85 0 1.56-.22 2.14-.68.57-.46 1-1.09 1.3-1.88.3-.8.44-1.72.44-2.74 0-1.02-.14-1.92-.43-2.7-.3-.8-.73-1.41-1.3-1.86a3.4 3.4 0 0 0-2.15-.67c-.83 0-1.53.21-2.1.65a4 4 0 0 0-1.31 1.82c-.3.78-.44 1.7-.44 2.76Zm21.88 8.5c-1.6 0-2.98-.35-4.15-1.06a7.17 7.17 0 0 1-2.73-2.95 9.7 9.7 0 0 1-.96-4.43c0-1.69.32-3.17.96-4.44a7.15 7.15 0 0 1 2.73-2.96 7.93 7.93 0 0 1 4.15-1.06c1.6 0 2.98.35 4.15 1.06a7.07 7.07 0 0 1 2.72 2.96c.65 1.27.97 2.75.97 4.44 0 1.7-.32 3.17-.97 4.43a7.1 7.1 0 0 1-2.72 2.95 7.92 7.92 0 0 1-4.15 1.06Zm.02-3.09c.87 0 1.6-.24 2.17-.71a4.3 4.3 0 0 0 1.3-1.94c.3-.81.44-1.71.44-2.7 0-1.01-.14-1.92-.44-2.73a4.3 4.3 0 0 0-1.3-1.94 3.29 3.29 0 0 0-2.17-.73c-.89 0-1.63.24-2.21.72a4.37 4.37 0 0 0-1.31 1.95 8.04 8.04 0 0 0-.43 2.72c0 1 .14 1.9.43 2.7.29.82.72 1.46 1.3 1.95.6.47 1.33.71 2.22.71ZM287.4 414v-16.36h3.74v2.72h.17a4.07 4.07 0 0 1 4.04-2.96 9.06 9.06 0 0 1 1.38.1v3.56a7.11 7.11 0 0 0-1.79-.22c-.7 0-1.33.14-1.9.45a3.35 3.35 0 0 0-1.79 3.09V414h-3.85Zm20.72-16.36v2.98h-9.4v-2.98h9.4Zm-7.09-3.92h3.86v15.36c0 .52.08.91.24 1.2.16.26.37.45.63.55.27.1.56.14.88.14a3.73 3.73 0 0 0 1.13-.15l.65 3.02a7.24 7.24 0 0 1-2.27.38 6.3 6.3 0 0 1-2.61-.43 4.06 4.06 0 0 1-1.85-1.52 4.51 4.51 0 0 1-.66-2.55v-16Zm22.79 8.24-3.52.39c-.1-.36-.27-.7-.52-1a2.6 2.6 0 0 0-.98-.76c-.41-.2-.92-.29-1.51-.29-.8 0-1.48.17-2.03.52-.54.35-.8.8-.8 1.36 0 .47.17.86.53 1.16.36.3.95.54 1.79.73l2.79.6c1.55.33 2.7.86 3.45 1.58a3.79 3.79 0 0 1 1.15 2.85c0 1.03-.31 1.94-.9 2.73a5.81 5.81 0 0 1-2.47 1.83 9.32 9.32 0 0 1-3.62.66c-2 0-3.62-.42-4.84-1.26a5.05 5.05 0 0 1-2.18-3.52l3.76-.37c.17.74.53 1.3 1.09 1.68a3.8 3.8 0 0 0 2.16.56c.92 0 1.65-.19 2.2-.56.57-.38.85-.85.85-1.4 0-.47-.18-.85-.55-1.16-.35-.3-.9-.54-1.66-.7l-2.79-.59a6.63 6.63 0 0 1-3.48-1.65 4.06 4.06 0 0 1-1.12-2.96c0-1.01.26-1.88.82-2.62a5.37 5.37 0 0 1 2.33-1.73c1-.41 2.16-.62 3.46-.62 1.92 0 3.43.41 4.53 1.23 1.1.81 1.8 1.92 2.06 3.31Zm9.2-9.78h4.46l5.34 9.65h.21l5.34-9.65h4.46l-7.93 13.68V414h-3.94v-8.14l-7.94-13.68Zm26.42 22.14a8.42 8.42 0 0 1-4.25-1.02 6.93 6.93 0 0 1-2.74-2.92 9.78 9.78 0 0 1-.96-4.47c0-1.68.32-3.16.96-4.43a7.27 7.27 0 0 1 6.78-4.06c1.01 0 1.96.17 2.86.5.9.31 1.7.81 2.39 1.48a7 7 0 0 1 1.64 2.58c.4 1.04.6 2.28.6 3.71v1.18H353.3v-2.6h9.72a4.22 4.22 0 0 0-.48-1.97 3.48 3.48 0 0 0-1.31-1.37c-.56-.34-1.2-.5-1.94-.5-.8 0-1.48.19-2.08.57a4.03 4.03 0 0 0-1.9 3.5v2.28c0 .95.18 1.77.52 2.45.35.67.84 1.19 1.47 1.55.62.36 1.35.54 2.19.54.56 0 1.07-.08 1.52-.24a2.99 2.99 0 0 0 1.94-1.87l3.6.4a5.62 5.62 0 0 1-1.3 2.5 6.33 6.33 0 0 1-2.43 1.63 9.3 9.3 0 0 1-3.38.58Zm18.48-16.68v2.98h-9.4v-2.98h9.4Zm-7.08-3.92h3.85v15.36c0 .52.08.91.24 1.2.16.26.37.45.64.55.26.1.55.14.87.14a3.73 3.73 0 0 0 1.13-.15l.65 3.02a7.24 7.24 0 0 1-2.27.38 6.29 6.29 0 0 1-2.61-.43 4.06 4.06 0 0 1-1.84-1.52 4.5 4.5 0 0 1-.66-2.55v-16Z"/>
  </g>
  <defs>
    <clipPath id="a">
      <path fill="#fff" d="M0 0h557v418H0z"/>
    </clipPath>
    <clipPath id="b">
      <path fill="#fff" d="M12.53 163.02h198.43v155.36H12.53z"/>
    </clipPath>
    <clipPath id="c">
      <path fill="#fff" d="M119.06 80.81h336.99v235.47h-337z"/>
    </clipPath>
    <clipPath id="d">
      <path fill="#fff" d="M306.9 253h136.28v67.6H306.9z"/>
    </clipPath>
    <clipPath id="e">
      <path fill="#fff" d="M7.66 316.29h538.2v8.36H7.66z"/>
    </clipPath>
    <clipPath id="f">
      <path fill="#fff" d="M56.4 34.14h305.65v168.59H56.4z"/>
    </clipPath>
    <clipPath id="g">
      <path fill="#fff" d="M170.58 89.87h73.11v73.15h-73.1z"/>
    </clipPath>
    <clipPath id="h">
      <path fill="#fff" d="M50.83 339.28h444.9v29.26H50.83z"/>
    </clipPath>
  </defs>
</svg>

