<svg width="16" height="16" viewBox="0 0 16 16" fill="none" xmlns="http://www.w3.org/2000/svg">
<g id="icon/radar">
<path id="Ellipse 6" d="M16 8C16 12.4183 12.4183 16 8 16C3.58172 16 0 12.4183 0 8C0 3.58172 3.58172 0 8 0C12.4183 0 16 3.58172 16 8ZM1.45224 8C1.45224 11.6162 4.38377 14.5478 8 14.5478C11.6162 14.5478 14.5478 11.6162 14.5478 8C14.5478 4.38377 11.6162 1.45224 8 1.45224C4.38377 1.45224 1.45224 4.38377 1.45224 8Z" fill="#FAFCFF"/>
<path id="Ellipse 4" d="M10.9471 8.0001C10.9471 9.62789 9.62752 10.9475 7.99974 10.9475C6.37195 10.9475 5.05237 9.62789 5.05237 8.0001C5.05237 6.37232 6.37195 5.05273 7.99974 5.05273C9.62752 5.05273 10.9471 6.37232 10.9471 8.0001ZM6.32713 8.0001C6.32713 8.92386 7.07598 9.67271 7.99974 9.67271C8.92349 9.67271 9.67235 8.92386 9.67235 8.0001C9.67235 7.07635 8.92349 6.32749 7.99974 6.32749C7.07598 6.32749 6.32713 7.07635 6.32713 8.0001Z" fill="#FAFCFF"/>
<path id="Ellipse 5" d="M11.1735 3.53982C12.1138 4.20882 12.8186 5.15787 13.1872 6.25138C13.5558 7.3449 13.5693 8.52694 13.226 9.62863C12.8826 10.7303 12.1998 11.6953 11.2751 12.3857C10.3505 13.0761 9.2313 13.4567 8.07744 13.4729C6.92359 13.4892 5.79411 13.1404 4.85035 12.4764C3.9066 11.8123 3.19687 10.867 2.82254 9.77538C2.44821 8.68381 2.42844 7.50186 2.76605 6.39839C3.10366 5.29491 3.78139 4.32636 4.7024 3.63111L5.59564 4.8144C4.92409 5.32134 4.42993 6.02755 4.18376 6.83214C3.93759 7.63673 3.95201 8.49855 4.22495 9.29446C4.49789 10.0904 5.01539 10.7797 5.70352 11.2639C6.39165 11.7481 7.2152 12.0024 8.05653 11.9905C8.89786 11.9786 9.71391 11.7012 10.3881 11.1978C11.0623 10.6944 11.5602 9.99075 11.8105 9.18745C12.0609 8.38416 12.051 7.52228 11.7823 6.72495C11.5135 5.92762 10.9996 5.23563 10.314 4.74784L11.1735 3.53982Z" fill="#FAFCFF"/>
<rect id="Rectangle 17" x="5.32343" y="1.99683" width="3.73827" height="1.43837" transform="rotate(60 5.32343 1.99683)" fill="#FAFCFF"/>
<rect id="Rectangle 18" x="11.918" y="2.40356" width="4.50157" height="1.43837" transform="rotate(120 11.918 2.40356)" fill="#FAFCFF"/>
</g>
</svg>
