<svg width="16" height="16" viewBox="0 0 16 16" fill="none" xmlns="http://www.w3.org/2000/svg">
<g id="icon/radio">
<path id="Vector" d="M7.99996 9.33335C8.73634 9.33335 9.33329 8.7364 9.33329 8.00002C9.33329 7.26364 8.73634 6.66669 7.99996 6.66669C7.26358 6.66669 6.66663 7.26364 6.66663 8.00002C6.66663 8.7364 7.26358 9.33335 7.99996 9.33335Z" stroke="#FAFCFF" stroke-width="2" stroke-linecap="round" stroke-linejoin="round"/>
<path id="Vector_2" d="M3.28663 12.7133C2.03682 11.4632 1.33472 9.76778 1.33472 8.00002C1.33472 6.23225 2.03682 4.53687 3.28663 3.28668" stroke="#FAFCFF" stroke-width="2" stroke-linecap="round" stroke-linejoin="round"/>
<path id="Vector_3" d="M5.17329 10.8267C4.80175 10.4545 4.50725 10.0128 4.30662 9.52669C3.90105 8.547 3.90105 7.44637 4.30662 6.46669C4.50725 5.9806 4.80175 5.53884 5.17329 5.16669" stroke="#FAFCFF" stroke-width="2" stroke-linecap="round" stroke-linejoin="round"/>
<path id="Vector_4" d="M10.8267 5.17334C11.2019 5.5553 11.4966 6.0087 11.6933 6.50667C12.0989 7.48636 12.0989 8.58699 11.6933 9.56667C11.4927 10.0528 11.1982 10.4945 10.8267 10.8667" stroke="#FAFCFF" stroke-width="2" stroke-linecap="round" stroke-linejoin="round"/>
<path id="Vector_5" d="M12.7134 3.28668C13.9632 4.53687 14.6653 6.23225 14.6653 8.00002C14.6653 9.76778 13.9632 11.4632 12.7134 12.7133" stroke="#FAFCFF" stroke-width="2" stroke-linecap="round" stroke-linejoin="round"/>
</g>
</svg>
