<svg xmlns="http://www.w3.org/2000/svg" width="26" height="26" fill="none"><g clip-path="url(#a)"><path fill="#09090B" d="M13 25.797c7.067 0 12.796-5.73 12.796-12.797C25.796 5.932 20.067.203 13 .203 5.932.203.203 5.933.203 13S5.933 25.797 13 25.797Z"/><g fill="#9E9E9E"><path d="M13 26.001a13 13 0 1 1 13.001-13 13.015 13.015 0 0 1-13 13ZM13 .406a12.594 12.594 0 1 0 12.595 12.595A12.608 12.608 0 0 0 13.001.406Z"/><path d="M7.634 10.79a1.43 1.43 0 1 0 0-2.859 1.43 1.43 0 0 0 0 2.86Z"/><path d="M7.634 10.994a1.633 1.633 0 1 1 0-3.266 1.633 1.633 0 0 1 0 3.266Zm0-2.86a1.227 1.227 0 1 0 0 2.453 1.227 1.227 0 0 0 0-2.453ZM18.5 10.79a1.43 1.43 0 1 0 0-2.859 1.43 1.43 0 0 0 0 2.86Z"/><path d="M18.5 10.994a1.633 1.633 0 1 1 0-3.266 1.633 1.633 0 0 1 0 3.266Zm0-2.86a1.226 1.226 0 1 0 0 2.453 1.226 1.226 0 0 0 0-2.453ZM6.685 18.932c.104-.158.217-.31.34-.456 3.209-2.841 8.8-2.727 12.05-.003.157.129.307.266.45.41l-.049.112-.528-.21a9.547 9.547 0 0 0-.612-.223c-3.904-1.316-7.848-.97-11.68.43-.009.004.004-.02.029-.06Z"/><path d="M19.476 19.2a.204.204 0 0 1-.075-.016l-.528-.209a9.024 9.024 0 0 0-.602-.22c-3.582-1.204-7.464-1.062-11.546.429a.203.203 0 0 1-.23-.064.24.24 0 0 1 .02-.297c.113-.174.239-.34.375-.498 3.192-2.826 8.947-2.83 12.315-.006.302.252.46.418.467.425a.204.204 0 0 1 .04.223l-.049.111a.204.204 0 0 1-.187.121Zm-6.49-2.598a8.848 8.848 0 0 0-5.775 1.982c3.941-1.316 7.703-1.39 11.189-.213.144.048.276.094.396.138a9.395 9.395 0 0 0-5.81-1.907Z"/></g></g><defs><clipPath id="a"><path fill="#fff" d="M0 0h26v26H0z"/></clipPath></defs></svg>