<svg width="16" height="16" viewBox="0 0 16 16" fill="none" xmlns="http://www.w3.org/2000/svg">
<g id="icon/settings-2">
<path id="Vector" d="M13.3335 4.66675H7.3335" stroke="#09090B" stroke-width="2" stroke-linecap="round" stroke-linejoin="round"/>
<path id="Vector_2" d="M9.3335 11.3333H3.3335" stroke="#09090B" stroke-width="2" stroke-linecap="round" stroke-linejoin="round"/>
<path id="Vector_3" d="M11.3335 13.3333C12.4381 13.3333 13.3335 12.4378 13.3335 11.3333C13.3335 10.2287 12.4381 9.33325 11.3335 9.33325C10.2289 9.33325 9.3335 10.2287 9.3335 11.3333C9.3335 12.4378 10.2289 13.3333 11.3335 13.3333Z" stroke="#09090B" stroke-width="2" stroke-linecap="round" stroke-linejoin="round"/>
<path id="Vector_4" d="M4.6665 6.66675C5.77107 6.66675 6.6665 5.77132 6.6665 4.66675C6.6665 3.56218 5.77107 2.66675 4.6665 2.66675C3.56193 2.66675 2.6665 3.56218 2.6665 4.66675C2.6665 5.77132 3.56193 6.66675 4.6665 6.66675Z" stroke="#09090B" stroke-width="2" stroke-linecap="round" stroke-linejoin="round"/>
</g>
</svg>
