<svg xmlns="http://www.w3.org/2000/svg" width="16" height="16" viewBox="0 0 16 16" fill="none">
<path  class="fixed-color" d="M9.33331 10.6668H5.99998ZM12.6666 10.6668H14.6666V8.56678C14.6671 8.40813 14.611 8.25451 14.5083 8.13354C14.4057 8.01257 14.2633 7.93216 14.1066 7.90678L10.6666 7.33345L8.86665 4.93345C8.80455 4.85065 8.72403 4.78345 8.63146 4.73716C8.53889 4.69088 8.43681 4.66678 8.33331 4.66678H3.49331C3.24483 4.66505 3.0008 4.7328 2.78877 4.86237C2.57673 4.99195 2.40513 5.1782 2.29331 5.40011L1.75998 6.48678C1.48008 7.04319 1.33397 7.65727 1.33331 8.28011V10.6668H2.66665" fill="#4975F8"/>
<path class="fixed-color" d="M9.33331 10.6668H5.99998M12.6666 10.6668H14.6666V8.56678C14.6671 8.40813 14.611 8.25451 14.5083 8.13354C14.4057 8.01257 14.2633 7.93216 14.1066 7.90678L10.6666 7.33345L8.86665 4.93345C8.80455 4.85065 8.72403 4.78345 8.63146 4.73716C8.53889 4.69088 8.43681 4.66678 8.33331 4.66678H3.49331C3.24483 4.66505 3.0008 4.7328 2.78877 4.86237C2.57673 4.99195 2.40513 5.1782 2.29331 5.40011L1.75998 6.48678C1.48008 7.04319 1.33397 7.65727 1.33331 8.28011V10.6668H2.66665" stroke="#FAFCFF" stroke-linecap="round" stroke-linejoin="round"/>
<path  class="fixed-color" d="M4.33335 12.6666C5.25383 12.6666 6.00002 11.9204 6.00002 10.9999C6.00002 10.0794 5.25383 9.33325 4.33335 9.33325C3.41288 9.33325 2.66669 10.0794 2.66669 10.9999C2.66669 11.9204 3.41288 12.6666 4.33335 12.6666Z" fill="#4975F8" stroke="#FAFCFF" stroke-linecap="round" stroke-linejoin="round"/>
<path class="fixed-color" d="M11 12.6666C11.9205 12.6666 12.6666 11.9204 12.6666 10.9999C12.6666 10.0794 11.9205 9.33325 11 9.33325C10.0795 9.33325 9.33331 10.0794 9.33331 10.9999C9.33331 11.9204 10.0795 12.6666 11 12.6666Z" fill="#4975F8" stroke="#FAFCFF" stroke-linecap="round" stroke-linejoin="round"/>
</svg>