<svg width="18" height="18" viewBox="0 0 18 18" fill="none" xmlns="http://www.w3.org/2000/svg">
<g id="icon/wall-camare">
<path id="Union" fill-rule="evenodd" clip-rule="evenodd" d="M3.27239 6.40717C3.10901 6.3137 2.98126 6.1807 2.89436 6.02683C2.73687 5.74982 2.71088 5.40313 2.85475 5.09461C2.87158 5.05852 2.89027 5.02394 2.91066 4.99093L4.9085 1.36172C4.97243 1.2314 5.06113 1.12135 5.16622 1.03466C5.46596 0.785547 5.89627 0.731276 6.25979 0.927308L16.6121 5.79827C16.7182 5.84818 16.8117 5.91445 16.891 5.99271C17.172 6.26956 17.2778 6.69891 17.1253 7.08727L16.8969 7.66937C17.1164 7.93716 17.19 8.31238 17.0574 8.66015L16.409 10.3598C16.2714 10.7205 15.9482 10.9563 15.5901 10.9994L15.5252 11.1648C15.471 11.3029 15.3897 11.4217 15.2899 11.5177C15.0016 11.7959 14.561 11.8792 14.1771 11.6931L9.5233 9.43765L7.56639 12.8524C7.55751 12.8689 7.54817 12.8851 7.53841 12.9011C7.33277 13.2508 6.94836 13.4265 6.57121 13.3795H2.79999L2.79999 16.1845C2.79999 16.7368 2.35227 17.1845 1.79999 17.1845C1.2477 17.1845 0.799988 16.7368 0.799988 16.1845L0.799988 7.05289C0.799988 6.50061 1.2477 6.05289 1.79999 6.05289C2.35227 6.05289 2.79999 6.50061 2.79999 7.05289L2.79999 11.3795H6.10568L7.71948 8.56343L3.38355 6.46202C3.34591 6.44626 3.30879 6.428 3.27239 6.40717ZM5.13863 5.09036L6.22319 3.12018L14.9272 7.2156L14.0638 9.41593L5.13863 5.09036Z" fill="currentColor"/>
</g>
</svg>
