<svg xmlns="http://www.w3.org/2000/svg" width="30" height="30" viewBox="0 0 30 30" fill="none">
<path fill-rule="evenodd" clip-rule="evenodd" d="M9.14906 0.63253C8.80373 0.848748 5.97928 3.62419 5.88682 3.8382C5.61533 4.46637 6.0755 5.14936 6.77017 5.14936C7.1612 5.14936 7.31437 5.05384 8.0427 4.35566L8.72312 3.70341V6.29076V8.87806H6.02175H3.32038L3.99347 8.22208C4.3637 7.86132 4.70089 7.49982 4.74274 7.4188C4.90001 7.11461 4.79469 6.59789 4.52697 6.35994C4.2601 6.12273 3.77269 6.04563 3.45664 6.19063C3.36728 6.23165 2.57806 6.95479 1.70285 7.79756C0.238489 9.20775 0.106556 9.34773 0.0483743 9.55281C-0.00138038 9.72834 -0.00966499 10.1828 0.00952272 11.6901L0.0339002 13.6046L0.1655 13.7881C0.549302 14.3231 1.37537 14.3231 1.75917 13.7881L1.89077 13.6046L1.91458 12.1965L1.93839 10.7884L5.33014 10.7766L8.72184 10.7648L8.73441 15.6413C8.74683 20.4875 8.74755 20.5185 8.84525 20.645C8.89929 20.7151 9.02446 20.8357 9.1234 20.9131L9.30328 21.0539L14.322 21.066L19.3406 21.0781V24.3459V27.6136L18.0432 27.6147C17.3296 27.6153 16.6629 27.6344 16.5616 27.6571C16.2049 27.7371 15.8978 28.0729 15.834 28.4525C15.7733 28.8141 16.0347 29.2494 16.4121 29.4151C16.5867 29.4918 16.7703 29.499 18.5685 29.5C20.229 29.5008 20.5615 29.49 20.711 29.4303C20.9535 29.3335 23.9816 26.4195 24.1057 26.1636C24.284 25.7959 24.1787 25.322 23.8614 25.0638C23.6569 24.8975 23.5134 24.8465 23.2436 24.8446C22.8708 24.8418 22.6974 24.951 21.9732 25.6453L21.2927 26.2976V23.6872V21.0769H23.9926H26.6925L26.0221 21.7328C25.6533 22.0936 25.3168 22.4551 25.2743 22.5361C25.2291 22.6223 25.1969 22.7954 25.1969 22.953C25.1969 23.5796 25.79 24.0044 26.4353 23.8399C26.6267 23.7911 26.8191 23.6215 28.2739 22.2191C29.5022 21.0351 29.9123 20.6119 29.9547 20.4851C29.9952 20.3641 30.0068 19.7709 29.9964 18.3575L29.982 16.3976L29.8476 16.2014C29.6598 15.9271 29.2835 15.7603 28.9413 15.7994C28.6323 15.8348 28.3553 16.0178 28.1965 16.2914C28.0782 16.4954 28.0774 16.5044 28.0629 17.843L28.0484 19.1895H24.6712H21.294L21.2815 14.3406L21.2689 9.49159L21.1373 9.30805C21.065 9.20706 20.915 9.0742 20.804 9.01275L20.6024 8.90107L15.6388 8.88874L10.6752 8.8764V5.60886V2.34133H12.0875H13.4998L13.7051 2.22501C13.93 2.09759 14.125 1.81936 14.175 1.55458C14.2388 1.21734 14.0252 0.803083 13.6848 0.603851C13.5089 0.500921 13.4994 0.50046 11.4344 0.50023L9.36074 0.5L9.14906 0.63253ZM22.43 0.793692C22.1589 0.887324 21.9757 1.03656 21.8682 1.2514C21.6951 1.59697 21.7612 2.06444 22.0211 2.33355C22.2742 2.59566 22.2486 2.59263 24.4074 2.61753L26.4033 2.64055L25.1062 3.88345C23.6991 5.23181 23.5317 5.4367 23.5309 5.81178C23.5299 6.31727 23.9733 6.76131 24.4779 6.76025C24.8669 6.75947 24.927 6.71389 26.3645 5.3294C27.1245 4.59742 27.7612 3.99853 27.7795 3.99853C27.7977 3.99853 27.8187 4.86681 27.826 5.92801L27.8394 7.8575L27.9829 8.05705C28.4048 8.64384 29.2958 8.57884 29.6648 7.93437C29.7359 7.81022 29.7453 7.4838 29.7574 4.69966C29.766 2.71926 29.7536 1.54118 29.7229 1.4313C29.6575 1.19763 29.4105 0.920284 29.1759 0.817307C28.9935 0.737163 28.7948 0.732238 25.7921 0.733205C23.3077 0.733987 22.564 0.747383 22.43 0.793692ZM19.3406 14.9775V19.1895H15.0079H10.6752V14.9775V10.7654H15.0079H19.3406V14.9775ZM0.914725 21.589C0.669142 21.6599 0.461315 21.8311 0.349378 22.0546C0.25225 22.2486 0.250393 22.3102 0.246869 25.4121C0.243013 28.8008 0.238823 28.7373 0.482455 28.983C0.538875 29.04 0.669094 29.1281 0.771794 29.1787C0.953244 29.2682 1.05094 29.2708 4.20996 29.2698C7.2699 29.2688 7.47283 29.2638 7.65523 29.1837C8.03903 29.0151 8.29304 28.5436 8.20424 28.1644C8.12635 27.8318 7.98537 27.6526 7.67565 27.4926C7.52191 27.4131 7.35622 27.4054 5.53587 27.3926L3.56277 27.3786L4.9271 26.0576C5.83449 25.179 6.31595 24.6792 6.36461 24.5654C6.51896 24.2041 6.4315 23.7952 6.14388 23.5337C5.9131 23.3238 5.81192 23.2865 5.47416 23.2865C5.22025 23.2865 5.13635 23.3082 4.95919 23.4196C4.84278 23.4927 4.17987 24.1038 3.48612 24.7775C2.79236 25.4512 2.20849 26.0024 2.18868 26.0024C2.16888 26.0024 2.15264 25.1468 2.15264 24.1011V22.1997L2.01228 21.9857C1.78827 21.6442 1.31533 21.4732 0.914725 21.589Z" fill="#FAFCFF"/>
</svg>