<svg width="32" height="32" viewBox="0 0 32 32" fill="none" xmlns="http://www.w3.org/2000/svg">
<path d="M20.6666 2.66663H11.4666C10.9333 2.66663 10.3999 2.93329 9.99992 3.33329C9.59992 3.73329 9.33325 4.26663 9.33325 4.79996V21.8666C9.33325 22.4 9.59992 22.9333 9.99992 23.3333C10.3999 23.7333 10.9333 24 11.4666 24H24.5333C25.0666 24 25.5999 23.7333 25.9999 23.3333C26.3999 22.9333 26.6666 22.4 26.6666 21.8666V8.66663L20.6666 2.66663Z" stroke="#FAFCFF" stroke-width="2" stroke-linecap="round" stroke-linejoin="round"/>
<path d="M4 10.1333V27.2C4 27.7333 4.26667 28.2666 4.66667 28.6666C5.06667 29.0666 5.6 29.3333 6.13333 29.3333H19.2" stroke="#FAFCFF" stroke-width="2" stroke-linecap="round" stroke-linejoin="round"/>
<path d="M20 2.66663V9.33329H26.6667" stroke="#FAFCFF" stroke-width="2" stroke-linecap="round" stroke-linejoin="round"/>
</svg>
